<svg width="19" height="24" viewBox="0 0 19 24" fill="none" xmlns="http://www.w3.org/2000/svg">
<path fill-rule="evenodd" clip-rule="evenodd" d="M0 9.54921L0.528867 13.488L5.64021 11.9092C5.64021 11.9092 5.40546 11.0451 5.11057 10.3414C4.86239 9.74908 4.58756 9.27527 4.59668 9.26278C4.61659 9.23535 0 9.54921 0 9.54921Z" fill="#A9005B"/>
<path fill-rule="evenodd" clip-rule="evenodd" d="M9.38043 15.1733L15.6019 13.9695L15.8906 8.72589L10.6808 9.01787C9.87099 11.0088 9.43755 13.0606 9.38043 15.1733Z" fill="#ED147C"/>
<path fill-rule="evenodd" clip-rule="evenodd" d="M1.64562 22.6587L1.40143 20.3935L7.17708 20.2914C7.33979 21.0733 7.40292 21.9106 7.31144 22.8337L1.64562 22.6587Z" fill="#DF0075"/>
<path fill-rule="evenodd" clip-rule="evenodd" d="M14.9742 23.0858L9.19957 22.9173C8.98492 20.6183 9.05194 18.302 9.23819 16.0467L15.5096 15.5452L14.9742 23.0858Z" fill="#A9005B"/>
<path fill-rule="evenodd" clip-rule="evenodd" d="M1.2754 19.4296L0.698944 14.7338L5.82418 12.8551C6.41152 14.7984 6.76347 16.8675 6.97185 19.0074L1.2754 19.4296Z" fill="#ED147C"/>
<path fill-rule="evenodd" clip-rule="evenodd" d="M5.13757 9.32755L5.30609 9.82578L6.06442 9.68168C6.06442 9.68168 6.24465 9.58029 6.1937 9.38342C6.1428 9.18656 5.93277 9.18811 5.93277 9.18811L5.13757 9.32755Z" fill="#EF0A71"/>
<path fill-rule="evenodd" clip-rule="evenodd" d="M5.55011 10.5L5.68389 10.9853L6.43891 10.8608C6.43891 10.8608 6.66274 10.7418 6.61614 10.5897C6.56954 10.4376 6.46618 10.3231 6.27128 10.3496C6.07638 10.3762 5.55011 10.5 5.55011 10.5Z" fill="#EF0A71"/>
<path fill-rule="evenodd" clip-rule="evenodd" d="M5.96942 11.7078L6.10222 12.2238L6.86097 12.0469C6.86097 12.0469 7.01041 11.9554 6.98097 11.78C6.95153 11.6047 6.83392 11.5282 6.73362 11.5358C6.63337 11.5436 5.96942 11.7078 5.96942 11.7078Z" fill="#EF0A71"/>
<path fill-rule="evenodd" clip-rule="evenodd" d="M6.36533 13.4317L6.25943 12.9437L7.05229 12.7685C7.05229 12.7685 7.28052 12.7798 7.30576 12.9935C7.33105 13.2073 7.1162 13.2763 7.1162 13.2763L6.36533 13.4317Z" fill="#EF0A71"/>
<path fill-rule="evenodd" clip-rule="evenodd" d="M6.63381 14.5254L6.55005 14.0187L7.21042 13.9321C7.21042 13.9321 7.54911 13.8985 7.59363 14.1499C7.63541 14.3856 7.28698 14.4287 7.28698 14.4287L6.63381 14.5254Z" fill="#EF0A71"/>
<path fill-rule="evenodd" clip-rule="evenodd" d="M6.79565 15.2314L6.86993 15.7205L7.58141 15.6048C7.58141 15.6048 7.85302 15.5182 7.80834 15.3192C7.76366 15.1203 7.49143 15.131 7.49143 15.131L6.79565 15.2314Z" fill="#EF0A71"/>
<path fill-rule="evenodd" clip-rule="evenodd" d="M9.91744 9.88846L9.78464 10.3858L9.05061 10.2425C9.05061 10.2425 8.80242 10.1603 8.83446 9.97958C8.86649 9.79889 8.92299 9.77162 9.07741 9.76499C9.23187 9.75835 9.91744 9.88846 9.91744 9.88846Z" fill="#EF0A71"/>
<path fill-rule="evenodd" clip-rule="evenodd" d="M8.4642 11.2783C8.4642 11.2783 8.49053 11.0605 8.68253 11.0514C8.87452 11.0424 9.52448 11.1353 9.52448 11.1353L9.46544 11.6255L8.77194 11.5541C8.77194 11.5541 8.53418 11.5316 8.4642 11.2783Z" fill="#EF0A71"/>
<path fill-rule="evenodd" clip-rule="evenodd" d="M9.24633 12.8024L9.28904 12.3114L8.38836 12.2902C8.38836 12.2902 8.25753 12.2816 8.2169 12.494C8.17626 12.7065 8.35788 12.7443 8.35788 12.7443L9.24633 12.8024Z" fill="#EF0A71"/>
<path fill-rule="evenodd" clip-rule="evenodd" d="M9.17362 13.444L9.09789 13.9569L8.29959 13.953C8.29959 13.953 8.08831 13.9242 8.0526 13.6945C8.01828 13.474 8.14476 13.3865 8.34639 13.397C8.45934 13.4029 9.17362 13.444 9.17362 13.444Z" fill="#EF0A71"/>
<path fill-rule="evenodd" clip-rule="evenodd" d="M8.95669 15.1637L8.97111 14.6673L8.21152 14.6565C8.21152 14.6565 7.94344 14.7006 7.93478 14.8546C7.92618 15.0086 8.10428 15.1583 8.17581 15.1594C8.24734 15.1603 8.95669 15.1637 8.95669 15.1637Z" fill="#EF0A71"/>
<path fill-rule="evenodd" clip-rule="evenodd" d="M8.8771 15.7604L8.87887 16.2008L8.28484 16.2324C8.28484 16.2324 7.96487 16.2088 7.9617 15.9727C7.95844 15.7278 8.18703 15.7246 8.18703 15.7246L8.8771 15.7604Z" fill="#EF0A71"/>
<path fill-rule="evenodd" clip-rule="evenodd" d="M8.75924 18.642C8.75924 18.642 8.74888 18.2335 8.76101 18.2044C8.77308 18.1753 8.2029 18.1793 8.2029 18.1793C8.2029 18.1793 7.91927 18.2048 7.93222 18.385C7.94518 18.5653 8.1647 18.5854 8.1647 18.5854L8.75924 18.642Z" fill="#EF0A71"/>
<path fill-rule="evenodd" clip-rule="evenodd" d="M8.72617 19.8641L8.71119 19.3966L8.02024 19.3835C8.02024 19.3835 7.79694 19.398 7.79844 19.6222C7.79994 19.8464 7.98872 19.8642 8.05528 19.867C8.12189 19.8699 8.72617 19.8641 8.72617 19.8641Z" fill="#EF0A71"/>
<path fill-rule="evenodd" clip-rule="evenodd" d="M8.69588 21.0263L8.6978 20.5396L8.14748 20.5805C8.14748 20.5805 7.91002 20.6146 7.93345 20.8309C7.95688 21.0472 8.06044 21.0646 8.14338 21.0678C8.22631 21.0711 8.69588 21.0263 8.69588 21.0263Z" fill="#EF0A71"/>
<path fill-rule="evenodd" clip-rule="evenodd" d="M7.56384 21.2016C7.56384 21.2016 7.57271 21.6281 7.57208 21.6188C7.57141 21.6094 8.04113 21.595 8.04113 21.595C8.04113 21.595 8.29528 21.5536 8.28771 21.3667C8.27983 21.173 8.02408 21.1757 7.93632 21.1753C7.8481 21.1749 7.56384 21.2016 7.56384 21.2016Z" fill="#EF0A71"/>
<path fill-rule="evenodd" clip-rule="evenodd" d="M8.74322 21.7546L8.73057 22.2418L8.19652 22.212C8.19652 22.212 7.9401 22.2005 7.93657 22.0386C7.933 21.8766 7.98442 21.7784 8.14386 21.7676C8.3033 21.7568 8.74322 21.7546 8.74322 21.7546Z" fill="#EF0A71"/>
<path fill-rule="evenodd" clip-rule="evenodd" d="M7.56839 22.4057L7.5743 22.7518C7.5743 22.7518 8.15453 22.7469 8.1692 22.7335C8.18387 22.7201 8.35772 22.7459 8.35518 22.6306C8.35264 22.5152 8.31045 22.4013 8.22648 22.3902C8.14256 22.3791 7.56839 22.4057 7.56839 22.4057Z" fill="#EF0A71"/>
<path fill-rule="evenodd" clip-rule="evenodd" d="M7.30893 20.0287L7.9197 20.0267C7.9197 20.0267 8.1726 20.028 8.18545 20.2373C8.1996 20.4691 7.95214 20.5017 7.95214 20.5017L7.37383 20.5106L7.30893 20.0287Z" fill="#EF0A71"/>
<path fill-rule="evenodd" clip-rule="evenodd" d="M10.3572 8.85118L10.1407 9.33785L9.47875 9.25559C9.47875 9.25559 9.22237 9.21106 9.24518 8.97993C9.26358 8.79333 9.42499 8.77452 9.53276 8.78722L10.3572 8.85118Z" fill="#EF0A71"/>
<path fill-rule="evenodd" clip-rule="evenodd" d="M7.02852 18.0969L8.61289 18.1832L8.72921 16.957C8.72921 16.957 8.62295 16.2768 7.9546 16.242C7.08528 16.1968 7.02158 16.9247 7.02158 16.9247L7.02852 18.0969Z" fill="#9F0B5B"/>
<path fill-rule="evenodd" clip-rule="evenodd" d="M7.52901 18.4727C7.52901 18.4727 7.37102 18.396 7.38455 18.2317C7.39813 18.0675 7.82073 16.8945 7.87464 16.8076L8.27885 16.9045C8.27885 16.9045 7.87843 18.1958 7.79881 18.3439C7.71919 18.4919 7.52901 18.4727 7.52901 18.4727Z" fill="#F281C1"/>
<path fill-rule="evenodd" clip-rule="evenodd" d="M5.99657 21.8847C5.99657 21.8847 5.6527 21.831 5.63103 21.6582C5.5949 21.3703 5.5722 21.1234 5.5722 21.1234C5.5722 21.1234 5.50746 20.9182 5.62087 20.7937C5.78125 20.6178 7.20089 17.4409 7.20089 17.4409C7.20089 17.4409 7.26076 17.2346 7.34691 17.2585C7.43306 17.2824 7.56705 17.2546 7.37988 17.6062C7.1927 17.9578 7.10583 18.3667 7.10583 18.3667C7.10583 18.3667 7.10448 18.6208 7.35453 18.6789C7.60453 18.7369 7.75796 18.7851 7.89952 18.6682C8.04113 18.5514 8.21819 17.7136 8.24297 17.6562C8.2678 17.5988 8.43922 17.5143 8.35436 17.8977L7.61769 21.21C7.61769 21.21 7.58187 21.4898 7.47209 21.6264C7.31798 21.8182 7.19788 22.0894 6.92907 22.062C6.66026 22.0345 5.99657 21.8847 5.99657 21.8847Z" fill="#F281C1"/>
<path fill-rule="evenodd" clip-rule="evenodd" d="M7.84525 8.26892C7.84525 8.26892 12.1098 3.41866 14.8353 1.93635C17.3062 0.592702 18.3165 0.855969 18.7871 1.63561C18.7871 1.63561 19.6129 2.81785 18.0117 3.96816C17.6478 4.22941 16.9968 4.70214 16.1462 5.14786C15.166 5.66128 13.9287 6.16252 12.6997 6.65303C10.2971 7.61176 7.84525 8.26892 7.84525 8.26892Z" fill="#DF0866"/>
<path fill-rule="evenodd" clip-rule="evenodd" d="M7.04374 7.80277C7.04374 7.80277 6.64959 2.62922 7.10433 1.57714C7.55908 0.525 8.12646 -0.0861809 8.80367 0.00986838C9.48094 0.105918 10.2785 0.98928 10.1017 2.22932C9.92485 3.46935 9.18232 4.91662 8.71343 5.70829C8.26164 6.47114 7.04374 7.80277 7.04374 7.80277Z" fill="#DF0866"/>
<path fill-rule="evenodd" clip-rule="evenodd" d="M6.2096 8.24305C6.2096 8.24305 3.59201 6.8755 2.86955 6.32543C2.14708 5.77536 1.68124 5.34302 1.65449 5.07861C1.62775 4.8142 2.17766 4.31996 3.49182 5.45907C4.80598 6.59818 6.2096 8.24305 6.2096 8.24305Z" fill="#DF0866"/>
</svg>
