<svg width="83" height="22" viewBox="0 0 83 22" fill="none" xmlns="http://www.w3.org/2000/svg">
<path fill-rule="evenodd" clip-rule="evenodd" d="M0.483856 9.06283L0.985786 12.801L5.83679 11.3026C5.83679 11.3026 5.61399 10.4825 5.33412 9.81466C5.09858 9.25252 4.83775 8.80283 4.84641 8.79098C4.8653 8.76495 0.483856 9.06283 0.483856 9.06283Z" fill="#A9005B"/>
<path fill-rule="evenodd" clip-rule="evenodd" d="M9.38654 14.4005L15.2911 13.258L15.5651 8.28143L10.6206 8.55854C9.85211 10.448 9.44075 12.3954 9.38654 14.4005Z" fill="#ED147C"/>
<path fill-rule="evenodd" clip-rule="evenodd" d="M2.04566 21.5046L1.8139 19.3547L7.29538 19.2578C7.4498 20 7.50972 20.7946 7.42289 21.6707L2.04566 21.5046Z" fill="#DF0075"/>
<path fill-rule="evenodd" clip-rule="evenodd" d="M14.6954 21.91L9.21489 21.75C9.01118 19.5681 9.07478 17.3698 9.25154 15.2294L15.2036 14.7534L14.6954 21.91Z" fill="#A9005B"/>
<path fill-rule="evenodd" clip-rule="evenodd" d="M1.69425 18.4399L1.14716 13.9834L6.01134 12.2004C6.56877 14.0446 6.90279 16.0084 7.10056 18.0393L1.69425 18.4399Z" fill="#ED147C"/>
<path fill-rule="evenodd" clip-rule="evenodd" d="M5.35974 8.85249L5.51967 9.32534L6.23938 9.18858C6.23938 9.18858 6.41043 9.09236 6.36208 8.90552C6.31377 8.71868 6.11443 8.72015 6.11443 8.72015L5.35974 8.85249Z" fill="#EF0A71"/>
<path fill-rule="evenodd" clip-rule="evenodd" d="M5.75125 9.96519L5.87822 10.4257L6.59478 10.3076C6.59478 10.3076 6.80721 10.1947 6.76298 10.0503C6.71875 9.90596 6.62066 9.79724 6.43569 9.82243C6.25072 9.84766 5.75125 9.96519 5.75125 9.96519Z" fill="#EF0A71"/>
<path fill-rule="evenodd" clip-rule="evenodd" d="M6.14923 11.1114L6.27527 11.6012L6.99537 11.4333C6.99537 11.4333 7.1372 11.3465 7.10926 11.18C7.08132 11.0136 6.96969 10.941 6.8745 10.9483C6.77936 10.9556 6.14923 11.1114 6.14923 11.1114Z" fill="#EF0A71"/>
<path fill-rule="evenodd" clip-rule="evenodd" d="M6.52497 12.7476L6.42447 12.2844L7.17694 12.1182C7.17694 12.1182 7.39355 12.1289 7.4175 12.3317C7.44151 12.5345 7.2376 12.6001 7.2376 12.6001L6.52497 12.7476Z" fill="#EF0A71"/>
<path fill-rule="evenodd" clip-rule="evenodd" d="M6.77978 13.7855L6.70029 13.3046L7.32702 13.2225C7.32702 13.2225 7.64846 13.1906 7.69072 13.4291C7.73037 13.6529 7.39968 13.6937 7.39968 13.6937L6.77978 13.7855Z" fill="#EF0A71"/>
<path fill-rule="evenodd" clip-rule="evenodd" d="M6.93338 14.4556L7.00387 14.9198L7.67912 14.81C7.67912 14.81 7.93689 14.7278 7.89449 14.5389C7.85208 14.3501 7.59371 14.3603 7.59371 14.3603L6.93338 14.4556Z" fill="#EF0A71"/>
<path fill-rule="evenodd" clip-rule="evenodd" d="M9.89616 9.38475L9.77012 9.85672L9.07348 9.72074C9.07348 9.72074 8.83794 9.64272 8.86834 9.47123C8.89874 9.29974 8.95236 9.27386 9.09891 9.26757C9.24551 9.26127 9.89616 9.38475 9.89616 9.38475Z" fill="#EF0A71"/>
<path fill-rule="evenodd" clip-rule="evenodd" d="M8.51694 10.7038C8.51694 10.7038 8.54193 10.4971 8.72414 10.4885C8.90636 10.48 9.52321 10.5682 9.52321 10.5682L9.46717 11.0334L8.809 10.9656C8.809 10.9656 8.58335 10.9443 8.51694 10.7038Z" fill="#EF0A71"/>
<path fill-rule="evenodd" clip-rule="evenodd" d="M9.25924 12.1503L9.29977 11.6843L8.44497 11.6642C8.44497 11.6642 8.32081 11.6561 8.28224 11.8577C8.24367 12.0593 8.41604 12.0952 8.41604 12.0952L9.25924 12.1503Z" fill="#EF0A71"/>
<path fill-rule="evenodd" clip-rule="evenodd" d="M9.19024 12.7593L9.11837 13.2461L8.36073 13.2424C8.36073 13.2424 8.16021 13.215 8.12632 12.997C8.09375 12.7877 8.21378 12.7047 8.40515 12.7147C8.51234 12.7203 9.19024 12.7593 9.19024 12.7593Z" fill="#EF0A71"/>
<path fill-rule="evenodd" clip-rule="evenodd" d="M8.98437 14.3914L8.99805 13.9203L8.27715 13.91C8.27715 13.91 8.02272 13.9519 8.01451 14.098C8.00634 14.2442 8.17537 14.3863 8.24326 14.3873C8.31115 14.3882 8.98437 14.3914 8.98437 14.3914Z" fill="#EF0A71"/>
<path fill-rule="evenodd" clip-rule="evenodd" d="M8.90885 14.9577L8.91052 15.3756L8.34675 15.4056C8.34675 15.4056 8.04307 15.3832 8.04007 15.1592C8.03697 14.9268 8.25392 14.9237 8.25392 14.9237L8.90885 14.9577Z" fill="#EF0A71"/>
<path fill-rule="evenodd" clip-rule="evenodd" d="M8.79699 17.6925C8.79699 17.6925 8.78715 17.3048 8.79867 17.2772C8.81013 17.2496 8.26899 17.2533 8.26899 17.2533C8.26899 17.2533 7.9998 17.2776 8.0121 17.4486C8.0244 17.6197 8.23273 17.6388 8.23273 17.6388L8.79699 17.6925Z" fill="#EF0A71"/>
<path fill-rule="evenodd" clip-rule="evenodd" d="M8.76559 18.8523L8.75137 18.4087L8.09561 18.3962C8.09561 18.3962 7.88368 18.41 7.88511 18.6228C7.88654 18.8355 8.0657 18.8524 8.12887 18.8551C8.19208 18.8578 8.76559 18.8523 8.76559 18.8523Z" fill="#EF0A71"/>
<path fill-rule="evenodd" clip-rule="evenodd" d="M8.73686 19.9553L8.73868 19.4934L8.21639 19.5323C8.21639 19.5323 7.99103 19.5646 8.01326 19.7699C8.0355 19.9752 8.13379 19.9917 8.2125 19.9947C8.29121 19.9978 8.73686 19.9553 8.73686 19.9553Z" fill="#EF0A71"/>
<path fill-rule="evenodd" clip-rule="evenodd" d="M7.66245 20.1217C7.66245 20.1217 7.67086 20.5265 7.67027 20.5177C7.66963 20.5088 8.11543 20.4951 8.11543 20.4951C8.11543 20.4951 8.35662 20.4558 8.34944 20.2784C8.34196 20.0946 8.09924 20.0972 8.01595 20.0967C7.93223 20.0964 7.66245 20.1217 7.66245 20.1217Z" fill="#EF0A71"/>
<path fill-rule="evenodd" clip-rule="evenodd" d="M8.78175 20.6466L8.76974 21.109L8.2629 21.0807C8.2629 21.0807 8.01953 21.0697 8.01619 20.9161C8.01279 20.7624 8.06159 20.6692 8.21291 20.6589C8.36424 20.6486 8.78175 20.6466 8.78175 20.6466Z" fill="#EF0A71"/>
<path fill-rule="evenodd" clip-rule="evenodd" d="M7.66678 21.2645L7.67238 21.593C7.67238 21.593 8.22307 21.5884 8.23699 21.5756C8.25091 21.5629 8.41591 21.5874 8.4135 21.4779C8.41109 21.3684 8.37104 21.2603 8.29135 21.2498C8.2117 21.2392 7.66678 21.2645 7.66678 21.2645Z" fill="#EF0A71"/>
<path fill-rule="evenodd" clip-rule="evenodd" d="M7.42053 19.0086L8.00019 19.0067C8.00019 19.0067 8.24021 19.0079 8.25241 19.2065C8.26584 19.4265 8.03098 19.4575 8.03098 19.4575L7.48212 19.4659L7.42053 19.0086Z" fill="#EF0A71"/>
<path fill-rule="evenodd" clip-rule="evenodd" d="M10.3136 8.40034L10.1081 8.86223L9.47987 8.78416C9.47987 8.78416 9.23655 8.7419 9.2582 8.52254C9.27566 8.34544 9.42885 8.32759 9.53113 8.33964L10.3136 8.40034Z" fill="#EF0A71"/>
<path fill-rule="evenodd" clip-rule="evenodd" d="M7.15439 17.1752L8.65806 17.2571L8.76845 16.0933C8.76845 16.0933 8.66761 15.4478 8.03329 15.4148C7.20826 15.3719 7.1478 16.0627 7.1478 16.0627L7.15439 17.1752Z" fill="#9F0B5B"/>
<path fill-rule="evenodd" clip-rule="evenodd" d="M7.62937 17.5319C7.62937 17.5319 7.47943 17.459 7.49227 17.3032C7.50515 17.1473 7.90623 16.034 7.9574 15.9515L8.34101 16.0435C8.34101 16.0435 7.96099 17.269 7.88543 17.4096C7.80986 17.5501 7.62937 17.5319 7.62937 17.5319Z" fill="#F281C1"/>
<path fill-rule="evenodd" clip-rule="evenodd" d="M6.17501 20.7701C6.17501 20.7701 5.84865 20.7191 5.82809 20.5551C5.7938 20.2818 5.77225 20.0476 5.77225 20.0476C5.77225 20.0476 5.71081 19.8528 5.81845 19.7347C5.97065 19.5677 7.31799 16.5526 7.31799 16.5526C7.31799 16.5526 7.37481 16.3568 7.45657 16.3795C7.53833 16.4021 7.6655 16.3758 7.48786 16.7094C7.31021 17.0431 7.22777 17.4313 7.22777 17.4313C7.22777 17.4313 7.22649 17.6724 7.4638 17.7275C7.70106 17.7826 7.84668 17.8283 7.98103 17.7174C8.11543 17.6065 8.28347 16.8114 8.30699 16.7569C8.33055 16.7024 8.49324 16.6223 8.41271 16.9862L7.71356 20.1297C7.71356 20.1297 7.67957 20.3952 7.57537 20.5249C7.42912 20.7069 7.31513 20.9644 7.06001 20.9383C6.80489 20.9123 6.17501 20.7701 6.17501 20.7701Z" fill="#F281C1"/>
<path fill-rule="evenodd" clip-rule="evenodd" d="M7.92953 7.84774C7.92953 7.84774 11.9769 3.24453 14.5635 1.83772C16.9086 0.562507 17.8674 0.812365 18.3141 1.5523C18.3141 1.5523 19.0978 2.67432 17.5782 3.76604C17.2328 4.01398 16.6149 4.46263 15.8077 4.88566C14.8774 5.37293 13.7031 5.84863 12.5367 6.31416C10.2565 7.22406 7.92953 7.84774 7.92953 7.84774Z" fill="#DF0866"/>
<path fill-rule="evenodd" clip-rule="evenodd" d="M7.16884 7.40534C7.16884 7.40534 6.79477 2.4953 7.22635 1.49681C7.65793 0.49826 8.19641 -0.0817913 8.83914 0.00936575C9.48191 0.100523 10.2388 0.938892 10.071 2.11577C9.90321 3.29264 9.1985 4.6662 8.75349 5.41754C8.32471 6.14154 7.16884 7.40534 7.16884 7.40534Z" fill="#DF0866"/>
<path fill-rule="evenodd" clip-rule="evenodd" d="M6.3772 7.82316C6.3772 7.82316 3.89294 6.52527 3.20727 6.00322C2.5216 5.48117 2.07949 5.07084 2.0541 4.8199C2.02872 4.56896 2.55062 4.09989 3.79785 5.18098C5.04507 6.26208 6.3772 7.82316 6.3772 7.82316Z" fill="#DF0866"/>
<path d="M29.4121 9.63099L24.6441 17.535H24.0201L22.7561 7.47099C22.7028 7.06565 22.5854 6.79899 22.4041 6.67099C22.2228 6.53232 22.0521 6.45765 21.8921 6.44699L21.9561 6.12699C22.2121 6.13765 22.5214 6.14832 22.8841 6.15899C23.2468 6.16965 23.6148 6.17499 23.9881 6.17499C24.3934 6.17499 24.7668 6.16965 25.1081 6.15899C25.4494 6.14832 25.7268 6.13765 25.9401 6.12699L25.8761 6.44699C25.5348 6.46832 25.2948 6.56432 25.1561 6.73499C25.0174 6.89499 24.9694 7.24699 25.0121 7.79099L25.8601 15.183L25.4921 15.519L29.2841 9.23099L29.4121 9.63099ZM35.0121 8.52699C35.3001 7.97232 35.4494 7.55099 35.4601 7.26299C35.4708 6.97499 35.3641 6.77232 35.1401 6.65499C34.9161 6.53765 34.5908 6.46832 34.1641 6.44699L34.2441 6.12699C34.4041 6.13765 34.6014 6.14832 34.8361 6.15899C35.0814 6.15899 35.3268 6.16432 35.5721 6.17499C35.8281 6.17499 36.0521 6.17499 36.2441 6.17499C36.5001 6.17499 36.7188 6.16965 36.9001 6.15899C37.0921 6.14832 37.2734 6.13765 37.4441 6.12699L37.3641 6.44699C37.1721 6.50032 36.9801 6.57499 36.7881 6.67099C36.6068 6.76699 36.4148 6.92165 36.2121 7.13499C36.0201 7.34832 35.8228 7.65232 35.6201 8.04699L30.6441 17.535H30.0201L28.5641 7.47099C28.5108 7.07632 28.4148 6.80965 28.2761 6.67099C28.1374 6.53232 27.9988 6.45765 27.8601 6.44699L27.9241 6.12699C28.1588 6.13765 28.4414 6.14832 28.7721 6.15899C29.1134 6.16965 29.4548 6.17499 29.7961 6.17499C30.2761 6.17499 30.7188 6.16965 31.1241 6.15899C31.5401 6.14832 31.8761 6.13765 32.1321 6.12699L32.0681 6.44699C31.5348 6.46832 31.1774 6.55899 30.9961 6.71899C30.8148 6.87899 30.7561 7.23632 30.8201 7.79099L31.8281 14.959L31.4601 15.279L35.0121 8.52699ZM37.5861 17.455H35.6181L37.5381 10.559C37.6341 10.239 37.6661 10.015 37.6341 9.88699C37.6021 9.75899 37.5061 9.69499 37.3461 9.69499C37.1434 9.69499 36.9568 9.79632 36.7861 9.99899C36.6154 10.2017 36.4394 10.559 36.2581 11.071L35.9861 11.823H35.6821L36.0981 10.623C36.2474 10.1963 36.4341 9.86565 36.6581 9.63099C36.8821 9.38565 37.1274 9.21499 37.3941 9.11899C37.6608 9.02299 37.9328 8.97499 38.2101 8.97499C38.5514 8.97499 38.8021 9.04432 38.9621 9.18299C39.1328 9.32165 39.2394 9.50299 39.2821 9.72699C39.3354 9.95099 39.3461 10.1963 39.3141 10.463C39.2928 10.719 39.2501 10.9697 39.1861 11.215L37.5861 17.455ZM41.6821 9.34299C41.4474 9.34299 41.2074 9.42832 40.9621 9.59899C40.7168 9.75899 40.4608 10.0203 40.1941 10.383C39.9274 10.7457 39.6554 11.2257 39.3781 11.823C39.1114 12.4097 38.8341 13.1297 38.5461 13.983C38.2581 14.8257 37.9701 15.823 37.6821 16.975L38.0661 14.847C38.3968 13.727 38.7061 12.7937 38.9941 12.047C39.2928 11.2897 39.5808 10.687 39.8581 10.239C40.1461 9.78032 40.4501 9.45499 40.7701 9.26299C41.0901 9.07099 41.4368 8.97499 41.8101 8.97499C42.1941 8.97499 42.4874 9.08699 42.6901 9.31099C42.9034 9.53499 43.0101 9.81232 43.0101 10.143C43.0101 10.4097 42.9461 10.6603 42.8181 10.895C42.6901 11.119 42.5194 11.3003 42.3061 11.439C42.1034 11.567 41.8688 11.631 41.6021 11.631C41.3354 11.631 41.1221 11.5617 40.9621 11.423C40.8128 11.2843 40.7381 11.0817 40.7381 10.815C40.7381 10.5803 40.7914 10.367 40.8981 10.175C41.0048 9.98299 41.1434 9.82299 41.3141 9.69499C41.4848 9.55632 41.6714 9.46032 41.8741 9.40699C41.8528 9.38565 41.8261 9.36965 41.7941 9.35899C41.7621 9.34832 41.7248 9.34299 41.6821 9.34299ZM44.8734 16.943C45.0654 16.943 45.284 16.831 45.5294 16.607C45.7747 16.3723 46.0254 16.047 46.2814 15.631C46.5374 15.215 46.7827 14.719 47.0174 14.143C47.252 13.567 47.4547 12.9377 47.6254 12.255L47.2894 13.983C46.98 14.8897 46.6494 15.615 46.2974 16.159C45.956 16.703 45.5934 17.0923 45.2094 17.327C44.836 17.5617 44.4467 17.679 44.0414 17.679C43.4654 17.679 43.0387 17.503 42.7614 17.151C42.484 16.7883 42.3454 16.3083 42.3454 15.711C42.3454 15.1563 42.436 14.575 42.6174 13.967C42.7987 13.3483 43.0494 12.7457 43.3694 12.159C43.7 11.5617 44.0734 11.0283 44.4894 10.559C44.9054 10.079 45.348 9.69499 45.8174 9.40699C46.2867 9.11899 46.756 8.97499 47.2254 8.97499C47.588 8.97499 47.8654 9.12965 48.0574 9.43899C48.2494 9.73765 48.2974 10.1963 48.2014 10.815L48.0254 10.911C48.1 10.463 48.0787 10.111 47.9614 9.85499C47.8547 9.59899 47.6734 9.47099 47.4174 9.47099C47.172 9.47099 46.9107 9.59899 46.6334 9.85499C46.3667 10.111 46.1 10.4577 45.8334 10.895C45.5667 11.3323 45.3214 11.8283 45.0974 12.383C44.884 12.9377 44.7134 13.5137 44.5854 14.111C44.4574 14.7083 44.3934 15.2897 44.3934 15.855C44.3934 16.2497 44.4307 16.5323 44.5054 16.703C44.5907 16.863 44.7134 16.943 44.8734 16.943ZM48.4734 9.19899C48.8574 9.18832 49.2147 9.16699 49.5454 9.13499C49.8867 9.10299 50.212 9.04965 50.5214 8.97499L48.4574 16.079C48.4147 16.207 48.3827 16.3403 48.3614 16.479C48.3507 16.607 48.3614 16.719 48.3934 16.815C48.436 16.9003 48.5267 16.943 48.6654 16.943C48.836 16.943 49.012 16.8523 49.1934 16.671C49.3747 16.4897 49.5614 16.1217 49.7534 15.567L49.9934 14.847H50.2974L49.8974 16.015C49.748 16.4523 49.5614 16.7937 49.3374 17.039C49.1134 17.2737 48.8734 17.439 48.6174 17.535C48.372 17.631 48.1267 17.679 47.8814 17.679C47.3694 17.679 47.0067 17.519 46.7934 17.199C46.6547 16.9643 46.6014 16.6763 46.6334 16.335C46.6654 15.9937 46.7347 15.6257 46.8414 15.231L48.4734 9.19899ZM57.0634 9.71099C56.8287 9.71099 56.5674 9.86565 56.2794 10.175C56.002 10.4843 55.7194 10.911 55.4314 11.455C55.1434 11.9883 54.8714 12.591 54.6154 13.263C54.37 13.935 54.1567 14.639 53.9754 15.375L54.2794 13.711C54.6527 12.5803 55.026 11.6683 55.3994 10.975C55.7727 10.2817 56.1567 9.77499 56.5514 9.45499C56.946 9.13499 57.3674 8.97499 57.8154 8.97499C58.4127 8.97499 58.8714 9.17765 59.1914 9.58299C59.522 9.98832 59.6874 10.5857 59.6874 11.375C59.6874 11.8657 59.618 12.3937 59.4794 12.959C59.3407 13.5243 59.138 14.0843 58.8714 14.639C58.6154 15.1937 58.2954 15.7057 57.9114 16.175C57.5274 16.6337 57.0847 17.0017 56.5834 17.279C56.0927 17.5457 55.5434 17.679 54.9354 17.679C54.594 17.679 54.29 17.6043 54.0234 17.455C53.7567 17.3057 53.5594 17.0977 53.4314 16.831L53.5594 16.559C53.6874 16.8043 53.826 16.9803 53.9754 17.087C54.1247 17.1937 54.3007 17.247 54.5034 17.247C54.834 17.247 55.154 17.119 55.4634 16.863C55.7834 16.5963 56.0714 16.2443 56.3274 15.807C56.594 15.359 56.8287 14.863 57.0314 14.319C57.234 13.775 57.3887 13.2203 57.4954 12.655C57.6127 12.0897 57.6714 11.5617 57.6714 11.071C57.6714 10.559 57.618 10.207 57.5114 10.015C57.4047 9.81232 57.2554 9.71099 57.0634 9.71099ZM54.4554 6.87899C54.8287 6.84699 55.186 6.80432 55.5274 6.75099C55.8794 6.68699 56.21 6.60165 56.5194 6.49499L53.0474 18.735C52.898 19.247 52.9407 19.5883 53.1754 19.759C53.41 19.9297 53.7887 20.015 54.3114 20.015L54.2154 20.351C53.97 20.3403 53.6287 20.3243 53.1914 20.303C52.754 20.2923 52.2954 20.287 51.8154 20.287C51.4207 20.287 51.0207 20.2923 50.6154 20.303C50.21 20.3243 49.9114 20.3403 49.7194 20.351L49.8154 20.015C50.1994 20.015 50.4767 19.9403 50.6474 19.791C50.818 19.6523 50.9567 19.3963 51.0634 19.023L54.4554 6.87899ZM51.2714 11.807C51.6767 11.4017 52.05 10.9963 52.3914 10.591C52.7434 10.175 53.0847 9.68965 53.4154 9.13499C53.746 8.56965 54.0767 7.86032 54.4074 7.00699L54.4554 7.26299C54.2314 7.99899 53.9647 8.64965 53.6554 9.21499C53.346 9.76965 53.0047 10.271 52.6314 10.719C52.2687 11.167 51.874 11.599 51.4474 12.015L51.2714 11.807ZM60.7152 16.655C60.9499 16.527 61.1739 16.3937 61.3872 16.255C61.6112 16.1163 61.8192 15.9937 62.0112 15.887C62.2139 15.7697 62.4059 15.6737 62.5872 15.599C62.7686 15.5243 62.9499 15.487 63.1312 15.487C63.3872 15.487 63.6112 15.5297 63.8032 15.615C63.9952 15.7003 64.1819 15.7857 64.3632 15.871C64.5446 15.9563 64.7526 15.999 64.9872 15.999C65.2112 15.999 65.3819 15.9403 65.4992 15.823C65.6166 15.7057 65.6752 15.551 65.6752 15.359C65.6752 15.0923 65.5739 14.879 65.3712 14.719C65.1686 14.5483 64.9232 14.431 64.6352 14.367L64.7312 14.127C65.2752 14.2443 65.6806 14.4417 65.9472 14.719C66.2246 14.9963 66.3632 15.3483 66.3632 15.775C66.3632 16.095 66.2939 16.399 66.1552 16.687C66.0272 16.9643 65.8192 17.1883 65.5312 17.359C65.2432 17.519 64.8699 17.599 64.4112 17.599C64.0912 17.599 63.8139 17.5563 63.5792 17.471C63.3446 17.3963 63.1206 17.3057 62.9072 17.199C62.6939 17.0923 62.4646 17.0017 62.2192 16.927C61.9739 16.8417 61.6859 16.799 61.3552 16.799C61.0779 16.799 60.8219 16.847 60.5872 16.943C60.3632 17.0283 60.1392 17.199 59.9152 17.455H59.4512L67.0352 9.95099C66.7792 10.079 66.5286 10.2177 66.2832 10.367C66.0486 10.5163 65.8246 10.6603 65.6112 10.799C65.3979 10.927 65.1899 11.0337 64.9872 11.119C64.7846 11.1937 64.5926 11.231 64.4112 11.231C64.1552 11.231 63.9312 11.1883 63.7392 11.103C63.5472 11.0177 63.3606 10.9323 63.1792 10.847C62.9979 10.7617 62.7952 10.719 62.5712 10.719C62.3579 10.719 62.1872 10.7777 62.0592 10.895C61.9312 11.0017 61.8672 11.1563 61.8672 11.359C61.8672 11.6043 61.9632 11.8123 62.1552 11.983C62.3472 12.143 62.5979 12.2657 62.9072 12.351L62.8112 12.591C62.2992 12.4737 61.8992 12.2817 61.6112 12.015C61.3232 11.7483 61.1792 11.4017 61.1792 10.975C61.1792 10.655 61.2539 10.351 61.4032 10.063C61.5526 9.77499 61.7819 9.54032 62.0912 9.35899C62.4112 9.17765 62.8219 9.08699 63.3232 9.08699C63.6326 9.08699 63.9046 9.12432 64.1392 9.19899C64.3739 9.27365 64.5926 9.36432 64.7952 9.47099C65.0086 9.57765 65.2326 9.66832 65.4672 9.74299C65.7019 9.81765 65.9846 9.85499 66.3152 9.85499C66.6139 9.85499 66.8752 9.81232 67.0992 9.72699C67.3232 9.63099 67.5419 9.45499 67.7552 9.19899H68.2192L60.7152 16.655ZM70.4277 6.44699C70.4597 6.05232 70.6197 5.73765 70.9077 5.50299C71.1957 5.26832 71.5317 5.15099 71.9157 5.15099C72.2677 5.15099 72.5344 5.25232 72.7157 5.45499C72.9077 5.64699 72.9877 5.89765 72.9557 6.20699C72.9237 6.56965 72.7637 6.87365 72.4757 7.11899C72.1877 7.36432 71.8517 7.48699 71.4677 7.48699C71.1157 7.48699 70.8437 7.39099 70.6517 7.19899C70.4704 6.99632 70.3957 6.74565 70.4277 6.44699ZM69.8677 10.559C70.0597 9.98299 69.9957 9.69499 69.6757 9.69499C69.4624 9.69499 69.2704 9.80699 69.0997 10.031C68.9291 10.2443 68.7477 10.591 68.5557 11.071L68.2837 11.823H67.9797L68.3957 10.623C68.5557 10.1963 68.7477 9.86565 68.9717 9.63099C69.1957 9.38565 69.4464 9.21499 69.7237 9.11899C70.0011 9.02299 70.2731 8.97499 70.5397 8.97499C70.9131 8.97499 71.1957 9.04432 71.3877 9.18299C71.5797 9.32165 71.7077 9.50299 71.7717 9.72699C71.8357 9.95099 71.8517 10.1963 71.8197 10.463C71.7877 10.719 71.7291 10.9697 71.6437 11.215L69.9477 16.095C69.8517 16.383 69.8251 16.6017 69.8677 16.751C69.9104 16.8897 70.0117 16.959 70.1717 16.959C70.3424 16.959 70.5131 16.8683 70.6837 16.687C70.8651 16.495 71.0571 16.127 71.2597 15.583L71.5317 14.863H71.8357L71.4357 16.031C71.2757 16.4577 71.0837 16.7937 70.8597 17.039C70.6357 17.2737 70.3904 17.439 70.1237 17.535C69.8571 17.631 69.5957 17.679 69.3397 17.679C68.8704 17.679 68.5291 17.5777 68.3157 17.375C68.1024 17.1617 67.9957 16.8737 67.9957 16.511C67.9957 16.1377 68.0811 15.711 68.2517 15.231L69.8677 10.559ZM78.6102 9.71099C78.3756 9.71099 78.1142 9.86565 77.8262 10.175C77.5489 10.4843 77.2662 10.911 76.9782 11.455C76.6902 11.9883 76.4182 12.591 76.1622 13.263C75.9169 13.935 75.7036 14.639 75.5222 15.375L75.8262 13.711C76.1996 12.5803 76.5729 11.6683 76.9462 10.975C77.3196 10.2817 77.7036 9.77499 78.0982 9.45499C78.4929 9.13499 78.9142 8.97499 79.3622 8.97499C79.9596 8.97499 80.4182 9.17765 80.7382 9.58299C81.0689 9.98832 81.2342 10.5857 81.2342 11.375C81.2342 11.8657 81.1649 12.3937 81.0262 12.959C80.8876 13.5243 80.6849 14.0843 80.4182 14.639C80.1622 15.1937 79.8422 15.7057 79.4582 16.175C79.0742 16.6337 78.6316 17.0017 78.1302 17.279C77.6396 17.5457 77.0902 17.679 76.4822 17.679C76.1409 17.679 75.8369 17.6043 75.5702 17.455C75.3036 17.3057 75.1062 17.0977 74.9782 16.831L75.1062 16.559C75.2342 16.8043 75.3729 16.9803 75.5222 17.087C75.6716 17.1937 75.8476 17.247 76.0502 17.247C76.3809 17.247 76.7009 17.119 77.0102 16.863C77.3302 16.5963 77.6182 16.2443 77.8742 15.807C78.1409 15.359 78.3756 14.863 78.5782 14.319C78.7809 13.775 78.9356 13.2203 79.0422 12.655C79.1596 12.0897 79.2182 11.5617 79.2182 11.071C79.2182 10.559 79.1649 10.207 79.0582 10.015C78.9516 9.81232 78.8022 9.71099 78.6102 9.71099ZM76.0022 6.87899C76.3756 6.84699 76.7329 6.80432 77.0742 6.75099C77.4262 6.68699 77.7569 6.60165 78.0662 6.49499L74.5942 18.735C74.4449 19.247 74.4876 19.5883 74.7222 19.759C74.9569 19.9297 75.3356 20.015 75.8582 20.015L75.7622 20.351C75.5169 20.3403 75.1756 20.3243 74.7382 20.303C74.3009 20.2923 73.8422 20.287 73.3622 20.287C72.9676 20.287 72.5676 20.2923 72.1622 20.303C71.7569 20.3243 71.4582 20.3403 71.2662 20.351L71.3622 20.015C71.7462 20.015 72.0236 19.9403 72.1942 19.791C72.3649 19.6523 72.5036 19.3963 72.6102 19.023L76.0022 6.87899ZM72.8182 11.807C73.2236 11.4017 73.5969 10.9963 73.9382 10.591C74.2902 10.175 74.6316 9.68965 74.9622 9.13499C75.2929 8.56965 75.6236 7.86032 75.9542 7.00699L76.0022 7.26299C75.7782 7.99899 75.5116 8.64965 75.2022 9.21499C74.8929 9.76965 74.5516 10.271 74.1782 10.719C73.8156 11.167 73.4209 11.599 72.9942 12.015L72.8182 11.807Z" fill="black"/>
</svg>
