<svg width="125" height="38" viewBox="0 0 125 38" fill="none" xmlns="http://www.w3.org/2000/svg">
<path fill-rule="evenodd" clip-rule="evenodd" d="M0.174622 15.4906L1.02779 21.8446L9.27339 19.2978C9.27339 19.2978 8.89468 17.9038 8.41898 16.7686C8.01861 15.813 7.57526 15.0487 7.58997 15.0285C7.62208 14.9843 0.174622 15.4906 0.174622 15.4906Z" fill="#A9005B"/>
<path fill-rule="evenodd" clip-rule="evenodd" d="M15.3072 24.5634L25.3436 22.6214L25.8094 14.1624L17.4048 14.6334C16.0985 17.8452 15.3993 21.1552 15.3072 24.5634Z" fill="#ED147C"/>
<path fill-rule="evenodd" clip-rule="evenodd" d="M2.82932 36.6388L2.43539 32.9845L11.7527 32.8198C12.0151 34.0812 12.117 35.4319 11.9694 36.9211L2.82932 36.6388Z" fill="#DF0075"/>
<path fill-rule="evenodd" clip-rule="evenodd" d="M24.331 37.3278L15.0154 37.056C14.6691 33.3471 14.7773 29.6106 15.0777 25.9723L25.1948 25.1632L24.331 37.3278Z" fill="#A9005B"/>
<path fill-rule="evenodd" clip-rule="evenodd" d="M2.23203 31.4295L1.30209 23.8544L9.57011 20.8237C10.5176 23.9585 11.0854 27.2964 11.4215 30.7485L2.23203 31.4295Z" fill="#ED147C"/>
<path fill-rule="evenodd" clip-rule="evenodd" d="M8.46252 15.133L8.73437 15.9368L9.95772 15.7043C9.95772 15.7043 10.2485 15.5408 10.1663 15.2232C10.0842 14.9056 9.74533 14.9081 9.74533 14.9081L8.46252 15.133Z" fill="#EF0A71"/>
<path fill-rule="evenodd" clip-rule="evenodd" d="M9.12802 17.0244L9.34384 17.8073L10.5618 17.6065C10.5618 17.6065 10.9229 17.4145 10.8477 17.1692C10.7726 16.9237 10.6058 16.7389 10.2914 16.7818C9.977 16.8247 9.12802 17.0244 9.12802 17.0244Z" fill="#EF0A71"/>
<path fill-rule="evenodd" clip-rule="evenodd" d="M9.80447 18.9728L10.0187 19.8053L11.2427 19.5199C11.2427 19.5199 11.4838 19.3723 11.4363 19.0893C11.3888 18.8064 11.1991 18.683 11.0373 18.6954C10.8756 18.7079 9.80447 18.9728 9.80447 18.9728Z" fill="#EF0A71"/>
<path fill-rule="evenodd" clip-rule="evenodd" d="M10.4432 21.7538L10.2723 20.9666L11.5514 20.684C11.5514 20.684 11.9196 20.7022 11.9603 21.047C12.0011 21.3917 11.6545 21.5031 11.6545 21.5031L10.4432 21.7538Z" fill="#EF0A71"/>
<path fill-rule="evenodd" clip-rule="evenodd" d="M10.8763 23.5181L10.7411 22.7007L11.8065 22.561C11.8065 22.561 12.3528 22.5068 12.4247 22.9123C12.4921 23.2927 11.93 23.3621 11.93 23.3621L10.8763 23.5181Z" fill="#EF0A71"/>
<path fill-rule="evenodd" clip-rule="evenodd" d="M11.1374 24.6571L11.2572 25.4462L12.4049 25.2595C12.4049 25.2595 12.8431 25.1198 12.771 24.7988C12.6989 24.4778 12.2598 24.4952 12.2598 24.4952L11.1374 24.6571Z" fill="#EF0A71"/>
<path fill-rule="evenodd" clip-rule="evenodd" d="M16.1734 16.0378L15.9591 16.84L14.775 16.6089C14.775 16.6089 14.3747 16.4763 14.4263 16.1848C14.478 15.8933 14.5691 15.8493 14.8183 15.8386C15.0674 15.8279 16.1734 16.0378 16.1734 16.0378Z" fill="#EF0A71"/>
<path fill-rule="evenodd" clip-rule="evenodd" d="M13.829 18.2799C13.829 18.2799 13.8715 17.9286 14.1812 17.914C14.4909 17.8994 15.5394 18.0494 15.5394 18.0494L15.4442 18.8402L14.3255 18.7248C14.3255 18.7248 13.9419 18.6886 13.829 18.2799Z" fill="#EF0A71"/>
<path fill-rule="evenodd" clip-rule="evenodd" d="M15.0908 20.7385L15.1597 19.9465L13.7067 19.9123C13.7067 19.9123 13.4957 19.8985 13.4301 20.2412C13.3645 20.5838 13.6575 20.6449 13.6575 20.6449L15.0908 20.7385Z" fill="#EF0A71"/>
<path fill-rule="evenodd" clip-rule="evenodd" d="M14.9735 21.7738L14.8513 22.6011L13.5635 22.5949C13.5635 22.5949 13.2227 22.5484 13.1651 22.1778C13.1097 21.8221 13.3137 21.6809 13.639 21.698C13.8212 21.7075 14.9735 21.7738 14.9735 21.7738Z" fill="#EF0A71"/>
<path fill-rule="evenodd" clip-rule="evenodd" d="M14.6236 24.5479L14.6468 23.7472L13.4214 23.7297C13.4214 23.7297 12.989 23.8008 12.975 24.0493C12.9611 24.2978 13.2484 24.5393 13.3638 24.541C13.4792 24.5425 14.6236 24.5479 14.6236 24.5479Z" fill="#EF0A71"/>
<path fill-rule="evenodd" clip-rule="evenodd" d="M14.4952 25.5105L14.498 26.2209L13.5398 26.2719C13.5398 26.2719 13.0236 26.2338 13.0185 25.853C13.0132 25.4579 13.382 25.4528 13.382 25.4528L14.4952 25.5105Z" fill="#EF0A71"/>
<path fill-rule="evenodd" clip-rule="evenodd" d="M14.3051 30.159C14.3051 30.159 14.2883 29.5 14.3079 29.4531C14.3274 29.4062 13.4076 29.4126 13.4076 29.4126C13.4076 29.4126 12.95 29.4538 12.9709 29.7445C12.9918 30.0352 13.3459 30.0678 13.3459 30.0678L14.3051 30.159Z" fill="#EF0A71"/>
<path fill-rule="evenodd" clip-rule="evenodd" d="M14.2517 32.1305L14.2275 31.3764L13.1129 31.3552C13.1129 31.3552 12.7527 31.3787 12.7551 31.7403C12.7575 32.102 13.062 32.1306 13.1694 32.1352C13.2769 32.1398 14.2517 32.1305 14.2517 32.1305Z" fill="#EF0A71"/>
<path fill-rule="evenodd" clip-rule="evenodd" d="M14.2029 34.0053L14.206 33.2202L13.3182 33.2863C13.3182 33.2863 12.9351 33.3412 12.9729 33.6902C13.0107 34.0392 13.1778 34.0672 13.3116 34.0724C13.4453 34.0776 14.2029 34.0053 14.2029 34.0053Z" fill="#EF0A71"/>
<path fill-rule="evenodd" clip-rule="evenodd" d="M12.3766 34.2882C12.3766 34.2882 12.3909 34.9762 12.3899 34.9612C12.3888 34.9461 13.1466 34.9229 13.1466 34.9229C13.1466 34.9229 13.5565 34.8561 13.5443 34.5545C13.5316 34.2421 13.119 34.2465 12.9775 34.2457C12.8352 34.2451 12.3766 34.2882 12.3766 34.2882Z" fill="#EF0A71"/>
<path fill-rule="evenodd" clip-rule="evenodd" d="M14.2792 35.1804L14.2588 35.9663L13.3972 35.9182C13.3972 35.9182 12.9836 35.8996 12.9779 35.6384C12.9721 35.3772 13.0551 35.2187 13.3123 35.2013C13.5695 35.1839 14.2792 35.1804 14.2792 35.1804Z" fill="#EF0A71"/>
<path fill-rule="evenodd" clip-rule="evenodd" d="M12.3839 36.2307L12.3935 36.789C12.3935 36.789 13.3295 36.7812 13.3532 36.7595C13.3768 36.7378 13.6573 36.7796 13.6532 36.5934C13.6491 36.4073 13.581 36.2236 13.4456 36.2057C13.3102 36.1877 12.3839 36.2307 12.3839 36.2307Z" fill="#EF0A71"/>
<path fill-rule="evenodd" clip-rule="evenodd" d="M11.9654 32.3961L12.9507 32.3929C12.9507 32.3929 13.3587 32.3949 13.3794 32.7326C13.4022 33.1065 13.003 33.1591 13.003 33.1591L12.0701 33.1735L11.9654 32.3961Z" fill="#EF0A71"/>
<path fill-rule="evenodd" clip-rule="evenodd" d="M16.883 14.3645L16.5336 15.1496L15.4658 15.0169C15.4658 15.0169 15.0522 14.9451 15.089 14.5722C15.1187 14.2712 15.3791 14.2408 15.5529 14.2613L16.883 14.3645Z" fill="#EF0A71"/>
<path fill-rule="evenodd" clip-rule="evenodd" d="M11.513 29.2797L14.0689 29.419L14.2566 27.4408C14.2566 27.4408 14.0852 26.3436 13.007 26.2875C11.6046 26.2146 11.5018 27.3887 11.5018 27.3887L11.513 29.2797Z" fill="#9F0B5B"/>
<path fill-rule="evenodd" clip-rule="evenodd" d="M12.3204 29.886C12.3204 29.886 12.0655 29.7622 12.0873 29.4973C12.1092 29.2323 12.791 27.34 12.8779 27.1999L13.53 27.3562C13.53 27.3562 12.884 29.4393 12.7556 29.6782C12.6272 29.9171 12.3204 29.886 12.3204 29.886Z" fill="#F281C1"/>
<path fill-rule="evenodd" clip-rule="evenodd" d="M9.8483 35.3903C9.8483 35.3903 9.29357 35.3036 9.25862 35.0248C9.20034 34.5604 9.16371 34.1622 9.16371 34.1622C9.16371 34.1622 9.05927 33.831 9.24223 33.6303C9.50095 33.3465 11.7911 28.2215 11.7911 28.2215C11.7911 28.2215 11.8877 27.8886 12.0267 27.9272C12.1656 27.9657 12.3818 27.9209 12.0798 28.4881C11.7779 29.0553 11.6378 29.715 11.6378 29.715C11.6378 29.715 11.6356 30.1249 12.039 30.2186C12.4423 30.3123 12.6898 30.3899 12.9181 30.2014C13.1466 30.0129 13.4322 28.6614 13.4722 28.5688C13.5122 28.4761 13.7888 28.3399 13.6519 28.9585L12.4635 34.3018C12.4635 34.3018 12.4057 34.7531 12.2286 34.9735C11.98 35.2829 11.7863 35.7205 11.3526 35.6763C10.919 35.6319 9.8483 35.3903 9.8483 35.3903Z" fill="#F281C1"/>
<path fill-rule="evenodd" clip-rule="evenodd" d="M12.8306 13.4252C12.8306 13.4252 19.7102 5.6008 24.1069 3.20954C28.093 1.04196 29.7227 1.46666 30.482 2.72438C30.482 2.72438 31.814 4.63157 29.231 6.48724C28.644 6.90868 27.5938 7.67129 26.2216 8.39033C24.6404 9.21858 22.6444 10.0272 20.6618 10.8185C16.7859 12.3651 12.8306 13.4252 12.8306 13.4252Z" fill="#DF0866"/>
<path fill-rule="evenodd" clip-rule="evenodd" d="M11.5376 12.6732C11.5376 12.6732 10.9017 4.3273 11.6353 2.63008C12.3689 0.932775 13.2842 -0.0531808 14.3767 0.101766C15.4693 0.256712 16.7558 1.68175 16.4706 3.68217C16.1854 5.68259 14.9875 8.01733 14.2311 9.29444C13.5023 10.5251 11.5376 12.6732 11.5376 12.6732Z" fill="#DF0866"/>
<path fill-rule="evenodd" clip-rule="evenodd" d="M10.192 13.3835C10.192 13.3835 5.9693 11.1773 4.80381 10.29C3.63833 9.4026 2.88684 8.70514 2.84369 8.2786C2.80054 7.85205 3.68766 7.05474 5.80766 8.89236C7.92766 10.73 10.192 13.3835 10.192 13.3835Z" fill="#DF0866"/>
<path d="M46.1694 16.9708L39.0174 28.8268H38.0814L36.1854 13.7308C36.1054 13.1228 35.9294 12.7228 35.6574 12.5308C35.3854 12.3228 35.1294 12.2108 34.8894 12.1948L34.9854 11.7148C35.3694 11.7308 35.8334 11.7468 36.3774 11.7628C36.9214 11.7788 37.4734 11.7868 38.0334 11.7868C38.6414 11.7868 39.2014 11.7788 39.7134 11.7628C40.2254 11.7468 40.6414 11.7308 40.9614 11.7148L40.8654 12.1948C40.3534 12.2268 39.9934 12.3708 39.7854 12.6268C39.5774 12.8668 39.5054 13.3948 39.5694 14.2108L40.8414 25.2988L40.2894 25.8028L45.9774 16.3708L46.1694 16.9708ZM54.5694 15.3148C55.0014 14.4828 55.2254 13.8508 55.2414 13.4188C55.2574 12.9868 55.0974 12.6828 54.7614 12.5068C54.4254 12.3308 53.9374 12.2268 53.2974 12.1948L53.4174 11.7148C53.6574 11.7308 53.9534 11.7468 54.3054 11.7628C54.6734 11.7628 55.0414 11.7708 55.4094 11.7868C55.7934 11.7868 56.1294 11.7868 56.4174 11.7868C56.8014 11.7868 57.1294 11.7788 57.4014 11.7628C57.6894 11.7468 57.9614 11.7308 58.2174 11.7148L58.0974 12.1948C57.8094 12.2748 57.5214 12.3868 57.2334 12.5308C56.9614 12.6748 56.6734 12.9068 56.3694 13.2268C56.0814 13.5468 55.7854 14.0028 55.4814 14.5948L48.0174 28.8268H47.0814L44.8974 13.7308C44.8174 13.1388 44.6734 12.7388 44.4654 12.5308C44.2574 12.3228 44.0494 12.2108 43.8414 12.1948L43.9374 11.7148C44.2894 11.7308 44.7134 11.7468 45.2094 11.7628C45.7214 11.7788 46.2334 11.7868 46.7454 11.7868C47.4654 11.7868 48.1294 11.7788 48.7374 11.7628C49.3614 11.7468 49.8654 11.7308 50.2494 11.7148L50.1534 12.1948C49.3534 12.2268 48.8174 12.3628 48.5454 12.6028C48.2734 12.8428 48.1854 13.3788 48.2814 14.2108L49.7934 24.9628L49.2414 25.4428L54.5694 15.3148ZM58.4304 28.7068H55.4784L58.3584 18.3628C58.5024 17.8828 58.5504 17.5468 58.5024 17.3548C58.4544 17.1628 58.3104 17.0668 58.0704 17.0668C57.7664 17.0668 57.4864 17.2188 57.2304 17.5228C56.9744 17.8268 56.7104 18.3628 56.4384 19.1308L56.0304 20.2588H55.5744L56.1984 18.4588C56.4224 17.8188 56.7024 17.3228 57.0384 16.9708C57.3744 16.6028 57.7424 16.3468 58.1424 16.2028C58.5424 16.0588 58.9504 15.9868 59.3664 15.9868C59.8784 15.9868 60.2544 16.0908 60.4944 16.2988C60.7504 16.5068 60.9104 16.7788 60.9744 17.1148C61.0544 17.4508 61.0704 17.8188 61.0224 18.2188C60.9904 18.6028 60.9264 18.9788 60.8304 19.3468L58.4304 28.7068ZM64.5744 16.5388C64.2224 16.5388 63.8624 16.6668 63.4944 16.9228C63.1264 17.1628 62.7424 17.5548 62.3424 18.0988C61.9424 18.6428 61.5344 19.3628 61.1184 20.2588C60.7184 21.1388 60.3024 22.2188 59.8704 23.4988C59.4384 24.7628 59.0064 26.2588 58.5744 27.9868L59.1504 24.7948C59.6464 23.1148 60.1104 21.7148 60.5424 20.5948C60.9904 19.4588 61.4224 18.5548 61.8384 17.8828C62.2704 17.1948 62.7264 16.7068 63.2064 16.4188C63.6864 16.1308 64.2064 15.9868 64.7664 15.9868C65.3424 15.9868 65.7824 16.1548 66.0864 16.4908C66.4064 16.8268 66.5664 17.2428 66.5664 17.7388C66.5664 18.1388 66.4704 18.5148 66.2784 18.8668C66.0864 19.2028 65.8304 19.4748 65.5104 19.6828C65.2064 19.8748 64.8544 19.9708 64.4544 19.9708C64.0544 19.9708 63.7344 19.8668 63.4944 19.6588C63.2704 19.4508 63.1584 19.1468 63.1584 18.7468C63.1584 18.3948 63.2384 18.0748 63.3984 17.7868C63.5584 17.4988 63.7664 17.2588 64.0224 17.0668C64.2784 16.8588 64.5584 16.7148 64.8624 16.6348C64.8304 16.6028 64.7904 16.5788 64.7424 16.5628C64.6944 16.5468 64.6384 16.5388 64.5744 16.5388ZM69.3613 27.9388C69.6493 27.9388 69.9773 27.7708 70.3453 27.4348C70.7133 27.0828 71.0893 26.5948 71.4733 25.9708C71.8573 25.3468 72.2253 24.6028 72.5773 23.7388C72.9293 22.8748 73.2333 21.9308 73.4893 20.9068L72.9853 23.4988C72.5213 24.8588 72.0253 25.9468 71.4973 26.7628C70.9853 27.5788 70.4413 28.1628 69.8653 28.5148C69.3053 28.8668 68.7213 29.0428 68.1133 29.0428C67.2493 29.0428 66.6093 28.7788 66.1933 28.2508C65.7773 27.7068 65.5693 26.9868 65.5693 26.0908C65.5693 25.2588 65.7053 24.3868 65.9773 23.4748C66.2493 22.5468 66.6253 21.6428 67.1053 20.7628C67.6013 19.8668 68.1613 19.0668 68.7853 18.3628C69.4093 17.6428 70.0733 17.0668 70.7773 16.6348C71.4813 16.2028 72.1853 15.9868 72.8893 15.9868C73.4333 15.9868 73.8493 16.2188 74.1373 16.6828C74.4253 17.1308 74.4973 17.8188 74.3533 18.7468L74.0893 18.8908C74.2013 18.2188 74.1693 17.6908 73.9933 17.3068C73.8333 16.9228 73.5613 16.7308 73.1773 16.7308C72.8093 16.7308 72.4173 16.9228 72.0013 17.3068C71.6013 17.6908 71.2013 18.2108 70.8013 18.8668C70.4013 19.5228 70.0333 20.2668 69.6973 21.0988C69.3773 21.9308 69.1213 22.7948 68.9293 23.6908C68.7373 24.5868 68.6413 25.4588 68.6413 26.3068C68.6413 26.8988 68.6973 27.3228 68.8093 27.5788C68.9373 27.8188 69.1213 27.9388 69.3613 27.9388ZM74.7613 16.3228C75.3373 16.3068 75.8733 16.2748 76.3693 16.2268C76.8813 16.1788 77.3693 16.0988 77.8333 15.9868L74.7373 26.6428C74.6733 26.8348 74.6253 27.0348 74.5933 27.2428C74.5773 27.4348 74.5933 27.6028 74.6413 27.7468C74.7053 27.8748 74.8413 27.9388 75.0493 27.9388C75.3053 27.9388 75.5693 27.8028 75.8413 27.5308C76.1133 27.2588 76.3933 26.7068 76.6813 25.8748L77.0413 24.7948H77.4973L76.8973 26.5468C76.6733 27.2028 76.3933 27.7148 76.0573 28.0828C75.7213 28.4348 75.3613 28.6828 74.9773 28.8268C74.6093 28.9708 74.2413 29.0428 73.8733 29.0428C73.1053 29.0428 72.5613 28.8028 72.2413 28.3228C72.0333 27.9708 71.9533 27.5388 72.0013 27.0268C72.0493 26.5148 72.1533 25.9628 72.3133 25.3708L74.7613 16.3228ZM87.6463 17.0908C87.2943 17.0908 86.9023 17.3228 86.4703 17.7868C86.0543 18.2508 85.6303 18.8908 85.1983 19.7068C84.7663 20.5068 84.3583 21.4108 83.9743 22.4188C83.6063 23.4268 83.2863 24.4828 83.0143 25.5868L83.4703 23.0908C84.0303 21.3948 84.5903 20.0268 85.1503 18.9868C85.7103 17.9468 86.2863 17.1868 86.8783 16.7068C87.4703 16.2268 88.1023 15.9868 88.7743 15.9868C89.6703 15.9868 90.3583 16.2908 90.8383 16.8988C91.3343 17.5068 91.5823 18.4028 91.5823 19.5868C91.5823 20.3228 91.4783 21.1148 91.2703 21.9628C91.0623 22.8108 90.7583 23.6508 90.3583 24.4828C89.9743 25.3148 89.4943 26.0828 88.9183 26.7868C88.3423 27.4748 87.6783 28.0268 86.9263 28.4428C86.1903 28.8428 85.3663 29.0428 84.4543 29.0428C83.9423 29.0428 83.4863 28.9308 83.0863 28.7068C82.6863 28.4828 82.3903 28.1708 82.1983 27.7708L82.3903 27.3628C82.5823 27.7308 82.7903 27.9948 83.0143 28.1548C83.2383 28.3148 83.5023 28.3948 83.8063 28.3948C84.3023 28.3948 84.7823 28.2028 85.2463 27.8188C85.7263 27.4188 86.1583 26.8908 86.5423 26.2348C86.9423 25.5628 87.2943 24.8188 87.5983 24.0028C87.9023 23.1868 88.1343 22.3548 88.2943 21.5068C88.4703 20.6588 88.5583 19.8668 88.5583 19.1308C88.5583 18.3628 88.4783 17.8348 88.3183 17.5468C88.1583 17.2428 87.9343 17.0908 87.6463 17.0908ZM83.7343 12.8428C84.2943 12.7948 84.8303 12.7308 85.3423 12.6508C85.8703 12.5548 86.3663 12.4268 86.8303 12.2668L81.6223 30.6268C81.3983 31.3948 81.4623 31.9068 81.8143 32.1628C82.1663 32.4188 82.7343 32.5468 83.5183 32.5468L83.3743 33.0508C83.0063 33.0348 82.4943 33.0108 81.8383 32.9788C81.1823 32.9628 80.4943 32.9548 79.7743 32.9548C79.1823 32.9548 78.5823 32.9628 77.9743 32.9788C77.3663 33.0108 76.9183 33.0348 76.6303 33.0508L76.7743 32.5468C77.3503 32.5468 77.7663 32.4348 78.0223 32.2108C78.2783 32.0028 78.4863 31.6188 78.6463 31.0588L83.7343 12.8428ZM78.9583 20.2348C79.5663 19.6268 80.1263 19.0188 80.6383 18.4108C81.1663 17.7868 81.6783 17.0588 82.1743 16.2268C82.6703 15.3788 83.1663 14.3148 83.6623 13.0348L83.7343 13.4188C83.3983 14.5228 82.9983 15.4988 82.5343 16.3468C82.0703 17.1788 81.5583 17.9308 80.9983 18.6028C80.4543 19.2748 79.8623 19.9228 79.2223 20.5468L78.9583 20.2348ZM93.1241 27.5068C93.4761 27.3148 93.8121 27.1148 94.1321 26.9068C94.4681 26.6988 94.7801 26.5148 95.0681 26.3548C95.3721 26.1788 95.6601 26.0348 95.9321 25.9228C96.2041 25.8108 96.4761 25.7548 96.7481 25.7548C97.1321 25.7548 97.4681 25.8188 97.7561 25.9468C98.0441 26.0748 98.3241 26.2028 98.5961 26.3308C98.8681 26.4588 99.1801 26.5228 99.5321 26.5228C99.8681 26.5228 100.124 26.4348 100.3 26.2588C100.476 26.0828 100.564 25.8508 100.564 25.5628C100.564 25.1628 100.412 24.8428 100.108 24.6028C99.8041 24.3468 99.4361 24.1708 99.0041 24.0748L99.1481 23.7148C99.9641 23.8908 100.572 24.1868 100.972 24.6028C101.388 25.0188 101.596 25.5468 101.596 26.1868C101.596 26.6668 101.492 27.1228 101.284 27.5548C101.092 27.9708 100.78 28.3068 100.348 28.5628C99.9161 28.8028 99.3561 28.9228 98.6681 28.9228C98.1881 28.9228 97.7721 28.8588 97.4201 28.7308C97.0681 28.6188 96.7321 28.4828 96.4121 28.3228C96.0921 28.1628 95.7481 28.0268 95.3801 27.9148C95.0121 27.7868 94.5801 27.7228 94.0841 27.7228C93.6681 27.7228 93.2841 27.7948 92.9321 27.9388C92.5961 28.0668 92.2601 28.3228 91.9241 28.7068H91.2281L102.604 17.4508C102.22 17.6428 101.844 17.8508 101.476 18.0748C101.124 18.2988 100.788 18.5148 100.468 18.7228C100.148 18.9148 99.8361 19.0748 99.5321 19.2028C99.2281 19.3148 98.9401 19.3708 98.6681 19.3708C98.2841 19.3708 97.9481 19.3068 97.6601 19.1788C97.3721 19.0508 97.0921 18.9228 96.8201 18.7948C96.5481 18.6668 96.2441 18.6028 95.9081 18.6028C95.5881 18.6028 95.3321 18.6908 95.1401 18.8668C94.9481 19.0268 94.8521 19.2588 94.8521 19.5628C94.8521 19.9308 94.9961 20.2428 95.2841 20.4988C95.5721 20.7388 95.9481 20.9228 96.4121 21.0508L96.2681 21.4108C95.5001 21.2348 94.9001 20.9468 94.4681 20.5468C94.0361 20.1468 93.8201 19.6268 93.8201 18.9868C93.8201 18.5068 93.9321 18.0508 94.1561 17.6188C94.3801 17.1868 94.7241 16.8348 95.1881 16.5628C95.6681 16.2908 96.2841 16.1548 97.0361 16.1548C97.5001 16.1548 97.9081 16.2108 98.2601 16.3228C98.6121 16.4348 98.9401 16.5708 99.2441 16.7308C99.5641 16.8908 99.9001 17.0268 100.252 17.1388C100.604 17.2508 101.028 17.3068 101.524 17.3068C101.972 17.3068 102.364 17.2428 102.7 17.1148C103.036 16.9708 103.364 16.7068 103.684 16.3228H104.38L93.1241 27.5068ZM107.693 12.1948C107.741 11.6028 107.981 11.1308 108.413 10.7788C108.845 10.4268 109.349 10.2508 109.925 10.2508C110.453 10.2508 110.853 10.4028 111.125 10.7068C111.413 10.9948 111.533 11.3708 111.485 11.8348C111.437 12.3788 111.197 12.8348 110.765 13.2028C110.333 13.5708 109.829 13.7548 109.253 13.7548C108.725 13.7548 108.317 13.6108 108.029 13.3228C107.757 13.0188 107.645 12.6428 107.693 12.1948ZM106.853 18.3628C107.141 17.4988 107.045 17.0668 106.565 17.0668C106.245 17.0668 105.957 17.2348 105.701 17.5708C105.445 17.8908 105.173 18.4108 104.885 19.1308L104.477 20.2588H104.021L104.645 18.4588C104.885 17.8188 105.173 17.3228 105.509 16.9708C105.845 16.6028 106.221 16.3468 106.637 16.2028C107.053 16.0588 107.461 15.9868 107.861 15.9868C108.421 15.9868 108.845 16.0908 109.133 16.2988C109.421 16.5068 109.613 16.7788 109.709 17.1148C109.805 17.4508 109.829 17.8188 109.781 18.2188C109.733 18.6028 109.645 18.9788 109.517 19.3468L106.973 26.6668C106.829 27.0988 106.789 27.4268 106.853 27.6508C106.917 27.8588 107.069 27.9628 107.309 27.9628C107.565 27.9628 107.821 27.8268 108.077 27.5548C108.349 27.2668 108.637 26.7148 108.941 25.8988L109.349 24.8188H109.805L109.205 26.5708C108.965 27.2108 108.677 27.7148 108.341 28.0828C108.005 28.4348 107.637 28.6828 107.237 28.8268C106.837 28.9708 106.445 29.0428 106.061 29.0428C105.357 29.0428 104.845 28.8908 104.525 28.5868C104.205 28.2668 104.045 27.8348 104.045 27.2908C104.045 26.7308 104.173 26.0908 104.429 25.3708L106.853 18.3628ZM119.967 17.0908C119.615 17.0908 119.223 17.3228 118.791 17.7868C118.375 18.2508 117.951 18.8908 117.519 19.7068C117.087 20.5068 116.679 21.4108 116.295 22.4188C115.927 23.4268 115.607 24.4828 115.335 25.5868L115.791 23.0908C116.351 21.3948 116.911 20.0268 117.471 18.9868C118.031 17.9468 118.607 17.1868 119.199 16.7068C119.791 16.2268 120.423 15.9868 121.095 15.9868C121.991 15.9868 122.679 16.2908 123.159 16.8988C123.655 17.5068 123.903 18.4028 123.903 19.5868C123.903 20.3228 123.799 21.1148 123.591 21.9628C123.383 22.8108 123.079 23.6508 122.679 24.4828C122.295 25.3148 121.815 26.0828 121.239 26.7868C120.663 27.4748 119.999 28.0268 119.247 28.4428C118.511 28.8428 117.687 29.0428 116.775 29.0428C116.263 29.0428 115.807 28.9308 115.407 28.7068C115.007 28.4828 114.711 28.1708 114.519 27.7708L114.711 27.3628C114.903 27.7308 115.111 27.9948 115.335 28.1548C115.559 28.3148 115.823 28.3948 116.127 28.3948C116.623 28.3948 117.103 28.2028 117.567 27.8188C118.047 27.4188 118.479 26.8908 118.863 26.2348C119.263 25.5628 119.615 24.8188 119.919 24.0028C120.223 23.1868 120.455 22.3548 120.615 21.5068C120.791 20.6588 120.879 19.8668 120.879 19.1308C120.879 18.3628 120.799 17.8348 120.639 17.5468C120.479 17.2428 120.255 17.0908 119.967 17.0908ZM116.055 12.8428C116.615 12.7948 117.151 12.7308 117.663 12.6508C118.191 12.5548 118.687 12.4268 119.151 12.2668L113.943 30.6268C113.719 31.3948 113.783 31.9068 114.135 32.1628C114.487 32.4188 115.055 32.5468 115.839 32.5468L115.695 33.0508C115.327 33.0348 114.815 33.0108 114.159 32.9788C113.503 32.9628 112.815 32.9548 112.095 32.9548C111.503 32.9548 110.903 32.9628 110.295 32.9788C109.687 33.0108 109.239 33.0348 108.951 33.0508L109.095 32.5468C109.671 32.5468 110.087 32.4348 110.343 32.2108C110.599 32.0028 110.807 31.6188 110.967 31.0588L116.055 12.8428ZM111.279 20.2348C111.887 19.6268 112.447 19.0188 112.959 18.4108C113.487 17.7868 113.999 17.0588 114.495 16.2268C114.991 15.3788 115.487 14.3148 115.983 13.0348L116.055 13.4188C115.719 14.5228 115.319 15.4988 114.855 16.3468C114.391 17.1788 113.879 17.9308 113.319 18.6028C112.775 19.2748 112.183 19.9228 111.543 20.5468L111.279 20.2348Z" fill="white"/>
</svg>
