<svg width="248" height="302" viewBox="0 0 248 302" fill="none" xmlns="http://www.w3.org/2000/svg">
<path d="M73.2396 155.011C73.2691 155.117 73.294 155.206 73.3142 155.279L7.11157 175.727L0.283306 124.874L0.693579 124.846L2.60558 124.716C4.25273 124.605 6.60552 124.446 9.42806 124.257C15.0732 123.879 22.5972 123.378 30.1131 122.888C37.629 122.398 45.1364 121.92 50.7484 121.586C53.5545 121.419 55.8859 121.289 57.5072 121.211C58.3183 121.172 58.9498 121.147 59.3738 121.136C59.5584 121.132 59.7007 121.13 59.8003 121.132C59.8239 121.191 59.8556 121.263 59.8933 121.344C59.9885 121.548 60.1335 121.837 60.3185 122.199C60.4551 122.466 60.6138 122.773 60.7918 123.117C61.0986 123.711 61.4627 124.416 61.8702 125.218C63.1557 127.748 64.8594 131.221 66.4757 135.079L66.6767 134.995L66.4758 135.079C68.396 139.661 70.1217 144.769 71.3678 148.734C71.9907 150.716 72.4935 152.411 72.8405 153.61C73.014 154.21 73.1485 154.686 73.2396 155.011Z" stroke="white" stroke-width="0.5"/>
<path d="M203.407 182.13L122.698 197.747C123.475 170.362 129.104 143.763 139.584 117.948L207.15 114.161L203.407 182.13Z" stroke="white" stroke-width="0.5"/>
<path d="M95.2076 297.783L21.7051 295.513L18.5704 266.433L93.4771 265.109C95.5514 275.169 96.3579 285.932 95.2076 297.783Z" stroke="white" stroke-width="0.5"/>
<path d="M202.172 203.177L195.22 301.074L120.307 298.888C117.539 269.043 118.403 238.974 120.815 209.684L202.172 203.177Z" stroke="white" stroke-width="0.5"/>
<path d="M84.5 248.578L16.6465 253.607L9.12231 192.315L76.0201 167.793C82.6666 189.783 87.0037 213.009 89.8124 237" stroke="white" stroke-width="0.5"/>
<path d="M80.6019 122.541L80.6019 122.541C80.9104 123.733 80.5223 124.628 80.052 125.236C79.8153 125.541 79.5581 125.773 79.3598 125.928C79.2609 126.005 79.1774 126.063 79.1195 126.1C79.0981 126.114 79.0802 126.126 79.0664 126.134L69.4254 127.966L67.3889 121.945L77.4584 120.179L77.4631 120.18C77.4806 120.18 77.5075 120.181 77.5426 120.183C77.6127 120.187 77.7154 120.196 77.8414 120.214C78.0941 120.25 78.4364 120.323 78.7967 120.471C79.5127 120.766 80.2943 121.352 80.6019 122.541Z" stroke="white" stroke-width="0.5"/>
<path d="M86.119 138.297L86.1189 138.297C85.8238 137.333 85.3564 136.515 84.6781 135.978C84.0067 135.447 83.1039 135.172 81.8905 135.337L86.119 138.297ZM86.119 138.297C86.3792 139.147 85.895 139.936 85.2551 140.558C84.9422 140.863 84.6091 141.109 84.3528 141.281C84.2251 141.366 84.1174 141.432 84.0422 141.476C84.0084 141.496 83.9812 141.512 83.9618 141.523L74.371 143.103M86.119 138.297L74.371 143.103M74.371 143.103L72.7537 137.237L72.8003 137.226C72.9929 137.181 73.2709 137.117 73.6125 137.038C74.2958 136.881 75.2331 136.669 76.2498 136.445C78.2873 135.997 80.6303 135.509 81.8904 135.337L74.371 143.103Z" stroke="white" stroke-width="0.5"/>
<path d="M79.8315 159.254L78.2219 152.999L78.3514 152.967C78.5908 152.909 78.9342 152.825 79.3505 152.723C80.183 152.521 81.3066 152.25 82.4708 151.976C83.6353 151.702 84.8396 151.425 85.8338 151.21C86.8369 150.994 87.6046 150.846 87.9108 150.822C89.0662 150.734 90.5065 151.614 90.8737 153.801C91.0517 154.862 90.6912 155.665 90.2814 156.21C90.0757 156.484 89.8582 156.691 89.6925 156.829C89.6098 156.899 89.5405 156.95 89.4929 156.984C89.4778 156.994 89.4649 157.003 89.4544 157.01L79.8315 159.254Z" stroke="white" stroke-width="0.5"/>
<path d="M95.1112 169.629L95.1112 169.629C95.2642 170.921 94.6968 171.768 94.0821 172.302C93.7724 172.572 93.4514 172.761 93.207 172.882C93.0852 172.942 92.9835 172.986 92.9131 173.014C92.878 173.028 92.8507 173.038 92.8328 173.044L92.8195 173.049L83.2762 175.024L81.9993 169.14L92.0695 166.914C92.0886 166.916 92.1162 166.919 92.151 166.923C92.2271 166.931 92.3377 166.947 92.4722 166.974C92.742 167.029 93.1029 167.129 93.4716 167.309C94.2028 167.668 94.9589 168.34 95.1112 169.629Z" stroke="white" stroke-width="0.5"/>
<path d="M86.7953 189.311L85.7842 183.194L94.1429 182.099L94.1494 182.098L94.1833 182.095C94.2136 182.093 94.259 182.09 94.3175 182.087C94.4346 182.082 94.6037 182.078 94.8088 182.083C95.2203 182.093 95.7711 182.139 96.3362 182.283C97.4692 182.572 98.6048 183.235 98.8708 184.736C98.995 185.437 98.8298 185.981 98.5187 186.413C98.2019 186.853 97.7242 187.189 97.2099 187.442C96.6974 187.694 96.1649 187.855 95.7578 187.953C95.5549 188.002 95.3848 188.035 95.266 188.055C95.2066 188.066 95.1601 188.073 95.129 188.077L95.094 188.082L95.0856 188.083L95.0838 188.084L95.0836 188.084L95.0836 188.084L95.0777 188.084L86.7953 189.311Z" stroke="white" stroke-width="0.5"/>
<path d="M89.8797 204.907L88.9859 199.021L97.804 197.749L97.8264 197.749C97.8504 197.748 97.8865 197.748 97.9333 197.749C98.0267 197.75 98.1621 197.754 98.3269 197.767C98.6575 197.794 99.1013 197.855 99.5601 197.993C100.483 198.271 101.412 198.84 101.675 200.011C101.935 201.167 101.289 202.01 100.507 202.594C100.119 202.883 99.7115 203.097 99.3987 203.239C99.2428 203.31 99.1118 203.362 99.0204 203.396C98.9748 203.414 98.9391 203.426 98.9152 203.434L98.8972 203.441L89.8797 204.907Z" stroke="white" stroke-width="0.5"/>
<path d="M129.014 129.242C129.059 129.251 129.1 129.258 129.137 129.265L127.533 135.27L118.199 133.448L118.182 133.442C118.16 133.435 118.127 133.423 118.086 133.407C118.002 133.374 117.882 133.325 117.739 133.259C117.452 133.126 117.076 132.927 116.715 132.659C115.986 132.116 115.374 131.342 115.559 130.303C115.766 129.133 116.043 128.535 116.456 128.201C116.874 127.864 117.483 127.751 118.494 127.708C118.973 127.687 119.889 127.774 121.015 127.921C122.133 128.068 123.438 128.271 124.681 128.478C125.924 128.684 127.104 128.894 127.974 129.051C128.409 129.13 128.766 129.196 129.014 129.242Z" stroke="white" stroke-width="0.5"/>
<path d="M124.042 145.559C124.004 145.554 123.962 145.548 123.915 145.541C123.679 145.508 123.338 145.462 122.921 145.406C122.088 145.294 120.95 145.146 119.735 145.002C117.293 144.713 114.569 144.442 113.341 144.5L124.042 145.559ZM124.042 145.559L123.33 151.47L114.522 150.562L114.522 150.562L114.521 150.562L114.521 150.562L114.521 150.562L114.52 150.562L114.52 150.562L114.515 150.562L114.494 150.559C114.474 150.556 114.443 150.552 114.403 150.545C114.323 150.532 114.205 150.509 114.06 150.472C113.77 150.396 113.374 150.263 112.951 150.032C112.117 149.576 111.177 148.739 110.735 147.195C110.738 147.178 110.741 147.158 110.746 147.134C110.759 147.061 110.781 146.956 110.814 146.829C110.882 146.574 110.997 146.236 111.184 145.896C111.557 145.219 112.203 144.554 113.341 144.5L124.042 145.559Z" stroke="white" stroke-width="0.5"/>
<path d="M109.474 160.668L109.474 160.668L109.484 160.669L120.974 160.939L120.461 166.839L109.129 166.098L109.126 166.097C109.112 166.094 109.091 166.088 109.063 166.08C109.006 166.063 108.924 166.036 108.827 165.995C108.631 165.913 108.377 165.778 108.14 165.566C107.679 165.155 107.249 164.427 107.498 163.127C107.753 161.793 108.281 161.194 108.706 160.919C108.921 160.78 109.121 160.718 109.263 160.69C109.334 160.676 109.391 160.671 109.428 160.669C109.447 160.668 109.46 160.668 109.468 160.668L109.474 160.668Z" stroke="white" stroke-width="0.5"/>
<path d="M105.355 178.711L105.354 178.711C105.138 177.321 105.436 176.414 106.039 175.861C106.653 175.299 107.643 175.049 108.929 175.117L108.929 175.117C109.666 175.155 112.364 175.309 114.88 175.452C116.137 175.524 117.349 175.594 118.246 175.645L119.322 175.707L119.452 175.715L118.536 181.924L108.351 181.874L108.343 181.873C108.325 181.87 108.299 181.865 108.264 181.857C108.194 181.843 108.092 181.818 107.967 181.779C107.717 181.702 107.378 181.57 107.027 181.349C106.33 180.912 105.575 180.126 105.355 178.711Z" stroke="white" stroke-width="0.5"/>
<path d="M116.839 191.694L116.665 197.675L116.51 197.674L115.448 197.669C114.566 197.665 113.379 197.659 112.163 197.653C109.731 197.64 107.185 197.626 106.719 197.62C106.555 197.618 106.283 197.523 105.947 197.313C105.62 197.11 105.262 196.816 104.934 196.46C104.272 195.742 103.768 194.814 103.819 193.906L116.839 191.694ZM116.839 191.694L107.202 191.556L107.188 191.559C107.164 191.563 107.128 191.57 107.081 191.579C106.989 191.598 106.856 191.628 106.696 191.669C106.375 191.752 105.948 191.883 105.52 192.073C104.638 192.466 103.867 193.057 103.819 193.906L116.839 191.694Z" stroke="white" stroke-width="0.5"/>
<path d="M106.86 205.498L106.842 205.499C106.823 205.499 106.794 205.501 106.757 205.505C106.683 205.511 106.575 205.524 106.445 205.55C106.183 205.6 105.838 205.698 105.497 205.887C105.158 206.075 104.824 206.352 104.577 206.761C104.331 207.169 104.162 207.724 104.172 208.483L106.86 205.498ZM106.86 205.498L115.621 205.952L115.642 211.226L108.143 211.625L108.117 211.622C108.089 211.62 108.046 211.615 107.991 211.608C107.882 211.594 107.724 211.571 107.534 211.534C107.154 211.459 106.649 211.329 106.147 211.107C105.137 210.663 104.19 209.881 104.172 208.483L106.86 205.498Z" stroke="white" stroke-width="0.5"/>
<path d="M105.336 237.709C104.399 238.079 103.449 238.755 103.537 239.973C103.58 240.578 103.802 241.045 104.108 241.404M107.312 242.659L114.332 243.327C114.332 243.327 114.196 237.994 114.355 237.615C114.468 237.342 110.653 237.292 108.5 237.286" stroke="white" stroke-width="0.5"/>
<path d="M104.685 253.005L113.704 253.177L113.9 259.278C113.9 259.278 106.012 259.354 105.143 259.317C104.807 259.302 104.233 259.259 103.653 259.042" stroke="white" stroke-width="0.5"/>
<path d="M106.355 268.882L106.375 268.878L113.279 268.365L113.255 274.22L113.216 274.224C113.046 274.24 112.803 274.262 112.507 274.289C111.916 274.344 111.117 274.415 110.284 274.486C108.606 274.628 106.824 274.761 106.303 274.74L106.303 274.74C105.769 274.72 105.233 274.653 104.789 274.293C104.349 273.936 103.951 273.249 103.801 271.871C103.73 271.214 103.858 270.71 104.078 270.319C104.3 269.925 104.625 269.633 104.968 269.417C105.312 269.2 105.667 269.064 105.939 268.983C106.074 268.942 106.187 268.915 106.265 268.899C106.304 268.891 106.335 268.885 106.355 268.882Z" stroke="white" stroke-width="0.5"/>
<path d="M99.0816 281.884C99.0792 281.751 99.076 281.578 99.0721 281.377C99.0624 280.873 99.0487 280.188 99.0347 279.5C99.0208 278.811 99.0066 278.119 98.9959 277.599L98.9829 276.97L98.9827 276.964C99.0794 276.955 99.2031 276.944 99.3479 276.931C99.7133 276.899 100.212 276.855 100.747 276.812C101.822 276.725 103.026 276.64 103.588 276.643L99.0816 281.884ZM99.0816 281.884C99.2528 281.867 99.4916 281.849 99.7733 281.832C100.349 281.797 101.117 281.762 101.883 281.731C102.65 281.7 103.417 281.673 103.992 281.653C104.279 281.643 104.519 281.636 104.686 281.63L104.881 281.624L104.932 281.622L104.949 281.619C104.971 281.615 105.005 281.609 105.047 281.599C105.133 281.581 105.257 281.552 105.406 281.509C105.704 281.423 106.098 281.285 106.486 281.076C107.267 280.655 107.97 279.981 107.927 278.902L99.0816 281.884ZM103.653 276.643C103.631 276.643 103.609 276.643 103.589 276.643L103.653 276.643ZM103.653 276.643C104.246 276.646 105.285 276.651 106.2 276.935M103.653 276.643L106.2 276.935M106.2 276.935C106.672 277.082 107.092 277.298 107.399 277.61M106.2 276.935L107.399 277.61M107.399 277.61C107.7 277.918 107.903 278.33 107.927 278.902L107.399 277.61Z" stroke="white" stroke-width="0.5"/>
<path d="M113.194 284.212C113.475 284.209 113.705 284.208 113.865 284.207L113.714 290.05L107 289.676L107 289.676L106.998 289.675L106.997 289.675L106.997 289.675H106.997L106.996 289.675L106.99 289.675L106.965 289.674C106.942 289.672 106.908 289.67 106.865 289.666C106.777 289.658 106.651 289.644 106.5 289.621C106.195 289.576 105.792 289.494 105.391 289.35C104.571 289.057 103.862 288.548 103.843 287.656L103.843 287.656C103.82 286.618 103.976 285.834 104.353 285.297C104.72 284.773 105.327 284.441 106.316 284.374L106.316 284.374C107.348 284.304 109.297 284.262 110.994 284.237C111.842 284.225 112.624 284.217 113.194 284.212Z" stroke="white" stroke-width="0.5"/>
<path d="M107.345 292.499L107.345 292.499C107.775 292.556 108.131 292.879 108.391 293.418C108.65 293.955 108.791 294.665 108.807 295.394C108.814 295.698 108.709 295.887 108.555 296.02C108.391 296.163 108.152 296.256 107.876 296.315C107.602 296.374 107.318 296.394 107.077 296.411L107.063 296.412C106.952 296.419 106.844 296.427 106.758 296.438C106.713 296.444 106.666 296.452 106.622 296.464C106.596 296.471 106.554 296.484 106.512 296.51C106.503 296.512 106.49 296.514 106.473 296.517C106.416 296.525 106.332 296.534 106.221 296.544C106.001 296.562 105.693 296.578 105.325 296.594C104.591 296.624 103.629 296.648 102.671 296.667C101.713 296.686 100.761 296.7 100.048 296.708C99.6918 296.713 99.3954 296.716 99.1881 296.718L99.1105 296.719L99.0418 292.692L99.123 292.689C99.3299 292.679 99.6267 292.666 99.9864 292.651C100.706 292.621 101.676 292.582 102.68 292.548C103.685 292.513 104.723 292.484 105.577 292.471C106.441 292.459 107.093 292.466 107.345 292.499Z" stroke="white" stroke-width="0.5"/>
<path d="M103 261.5C103 261.5 106.674 261.418 106.842 264.15C107.027 267.176 103.797 267.601 103.797 267.601L101.217 267.641" stroke="white" stroke-width="0.5"/>
<path d="M120.923 117.236L120.923 117.236C121.035 116.104 121.569 115.511 122.22 115.204C122.892 114.888 123.716 114.864 124.399 114.944L124.399 114.945L124.409 114.945L134.817 115.753L132.21 121.612L123.761 120.562L123.76 120.562L123.736 120.557C123.714 120.553 123.681 120.546 123.638 120.536C123.553 120.515 123.43 120.482 123.283 120.434C122.988 120.337 122.6 120.178 122.224 119.933C121.478 119.445 120.786 118.626 120.923 117.236ZM120.674 117.212L120.674 117.212L120.674 117.212Z" stroke="white" stroke-width="0.5"/>
<path d="M92 232L91.6502 220.912C91.6502 220.912 92.4817 211.411 103.829 212.001C112.552 212.455 113.939 221.333 113.939 221.333L112.421 237.339L108.5 237.165M93.5 236.5L96.3662 236.627M103.075 236.925L105.5 237.032" stroke="white" stroke-width="0.5"/>
<path fill-rule="evenodd" clip-rule="evenodd" d="M98.2731 241.118C98.2731 241.118 96.2109 240.116 96.3875 237.973C96.5648 235.828 102.081 220.518 102.784 219.384L108.06 220.649C108.06 220.649 102.834 237.503 101.795 239.436C100.755 241.369 98.2731 241.118 98.2731 241.118Z" stroke="white" stroke-width="0.5" stroke-miterlimit="1.5" stroke-linecap="round" stroke-linejoin="round"/>
<path fill-rule="evenodd" clip-rule="evenodd" d="M78.2712 285.654C78.2712 285.654 73.7828 284.952 73.5 282.696C73.0284 278.939 72.7321 275.717 72.7321 275.717C72.7321 275.717 71.887 273.037 73.3674 271.413C75.4607 269.117 93.9908 227.65 93.9908 227.65C93.9908 227.65 94.7722 224.957 95.8967 225.268C97.0212 225.58 98.7701 225.218 96.327 229.807C93.8839 234.396 92.7499 239.734 92.7499 239.734C92.7499 239.734 92.7323 243.051 95.9961 243.809C99.2593 244.566 101.262 245.195 103.11 243.669C104.958 242.144 107.269 231.209 107.593 230.46C107.917 229.71 110.154 228.608 109.047 233.613L99.4311 276.847C99.4311 276.847 98.9636 280.498 97.5306 282.282C95.5191 284.785 93.9515 288.325 90.4428 287.967C86.9341 287.609 78.2712 285.654 78.2712 285.654Z" stroke="white" stroke-width="0.5" stroke-miterlimit="1.5" stroke-linecap="round" stroke-linejoin="round"/>
<path d="M245.008 21.478L245.012 21.4851L245.016 21.4918L245.017 21.4919L245.017 21.4921L245.018 21.4936L245.023 21.5009L245.044 21.5321C245.062 21.5602 245.09 21.6028 245.126 21.6594C245.198 21.7727 245.301 21.9421 245.426 22.1638C245.675 22.6071 246.01 23.2591 246.347 24.0887C247.023 25.7486 247.708 28.1157 247.748 30.9448C247.829 36.5868 245.347 44.1253 234.954 51.5917C234.814 51.6923 234.67 51.7954 234.524 51.9007C229.702 55.3649 221.392 61.334 210.634 66.9715C197.853 73.6659 181.716 80.2037 165.672 86.6071C150 92.8608 134.166 98.1315 122.249 101.839C116.29 103.693 111.312 105.155 107.823 106.155C106.078 106.654 104.707 107.038 103.771 107.297C103.533 107.363 103.324 107.42 103.143 107.47C103.169 107.441 103.195 107.412 103.222 107.381C103.638 106.913 104.253 106.224 105.048 105.34C106.639 103.572 108.952 101.024 111.838 97.9064C117.611 91.6707 125.678 83.1552 134.856 74.0354C153.22 55.7884 176.007 35.1487 193.759 25.4939C209.874 16.7306 221.19 13.2292 229.223 13.1686C233.235 13.1383 236.422 13.966 238.982 15.4201C241.542 16.8742 243.489 18.9631 245.008 21.478Z" stroke="white" stroke-width="0.5"/>
<path d="M92.9593 20.685L92.7298 20.5858L92.9593 20.6849C95.921 13.8326 99.2403 8.43905 102.905 4.91748C106.564 1.40089 110.552 -0.236924 114.876 0.376331L114.911 0.128842L114.876 0.376332C123.556 1.60739 133.897 12.9902 131.605 29.0631C129.305 45.1969 119.635 64.0516 113.518 74.3808L113.68 74.4766L113.518 74.3808C110.581 79.3394 105.145 86.1596 100.433 91.7502C98.0793 94.5432 95.9093 97.0254 94.3278 98.8093C93.5371 99.7013 92.8936 100.419 92.4478 100.913C92.3337 101.039 92.2325 101.151 92.1451 101.248C92.141 101.191 92.1366 101.131 92.1319 101.067C92.0957 100.569 92.0434 99.8373 91.9788 98.901C91.8498 97.0283 91.6721 94.3376 91.4774 91.0658C91.0879 84.5221 90.6304 75.6546 90.3584 66.3585C90.0864 57.0617 89.9999 47.34 90.3519 39.0868C90.5279 34.96 90.8134 31.204 91.2394 28.0537C91.6661 24.8984 92.2314 22.3691 92.9593 20.685Z" stroke="white" stroke-width="0.5"/>
<path d="M80.0028 106.76C79.9018 106.707 79.7947 106.65 79.6818 106.591C78.7294 106.089 77.3583 105.364 75.6835 104.471C72.3337 102.686 67.7693 100.231 62.9105 97.5516C53.1848 92.1886 42.304 85.9406 37.6067 82.3642C32.8942 78.7762 29.0272 75.5785 26.2967 72.8508C24.9314 71.4869 23.8559 70.246 23.1015 69.1373C22.3447 68.025 21.9255 67.0661 21.8443 66.2636C21.6886 64.7237 23.236 62.3327 27.0351 62.1516C30.834 61.9706 36.8546 64.0246 45.4138 71.4437C53.9805 78.8694 62.842 87.9464 69.5641 95.1699C72.9246 98.7811 75.7493 101.928 77.7338 104.172C78.7019 105.266 79.47 106.146 80.0028 106.76Z" stroke="white" stroke-width="0.5"/>
</svg>
