<?xml version="1.0" encoding="UTF-8" standalone="no"?>
<!DOCTYPE svg PUBLIC "-//W3C//DTD SVG 1.1//EN" "http://www.w3.org/Graphics/SVG/1.1/DTD/svg11.dtd">
<svg width="100%" height="100%" viewBox="0 0 2732 2048" version="1.1" xmlns="http://www.w3.org/2000/svg" xmlns:xlink="http://www.w3.org/1999/xlink" xml:space="preserve" xmlns:serif="http://www.serif.com/" style="fill-rule:evenodd;clip-rule:evenodd;stroke-linecap:round;stroke-linejoin:round;stroke-miterlimit:1.5;">
    <g id="Layer1">
        <path d="M778.035,704.877L788.238,780.864L886.847,750.407C886.847,750.407 882.318,733.736 876.629,720.16C871.841,708.733 866.539,699.592 866.715,699.351C867.099,698.822 778.035,704.877 778.035,704.877Z" style="fill:rgb(169,0,91);"/>
        <path d="M959.004,813.378L1079.03,790.154L1084.6,688.993L984.09,694.626C968.468,733.035 960.106,772.619 959.004,813.378Z" style="fill:rgb(237,20,124);"/>
        <path d="M809.783,957.788L805.072,914.086L916.497,912.116C919.636,927.202 920.854,943.355 919.089,961.164L809.783,957.788Z" style="fill:rgb(223,0,117);"/>
        <path d="M1066.92,966.028L955.515,962.777C951.374,918.423 952.667,873.738 956.26,830.228L1077.25,820.552L1066.92,966.028Z" style="fill:rgb(169,0,91);"/>
        <path d="M802.64,895.49L791.519,804.899L890.396,768.655C901.727,806.144 908.517,846.062 912.537,887.345L802.64,895.49Z" style="fill:rgb(237,20,124);"/>
    </g>
    <g id="Layer2">
        <path d="M877.15,700.6L880.401,710.212L895.031,707.432C895.031,707.432 898.508,705.476 897.525,701.678C896.543,697.88 892.491,697.91 892.491,697.91L877.15,700.6Z" style="fill:rgb(239,10,113);"/>
        <path d="M885.109,723.22L887.69,732.582L902.256,730.181C902.256,730.181 906.574,727.885 905.675,724.951C904.776,722.016 902.782,719.806 899.022,720.318C895.262,720.831 885.109,723.22 885.109,723.22Z" style="fill:rgb(239,10,113);"/>
        <path d="M893.198,746.52L895.76,756.476L910.398,753.063C910.398,753.063 913.281,751.298 912.713,747.914C912.145,744.531 909.876,743.055 907.941,743.203C906.007,743.352 893.198,746.52 893.198,746.52Z" style="fill:rgb(239,10,113);"/>
        <path d="M900.836,779.778L898.793,770.364L914.089,766.984C914.089,766.984 918.492,767.202 918.979,771.325C919.467,775.448 915.322,776.78 915.322,776.78L900.836,779.778Z" style="fill:rgb(239,10,113);"/>
        <path d="M906.016,800.878L904.4,791.102L917.14,789.432C917.14,789.432 923.674,788.784 924.533,793.633C925.339,798.182 918.617,799.012 918.617,799.012L906.016,800.878Z" style="fill:rgb(239,10,113);"/>
        <path d="M909.138,814.499L910.571,823.935L924.297,821.703C924.297,821.703 929.537,820.032 928.675,816.193C927.813,812.355 922.561,812.562 922.561,812.562L909.138,814.499Z" style="fill:rgb(239,10,113);"/>
        <path d="M969.364,711.421L966.802,721.015L952.641,718.251C952.641,718.251 947.853,716.665 948.471,713.179C949.089,709.693 950.179,709.167 953.158,709.039C956.138,708.911 969.364,711.421 969.364,711.421Z" style="fill:rgb(239,10,113);"/>
        <path d="M941.328,738.234C941.328,738.234 941.836,734.033 945.54,733.858C949.244,733.684 961.783,735.477 961.783,735.477L960.644,744.934L947.265,743.555C947.265,743.555 942.678,743.122 941.328,738.234Z" style="fill:rgb(239,10,113);"/>
        <path d="M956.417,767.637L957.241,758.165L939.865,757.756C939.865,757.756 937.341,757.591 936.557,761.689C935.773,765.787 939.277,766.517 939.277,766.517L956.417,767.637Z" style="fill:rgb(239,10,113);"/>
        <path d="M955.014,780.017L953.553,789.911L938.152,789.836C938.152,789.836 934.076,789.28 933.387,784.848C932.725,780.594 935.165,778.906 939.055,779.11C941.234,779.224 955.014,780.017 955.014,780.017Z" style="fill:rgb(239,10,113);"/>
        <path d="M950.829,813.192L951.107,803.617L936.453,803.407C936.453,803.407 931.281,804.258 931.114,807.229C930.948,810.201 934.384,813.089 935.764,813.109C937.144,813.128 950.829,813.192 950.829,813.192Z" style="fill:rgb(239,10,113);"/>
        <path d="M949.294,824.704L949.328,833.2L937.868,833.81C937.868,833.81 931.695,833.355 931.634,828.801C931.571,824.076 935.981,824.014 935.981,824.014L949.294,824.704Z" style="fill:rgb(239,10,113);"/>
        <path d="M947.02,880.296C947.02,880.296 946.82,872.415 947.054,871.854C947.287,871.293 936.287,871.37 936.287,871.37C936.287,871.37 930.815,871.863 931.065,875.339C931.315,878.816 935.55,879.205 935.55,879.205L947.02,880.296Z" style="fill:rgb(239,10,113);"/>
        <path d="M946.382,903.873L946.093,894.855L932.763,894.601C932.763,894.601 928.455,894.882 928.484,899.207C928.513,903.532 932.155,903.875 933.439,903.93C934.724,903.985 946.382,903.873 946.382,903.873Z" style="fill:rgb(239,10,113);"/>
        <path d="M945.798,926.294L945.835,916.905L935.218,917.695C935.218,917.695 930.637,918.352 931.089,922.526C931.541,926.699 933.539,927.034 935.139,927.096C936.739,927.159 945.798,926.294 945.798,926.294Z" style="fill:rgb(239,10,113);"/>
        <path d="M923.958,929.677C923.958,929.677 924.129,937.905 924.117,937.725C924.104,937.545 933.166,937.267 933.166,937.267C933.166,937.267 938.069,936.468 937.923,932.862C937.771,929.125 932.837,929.178 931.144,929.169C929.442,929.161 923.958,929.677 923.958,929.677Z" style="fill:rgb(239,10,113);"/>
        <path d="M946.711,940.346L946.467,949.745L936.164,949.17C936.164,949.17 931.217,948.948 931.149,945.824C931.08,942.7 932.072,940.805 935.148,940.597C938.224,940.388 946.711,940.346 946.711,940.346Z" style="fill:rgb(239,10,113);"/>
        <path d="M924.046,952.907L924.16,959.584C924.16,959.584 935.354,959.49 935.637,959.231C935.92,958.972 939.274,959.471 939.225,957.245C939.176,955.019 938.362,952.822 936.742,952.608C935.123,952.393 924.046,952.907 924.046,952.907Z" style="fill:rgb(239,10,113);"/>
        <path d="M919.04,907.049L930.823,907.01C930.823,907.01 935.702,907.035 935.95,911.073C936.223,915.545 931.449,916.174 931.449,916.174L920.292,916.346L919.04,907.049Z" style="fill:rgb(239,10,113);"/>
        <path d="M977.849,691.41L973.671,700.799L960.901,699.212C960.901,699.212 955.955,698.353 956.395,693.894C956.75,690.294 959.864,689.931 961.943,690.176L977.849,691.41Z" style="fill:rgb(239,10,113);"/>
    </g>
    <g id="Layer3">
        <path d="M913.631,869.78L944.197,871.446L946.441,847.789C946.441,847.789 944.391,834.667 931.497,833.996C914.726,833.124 913.497,847.166 913.497,847.166L913.631,869.78Z" style="fill:rgb(159,11,91);"/>
        <path d="M923.286,877.031C923.286,877.031 920.238,875.55 920.499,872.382C920.761,869.213 928.914,846.583 929.954,844.907L937.752,846.777C937.752,846.777 930.027,871.688 928.491,874.545C926.955,877.402 923.286,877.031 923.286,877.031Z" style="fill:rgb(242,129,193);stroke:rgb(242,129,193);stroke-opacity:0;stroke-width:1px;"/>
        <path d="M893.722,942.856C893.722,942.856 887.088,941.819 886.67,938.485C885.973,932.931 885.535,928.169 885.535,928.169C885.535,928.169 884.286,924.209 886.474,921.808C889.568,918.415 916.956,857.125 916.956,857.125C916.956,857.125 918.111,853.144 919.773,853.605C921.435,854.066 924.02,853.53 920.409,860.313C916.798,867.096 915.122,874.986 915.122,874.986C915.122,874.986 915.096,879.888 919.92,881.008C924.743,882.128 927.703,883.057 930.434,880.802C933.166,878.548 936.582,862.385 937.06,861.278C937.539,860.17 940.846,858.541 939.209,865.938L924.997,929.839C924.997,929.839 924.306,935.236 922.188,937.872C919.215,941.572 916.898,946.805 911.712,946.276C906.526,945.746 893.722,942.856 893.722,942.856Z" style="fill:rgb(242,129,193);stroke:rgb(242,129,193);stroke-opacity:0;stroke-width:1px;"/>
    </g>
    <g id="Layer4">
        <path d="M929.387,680.177C929.387,680.177 1011.66,586.605 1064.24,558.008C1111.91,532.086 1131.4,537.165 1140.48,552.206C1140.48,552.206 1156.41,575.014 1125.52,597.206C1118.5,602.246 1105.94,611.366 1089.53,619.965C1070.62,629.87 1046.75,639.54 1023.04,649.003C976.689,667.499 929.387,680.177 929.387,680.177Z" style="fill:rgb(223,8,102);"/>
        <path d="M913.924,671.184C913.924,671.184 906.32,571.375 915.093,551.078C923.866,530.78 934.812,518.989 947.877,520.842C960.943,522.695 976.329,539.737 972.918,563.66C969.507,587.583 955.182,615.504 946.136,630.777C937.42,645.494 913.924,671.184 913.924,671.184Z" style="fill:rgb(223,8,102);"/>
        <path d="M897.832,679.678C897.832,679.678 847.333,653.295 833.395,642.683C819.457,632.071 810.47,623.73 809.954,618.629C809.438,613.528 820.047,603.993 845.4,625.969C870.753,647.945 897.832,679.678 897.832,679.678Z" style="fill:rgb(223,8,102);"/>
    </g>
</svg>
