<svg width="83" height="22" viewBox="0 0 83 22" fill="none" xmlns="http://www.w3.org/2000/svg">
<path fill-rule="evenodd" clip-rule="evenodd" d="M0.647034 9.06456L1.13988 12.8034L5.90308 11.3048C5.90308 11.3048 5.68432 10.4845 5.40951 9.81653C5.17824 9.25428 4.92213 8.80452 4.93063 8.79266C4.94918 8.76663 0.647034 9.06456 0.647034 9.06456Z" fill="white"/>
<path fill-rule="evenodd" clip-rule="evenodd" d="M9.38858 14.4032L15.1863 13.2605L15.4554 8.28302L10.6003 8.56018C9.84573 10.45 9.44181 12.3977 9.38858 14.4032Z" fill="white"/>
<path fill-rule="evenodd" clip-rule="evenodd" d="M2.18056 21.5087L1.953 19.3584L7.33527 19.2615C7.4869 20.0038 7.54573 20.7985 7.46047 21.6748L2.18056 21.5087Z" fill="white"/>
<path fill-rule="evenodd" clip-rule="evenodd" d="M14.6013 21.9142L9.22004 21.7542C9.02001 19.5718 9.08247 17.3731 9.25603 15.2323L15.1003 14.7562L14.6013 21.9142Z" fill="white"/>
<path fill-rule="evenodd" clip-rule="evenodd" d="M1.83553 18.4434L1.29834 13.986L6.07449 12.2027C6.62182 14.0473 6.9498 16.0114 7.14399 18.0426L1.83553 18.4434Z" fill="white"/>
<path fill-rule="evenodd" clip-rule="evenodd" d="M5.43466 8.85416L5.5917 9.32711L6.29838 9.19032C6.29838 9.19032 6.46634 9.09408 6.41885 8.9072C6.37142 8.72033 6.17569 8.7218 6.17569 8.7218L5.43466 8.85416Z" fill="white"/>
<path fill-rule="evenodd" clip-rule="evenodd" d="M5.81912 9.96708L5.94379 10.4277L6.64739 10.3096C6.64739 10.3096 6.85597 10.1966 6.81254 10.0522C6.76912 9.90784 6.6728 9.7991 6.49117 9.82429C6.30955 9.84953 5.81912 9.96708 5.81912 9.96708Z" fill="white"/>
<path fill-rule="evenodd" clip-rule="evenodd" d="M6.20987 11.1135L6.33362 11.6034L7.0407 11.4355C7.0407 11.4355 7.17996 11.3486 7.15252 11.1821C7.12508 11.0157 7.01548 10.943 6.92201 10.9503C6.82859 10.9577 6.20987 11.1135 6.20987 11.1135Z" fill="white"/>
<path fill-rule="evenodd" clip-rule="evenodd" d="M6.57882 12.75L6.48013 12.2868L7.21899 12.1205C7.21899 12.1205 7.43167 12.1312 7.4552 12.334C7.47877 12.5369 7.27855 12.6025 7.27855 12.6025L6.57882 12.75Z" fill="white"/>
<path fill-rule="evenodd" clip-rule="evenodd" d="M6.829 13.7882L6.75095 13.3072L7.36634 13.225C7.36634 13.225 7.68196 13.1931 7.72345 13.4317C7.76238 13.6555 7.43768 13.6964 7.43768 13.6964L6.829 13.7882Z" fill="white"/>
<path fill-rule="evenodd" clip-rule="evenodd" d="M6.97983 14.4584L7.04905 14.9227L7.71207 14.8128C7.71207 14.8128 7.96518 14.7306 7.92354 14.5417C7.8819 14.3529 7.62821 14.3631 7.62821 14.3631L6.97983 14.4584Z" fill="white"/>
<path fill-rule="evenodd" clip-rule="evenodd" d="M9.88895 9.38654L9.76519 9.8586L9.08116 9.7226C9.08116 9.7226 8.84988 9.64456 8.87973 9.47304C8.90959 9.30152 8.96224 9.27564 9.10614 9.26934C9.25008 9.26304 9.88895 9.38654 9.88895 9.38654Z" fill="white"/>
<path fill-rule="evenodd" clip-rule="evenodd" d="M8.5347 10.7059C8.5347 10.7059 8.55924 10.4992 8.73815 10.4905C8.91707 10.482 9.52276 10.5702 9.52276 10.5702L9.46774 11.0355L8.82148 10.9677C8.82148 10.9677 8.59991 10.9464 8.5347 10.7059Z" fill="white"/>
<path fill-rule="evenodd" clip-rule="evenodd" d="M9.26358 12.1525L9.30338 11.6865L8.46405 11.6664C8.46405 11.6664 8.34213 11.6582 8.30426 11.8599C8.26639 12.0615 8.43565 12.0974 8.43565 12.0974L9.26358 12.1525Z" fill="white"/>
<path fill-rule="evenodd" clip-rule="evenodd" d="M9.19582 12.7618L9.12525 13.2486L8.38132 13.2449C8.38132 13.2449 8.18444 13.2175 8.15115 12.9995C8.11918 12.7902 8.23704 12.7071 8.42494 12.7171C8.53019 12.7228 9.19582 12.7618 9.19582 12.7618Z" fill="white"/>
<path fill-rule="evenodd" clip-rule="evenodd" d="M8.99367 14.3941L9.0071 13.923L8.29925 13.9126C8.29925 13.9126 8.04942 13.9545 8.04136 14.1007C8.03334 14.2469 8.19931 14.389 8.26597 14.39C8.33263 14.3909 8.99367 14.3941 8.99367 14.3941Z" fill="white"/>
<path fill-rule="evenodd" clip-rule="evenodd" d="M8.91955 14.9605L8.92119 15.3785L8.36763 15.4085C8.36763 15.4085 8.06945 15.3862 8.0665 15.1621C8.06346 14.9296 8.27648 14.9265 8.27648 14.9265L8.91955 14.9605Z" fill="white"/>
<path fill-rule="evenodd" clip-rule="evenodd" d="M8.8097 17.6958C8.8097 17.6958 8.80004 17.3081 8.81134 17.2805C8.82259 17.2529 8.29125 17.2566 8.29125 17.2566C8.29125 17.2566 8.02693 17.2809 8.03901 17.4519C8.05108 17.623 8.25565 17.6422 8.25565 17.6422L8.8097 17.6958Z" fill="white"/>
<path fill-rule="evenodd" clip-rule="evenodd" d="M8.77889 18.8559L8.76493 18.4122L8.12104 18.3997C8.12104 18.3997 7.91294 18.4135 7.91434 18.6263C7.91575 18.8391 8.09167 18.856 8.15369 18.8587C8.21576 18.8614 8.77889 18.8559 8.77889 18.8559Z" fill="white"/>
<path fill-rule="evenodd" clip-rule="evenodd" d="M8.75065 19.9591L8.75244 19.4971L8.2396 19.536C8.2396 19.536 8.01832 19.5683 8.04015 19.7737C8.06198 19.979 8.15849 19.9955 8.23578 19.9985C8.31307 20.0016 8.75065 19.9591 8.75065 19.9591Z" fill="white"/>
<path fill-rule="evenodd" clip-rule="evenodd" d="M7.69568 20.1256C7.69568 20.1256 7.70394 20.5304 7.70336 20.5215C7.70273 20.5127 8.14046 20.499 8.14046 20.499C8.14046 20.499 8.37729 20.4597 8.37024 20.2823C8.3629 20.0984 8.12457 20.101 8.04279 20.1006C7.96058 20.1002 7.69568 20.1256 7.69568 20.1256Z" fill="white"/>
<path fill-rule="evenodd" clip-rule="evenodd" d="M8.79474 20.6505L8.78296 21.113L8.28528 21.0847C8.28528 21.0847 8.04632 21.0738 8.04304 20.92C8.03971 20.7663 8.08762 20.6731 8.23621 20.6629C8.38479 20.6526 8.79474 20.6505 8.79474 20.6505Z" fill="white"/>
<path fill-rule="evenodd" clip-rule="evenodd" d="M7.69995 21.2686L7.70546 21.5971C7.70546 21.5971 8.24617 21.5925 8.25984 21.5797C8.27351 21.567 8.43552 21.5915 8.43315 21.482C8.43079 21.3725 8.39147 21.2644 8.31322 21.2538C8.23501 21.2433 7.69995 21.2686 7.69995 21.2686Z" fill="white"/>
<path fill-rule="evenodd" clip-rule="evenodd" d="M7.45816 19.0122L8.02733 19.0103C8.02733 19.0103 8.263 19.0115 8.27498 19.2102C8.28817 19.4302 8.05756 19.4612 8.05756 19.4612L7.51864 19.4696L7.45816 19.0122Z" fill="white"/>
<path fill-rule="evenodd" clip-rule="evenodd" d="M10.2989 8.40194L10.0971 8.86392L9.48023 8.78583C9.48023 8.78583 9.24132 8.74356 9.26257 8.52416C9.27972 8.34703 9.43013 8.32917 9.53056 8.34123L10.2989 8.40194Z" fill="white"/>
<path fill-rule="evenodd" clip-rule="evenodd" d="M7.19684 17.1784L8.6733 17.2604L8.78169 16.0964C8.78169 16.0964 8.68267 15.4507 8.05984 15.4177C7.24973 15.3748 7.19037 16.0657 7.19037 16.0657L7.19684 17.1784Z" fill="white"/>
<path fill-rule="evenodd" clip-rule="evenodd" d="M7.66322 17.5352C7.66322 17.5352 7.51599 17.4623 7.5286 17.3065C7.54125 17.1505 7.93507 16.0371 7.98531 15.9546L8.36199 16.0466C8.36199 16.0466 7.98884 17.2723 7.91464 17.4129C7.84045 17.5535 7.66322 17.5352 7.66322 17.5352Z" fill="white" stroke="#1E2832" stroke-width="0.1" stroke-miterlimit="1.5" stroke-linecap="round" stroke-linejoin="round"/>
<path fill-rule="evenodd" clip-rule="evenodd" d="M6.23518 20.774C6.23518 20.774 5.91473 20.723 5.89454 20.559C5.86087 20.2857 5.83971 20.0514 5.83971 20.0514C5.83971 20.0514 5.77938 19.8565 5.88507 19.7384C6.03453 19.5715 7.35747 16.5558 7.35747 16.5558C7.35747 16.5558 7.41327 16.3599 7.49355 16.3826C7.57383 16.4052 7.69869 16.3789 7.52427 16.7126C7.34984 17.0464 7.26889 17.4346 7.26889 17.4346C7.26889 17.4346 7.26763 17.6758 7.50065 17.7309C7.73362 17.786 7.8766 17.8317 8.00852 17.7208C8.14048 17.6099 8.30549 16.8146 8.32858 16.7601C8.35171 16.7056 8.51145 16.6254 8.43238 16.9894L7.74589 20.1336C7.74589 20.1336 7.71251 20.3991 7.6102 20.5288C7.46659 20.7109 7.35467 20.9683 7.10417 20.9423C6.85366 20.9162 6.23518 20.774 6.23518 20.774Z" fill="white" stroke="#1E2832" stroke-width="0.1" stroke-miterlimit="1.5" stroke-linecap="round" stroke-linejoin="round"/>
<path fill-rule="evenodd" clip-rule="evenodd" d="M7.95795 7.84921C7.95795 7.84921 11.9321 3.24512 14.4719 1.83805C16.7745 0.562588 17.716 0.812493 18.1546 1.55257C18.1546 1.55257 18.9241 2.6748 17.4319 3.76673C17.0929 4.01472 16.4862 4.46346 15.6935 4.88656C14.7801 5.37392 13.627 5.84972 12.4818 6.31533C10.2428 7.2254 7.95795 7.84921 7.95795 7.84921Z" fill="white"/>
<path fill-rule="evenodd" clip-rule="evenodd" d="M7.21101 7.40675C7.21101 7.40675 6.84371 2.49578 7.26748 1.49709C7.69125 0.498355 8.21998 -0.0818069 8.85108 0.00936753C9.48221 0.100542 10.2254 0.939071 10.0607 2.11617C9.89589 3.29327 9.20393 4.66709 8.76698 5.41857C8.34596 6.1427 7.21101 7.40675 7.21101 7.40675Z" fill="white"/>
<path fill-rule="evenodd" clip-rule="evenodd" d="M6.43371 7.82465C6.43371 7.82465 3.99441 6.52651 3.32115 6.00436C2.64789 5.48221 2.21378 5.0718 2.18885 4.82081C2.16393 4.56983 2.67639 4.10067 3.90104 5.18197C5.12569 6.26327 6.43371 7.82465 6.43371 7.82465Z" fill="white"/>
<path d="M29.2489 9.63309L24.4809 17.5371H23.8569L22.5929 7.47309C22.5396 7.06776 22.4223 6.80109 22.2409 6.67309C22.0596 6.53443 21.8889 6.45976 21.7289 6.44909L21.7929 6.12909C22.0489 6.13976 22.3583 6.15043 22.7209 6.16109C23.0836 6.17176 23.4516 6.17709 23.8249 6.17709C24.2303 6.17709 24.6036 6.17176 24.9449 6.16109C25.2863 6.15043 25.5636 6.13976 25.7769 6.12909L25.7129 6.44909C25.3716 6.47042 25.1316 6.56643 24.9929 6.73709C24.8543 6.89709 24.8063 7.24909 24.8489 7.79309L25.6969 15.1851L25.3289 15.5211L29.1209 9.23309L29.2489 9.63309ZM34.8489 8.52909C35.1369 7.97443 35.2863 7.55309 35.2969 7.26509C35.3076 6.97709 35.2009 6.77443 34.9769 6.65709C34.7529 6.53976 34.4276 6.47042 34.0009 6.44909L34.0809 6.12909C34.2409 6.13976 34.4383 6.15043 34.6729 6.16109C34.9183 6.16109 35.1636 6.16643 35.4089 6.17709C35.6649 6.17709 35.8889 6.17709 36.0809 6.17709C36.3369 6.17709 36.5556 6.17176 36.7369 6.16109C36.9289 6.15043 37.1103 6.13976 37.2809 6.12909L37.2009 6.44909C37.0089 6.50243 36.8169 6.57709 36.6249 6.67309C36.4436 6.76909 36.2516 6.92376 36.0489 7.13709C35.8569 7.35043 35.6596 7.65443 35.4569 8.04909L30.4809 17.5371H29.8569L28.4009 7.47309C28.3476 7.07843 28.2516 6.81176 28.1129 6.67309C27.9743 6.53443 27.8356 6.45976 27.6969 6.44909L27.7609 6.12909C27.9956 6.13976 28.2783 6.15043 28.6089 6.16109C28.9503 6.17176 29.2916 6.17709 29.6329 6.17709C30.1129 6.17709 30.5556 6.17176 30.9609 6.16109C31.3769 6.15043 31.7129 6.13976 31.9689 6.12909L31.9049 6.44909C31.3716 6.47042 31.0143 6.56109 30.8329 6.72109C30.6516 6.88109 30.5929 7.23843 30.6569 7.79309L31.6649 14.9611L31.2969 15.2811L34.8489 8.52909ZM37.4229 17.4571H35.4549L37.3749 10.5611C37.4709 10.2411 37.5029 10.0171 37.4709 9.88909C37.4389 9.76109 37.3429 9.69709 37.1829 9.69709C36.9803 9.69709 36.7936 9.79843 36.6229 10.0011C36.4523 10.2038 36.2763 10.5611 36.0949 11.0731L35.8229 11.8251H35.5189L35.9349 10.6251C36.0843 10.1984 36.2709 9.86776 36.4949 9.63309C36.7189 9.38776 36.9643 9.21709 37.2309 9.12109C37.4976 9.02509 37.7696 8.97709 38.0469 8.97709C38.3883 8.97709 38.6389 9.04643 38.7989 9.18509C38.9696 9.32376 39.0763 9.50509 39.1189 9.72909C39.1723 9.95309 39.1829 10.1984 39.1509 10.4651C39.1296 10.7211 39.0869 10.9718 39.0229 11.2171L37.4229 17.4571ZM41.5189 9.34509C41.2843 9.34509 41.0443 9.43043 40.7989 9.60109C40.5536 9.76109 40.2976 10.0224 40.0309 10.3851C39.7643 10.7478 39.4923 11.2278 39.2149 11.8251C38.9483 12.4118 38.6709 13.1318 38.3829 13.9851C38.0949 14.8278 37.8069 15.8251 37.5189 16.9771L37.9029 14.8491C38.2336 13.7291 38.5429 12.7958 38.8309 12.0491C39.1296 11.2918 39.4176 10.6891 39.6949 10.2411C39.9829 9.78243 40.2869 9.45709 40.6069 9.26509C40.9269 9.07309 41.2736 8.97709 41.6469 8.97709C42.0309 8.97709 42.3243 9.08909 42.5269 9.31309C42.7403 9.53709 42.8469 9.81443 42.8469 10.1451C42.8469 10.4118 42.7829 10.6624 42.6549 10.8971C42.5269 11.1211 42.3563 11.3024 42.1429 11.4411C41.9403 11.5691 41.7056 11.6331 41.4389 11.6331C41.1723 11.6331 40.9589 11.5638 40.7989 11.4251C40.6496 11.2864 40.5749 11.0838 40.5749 10.8171C40.5749 10.5824 40.6283 10.3691 40.7349 10.1771C40.8416 9.98509 40.9803 9.82509 41.1509 9.69709C41.3216 9.55843 41.5083 9.46243 41.7109 9.40909C41.6896 9.38776 41.6629 9.37176 41.6309 9.36109C41.5989 9.35043 41.5616 9.34509 41.5189 9.34509ZM44.7102 16.9451C44.9022 16.9451 45.1209 16.8331 45.3662 16.6091C45.6115 16.3744 45.8622 16.0491 46.1182 15.6331C46.3742 15.2171 46.6195 14.7211 46.8542 14.1451C47.0889 13.5691 47.2915 12.9398 47.4622 12.2571L47.1262 13.9851C46.8169 14.8918 46.4862 15.6171 46.1342 16.1611C45.7929 16.7051 45.4302 17.0944 45.0462 17.3291C44.6729 17.5638 44.2835 17.6811 43.8782 17.6811C43.3022 17.6811 42.8755 17.5051 42.5982 17.1531C42.3209 16.7904 42.1822 16.3104 42.1822 15.7131C42.1822 15.1584 42.2729 14.5771 42.4542 13.9691C42.6355 13.3504 42.8862 12.7478 43.2062 12.1611C43.5369 11.5638 43.9102 11.0304 44.3262 10.5611C44.7422 10.0811 45.1849 9.69709 45.6542 9.40909C46.1235 9.12109 46.5929 8.97709 47.0622 8.97709C47.4249 8.97709 47.7022 9.13176 47.8942 9.44109C48.0862 9.73976 48.1342 10.1984 48.0382 10.8171L47.8622 10.9131C47.9369 10.4651 47.9155 10.1131 47.7982 9.85709C47.6915 9.60109 47.5102 9.47309 47.2542 9.47309C47.0089 9.47309 46.7475 9.60109 46.4702 9.85709C46.2035 10.1131 45.9369 10.4598 45.6702 10.8971C45.4035 11.3344 45.1582 11.8304 44.9342 12.3851C44.7209 12.9398 44.5502 13.5158 44.4222 14.1131C44.2942 14.7104 44.2302 15.2918 44.2302 15.8571C44.2302 16.2518 44.2675 16.5344 44.3422 16.7051C44.4275 16.8651 44.5502 16.9451 44.7102 16.9451ZM48.3102 9.20109C48.6942 9.19043 49.0515 9.16909 49.3822 9.13709C49.7235 9.10509 50.0489 9.05176 50.3582 8.97709L48.2942 16.0811C48.2515 16.2091 48.2195 16.3424 48.1982 16.4811C48.1875 16.6091 48.1982 16.7211 48.2302 16.8171C48.2729 16.9024 48.3635 16.9451 48.5022 16.9451C48.6729 16.9451 48.8489 16.8544 49.0302 16.6731C49.2115 16.4918 49.3982 16.1238 49.5902 15.5691L49.8302 14.8491H50.1342L49.7342 16.0171C49.5849 16.4544 49.3982 16.7958 49.1742 17.0411C48.9502 17.2758 48.7102 17.4411 48.4542 17.5371C48.2089 17.6331 47.9635 17.6811 47.7182 17.6811C47.2062 17.6811 46.8435 17.5211 46.6302 17.2011C46.4915 16.9664 46.4382 16.6784 46.4702 16.3371C46.5022 15.9958 46.5715 15.6278 46.6782 15.2331L48.3102 9.20109ZM56.9002 9.71309C56.6655 9.71309 56.4042 9.86776 56.1162 10.1771C55.8389 10.4864 55.5562 10.9131 55.2682 11.4571C54.9802 11.9904 54.7082 12.5931 54.4522 13.2651C54.2069 13.9371 53.9935 14.6411 53.8122 15.3771L54.1162 13.7131C54.4895 12.5824 54.8629 11.6704 55.2362 10.9771C55.6095 10.2838 55.9935 9.77709 56.3882 9.45709C56.7829 9.13709 57.2042 8.97709 57.6522 8.97709C58.2495 8.97709 58.7082 9.17976 59.0282 9.58509C59.3589 9.99043 59.5242 10.5878 59.5242 11.3771C59.5242 11.8678 59.4549 12.3958 59.3162 12.9611C59.1775 13.5264 58.9749 14.0864 58.7082 14.6411C58.4522 15.1958 58.1322 15.7078 57.7482 16.1771C57.3642 16.6358 56.9215 17.0038 56.4202 17.2811C55.9295 17.5478 55.3802 17.6811 54.7722 17.6811C54.4309 17.6811 54.1269 17.6064 53.8602 17.4571C53.5935 17.3078 53.3962 17.0998 53.2682 16.8331L53.3962 16.5611C53.5242 16.8064 53.6629 16.9824 53.8122 17.0891C53.9615 17.1958 54.1375 17.2491 54.3402 17.2491C54.6709 17.2491 54.9909 17.1211 55.3002 16.8651C55.6202 16.5984 55.9082 16.2464 56.1642 15.8091C56.4309 15.3611 56.6655 14.8651 56.8682 14.3211C57.0709 13.7771 57.2255 13.2224 57.3322 12.6571C57.4495 12.0918 57.5082 11.5638 57.5082 11.0731C57.5082 10.5611 57.4549 10.2091 57.3482 10.0171C57.2415 9.81443 57.0922 9.71309 56.9002 9.71309ZM54.2922 6.88109C54.6655 6.84909 55.0229 6.80643 55.3642 6.75309C55.7162 6.68909 56.0469 6.60376 56.3562 6.49709L52.8842 18.7371C52.7349 19.2491 52.7775 19.5904 53.0122 19.7611C53.2469 19.9318 53.6255 20.0171 54.1482 20.0171L54.0522 20.3531C53.8069 20.3424 53.4655 20.3264 53.0282 20.3051C52.5909 20.2944 52.1322 20.2891 51.6522 20.2891C51.2575 20.2891 50.8575 20.2944 50.4522 20.3051C50.0469 20.3264 49.7482 20.3424 49.5562 20.3531L49.6522 20.0171C50.0362 20.0171 50.3135 19.9424 50.4842 19.7931C50.6549 19.6544 50.7935 19.3984 50.9002 19.0251L54.2922 6.88109ZM51.1082 11.8091C51.5135 11.4038 51.8869 10.9984 52.2282 10.5931C52.5802 10.1771 52.9215 9.69176 53.2522 9.13709C53.5829 8.57176 53.9135 7.86243 54.2442 7.00909L54.2922 7.26509C54.0682 8.00109 53.8015 8.65176 53.4922 9.21709C53.1829 9.77176 52.8415 10.2731 52.4682 10.7211C52.1055 11.1691 51.7109 11.6011 51.2842 12.0171L51.1082 11.8091ZM60.5521 16.6571C60.7867 16.5291 61.0107 16.3958 61.2241 16.2571C61.4481 16.1184 61.6561 15.9958 61.8481 15.8891C62.0507 15.7718 62.2427 15.6758 62.4241 15.6011C62.6054 15.5264 62.7867 15.4891 62.9681 15.4891C63.2241 15.4891 63.4481 15.5318 63.6401 15.6171C63.8321 15.7024 64.0187 15.7878 64.2001 15.8731C64.3814 15.9584 64.5894 16.0011 64.8241 16.0011C65.0481 16.0011 65.2187 15.9424 65.3361 15.8251C65.4534 15.7078 65.5121 15.5531 65.5121 15.3611C65.5121 15.0944 65.4107 14.8811 65.2081 14.7211C65.0054 14.5504 64.7601 14.4331 64.4721 14.3691L64.5681 14.1291C65.1121 14.2464 65.5174 14.4438 65.7841 14.7211C66.0614 14.9984 66.2001 15.3504 66.2001 15.7771C66.2001 16.0971 66.1307 16.4011 65.9921 16.6891C65.8641 16.9664 65.6561 17.1904 65.3681 17.3611C65.0801 17.5211 64.7067 17.6011 64.2481 17.6011C63.9281 17.6011 63.6507 17.5584 63.4161 17.4731C63.1814 17.3984 62.9574 17.3078 62.7441 17.2011C62.5307 17.0944 62.3014 17.0038 62.0561 16.9291C61.8107 16.8438 61.5227 16.8011 61.1921 16.8011C60.9147 16.8011 60.6587 16.8491 60.4241 16.9451C60.2001 17.0304 59.9761 17.2011 59.7521 17.4571H59.2881L66.8721 9.95309C66.6161 10.0811 66.3654 10.2198 66.1201 10.3691C65.8854 10.5184 65.6614 10.6624 65.4481 10.8011C65.2347 10.9291 65.0267 11.0358 64.8241 11.1211C64.6214 11.1958 64.4294 11.2331 64.2481 11.2331C63.9921 11.2331 63.7681 11.1904 63.5761 11.1051C63.3841 11.0198 63.1974 10.9344 63.0161 10.8491C62.8347 10.7638 62.6321 10.7211 62.4081 10.7211C62.1947 10.7211 62.0241 10.7798 61.8961 10.8971C61.7681 11.0038 61.7041 11.1584 61.7041 11.3611C61.7041 11.6064 61.8001 11.8144 61.9921 11.9851C62.1841 12.1451 62.4347 12.2678 62.7441 12.3531L62.6481 12.5931C62.1361 12.4758 61.7361 12.2838 61.4481 12.0171C61.1601 11.7504 61.0161 11.4038 61.0161 10.9771C61.0161 10.6571 61.0907 10.3531 61.2401 10.0651C61.3894 9.77709 61.6187 9.54243 61.9281 9.36109C62.2481 9.17976 62.6587 9.08909 63.1601 9.08909C63.4694 9.08909 63.7414 9.12643 63.9761 9.20109C64.2107 9.27576 64.4294 9.36643 64.6321 9.47309C64.8454 9.57976 65.0694 9.67043 65.3041 9.74509C65.5387 9.81976 65.8214 9.85709 66.1521 9.85709C66.4507 9.85709 66.7121 9.81443 66.9361 9.72909C67.1601 9.63309 67.3787 9.45709 67.5921 9.20109H68.0561L60.5521 16.6571ZM70.2646 6.44909C70.2966 6.05443 70.4566 5.73976 70.7446 5.50509C71.0326 5.27042 71.3686 5.15309 71.7526 5.15309C72.1046 5.15309 72.3712 5.25442 72.5526 5.45709C72.7446 5.64909 72.8246 5.89976 72.7926 6.20909C72.7606 6.57176 72.6006 6.87576 72.3126 7.12109C72.0246 7.36643 71.6886 7.48909 71.3046 7.48909C70.9526 7.48909 70.6806 7.39309 70.4886 7.20109C70.3072 6.99843 70.2326 6.74776 70.2646 6.44909ZM69.7046 10.5611C69.8966 9.98509 69.8326 9.69709 69.5126 9.69709C69.2992 9.69709 69.1072 9.80909 68.9366 10.0331C68.7659 10.2464 68.5846 10.5931 68.3926 11.0731L68.1206 11.8251H67.8166L68.2326 10.6251C68.3926 10.1984 68.5846 9.86776 68.8086 9.63309C69.0326 9.38776 69.2832 9.21709 69.5606 9.12109C69.8379 9.02509 70.1099 8.97709 70.3766 8.97709C70.7499 8.97709 71.0326 9.04643 71.2246 9.18509C71.4166 9.32376 71.5446 9.50509 71.6086 9.72909C71.6726 9.95309 71.6886 10.1984 71.6566 10.4651C71.6246 10.7211 71.5659 10.9718 71.4806 11.2171L69.7846 16.0971C69.6886 16.3851 69.6619 16.6038 69.7046 16.7531C69.7472 16.8918 69.8486 16.9611 70.0086 16.9611C70.1792 16.9611 70.3499 16.8704 70.5206 16.6891C70.7019 16.4971 70.8939 16.1291 71.0966 15.5851L71.3686 14.8651H71.6726L71.2726 16.0331C71.1126 16.4598 70.9206 16.7958 70.6966 17.0411C70.4726 17.2758 70.2272 17.4411 69.9606 17.5371C69.6939 17.6331 69.4326 17.6811 69.1766 17.6811C68.7072 17.6811 68.3659 17.5798 68.1526 17.3771C67.9392 17.1638 67.8326 16.8758 67.8326 16.5131C67.8326 16.1398 67.9179 15.7131 68.0886 15.2331L69.7046 10.5611ZM78.4471 9.71309C78.2124 9.71309 77.9511 9.86776 77.6631 10.1771C77.3857 10.4864 77.1031 10.9131 76.8151 11.4571C76.5271 11.9904 76.2551 12.5931 75.9991 13.2651C75.7537 13.9371 75.5404 14.6411 75.3591 15.3771L75.6631 13.7131C76.0364 12.5824 76.4097 11.6704 76.7831 10.9771C77.1564 10.2838 77.5404 9.77709 77.9351 9.45709C78.3297 9.13709 78.7511 8.97709 79.1991 8.97709C79.7964 8.97709 80.2551 9.17976 80.5751 9.58509C80.9057 9.99043 81.0711 10.5878 81.0711 11.3771C81.0711 11.8678 81.0017 12.3958 80.8631 12.9611C80.7244 13.5264 80.5217 14.0864 80.2551 14.6411C79.9991 15.1958 79.6791 15.7078 79.2951 16.1771C78.9111 16.6358 78.4684 17.0038 77.9671 17.2811C77.4764 17.5478 76.9271 17.6811 76.3191 17.6811C75.9777 17.6811 75.6737 17.6064 75.4071 17.4571C75.1404 17.3078 74.9431 17.0998 74.8151 16.8331L74.9431 16.5611C75.0711 16.8064 75.2097 16.9824 75.3591 17.0891C75.5084 17.1958 75.6844 17.2491 75.8871 17.2491C76.2177 17.2491 76.5377 17.1211 76.8471 16.8651C77.1671 16.5984 77.4551 16.2464 77.7111 15.8091C77.9777 15.3611 78.2124 14.8651 78.4151 14.3211C78.6177 13.7771 78.7724 13.2224 78.8791 12.6571C78.9964 12.0918 79.0551 11.5638 79.0551 11.0731C79.0551 10.5611 79.0017 10.2091 78.8951 10.0171C78.7884 9.81443 78.6391 9.71309 78.4471 9.71309ZM75.8391 6.88109C76.2124 6.84909 76.5697 6.80643 76.9111 6.75309C77.2631 6.68909 77.5937 6.60376 77.9031 6.49709L74.4311 18.7371C74.2817 19.2491 74.3244 19.5904 74.5591 19.7611C74.7937 19.9318 75.1724 20.0171 75.6951 20.0171L75.5991 20.3531C75.3537 20.3424 75.0124 20.3264 74.5751 20.3051C74.1377 20.2944 73.6791 20.2891 73.1991 20.2891C72.8044 20.2891 72.4044 20.2944 71.9991 20.3051C71.5937 20.3264 71.2951 20.3424 71.1031 20.3531L71.1991 20.0171C71.5831 20.0171 71.8604 19.9424 72.0311 19.7931C72.2017 19.6544 72.3404 19.3984 72.4471 19.0251L75.8391 6.88109ZM72.6551 11.8091C73.0604 11.4038 73.4337 10.9984 73.7751 10.5931C74.1271 10.1771 74.4684 9.69176 74.7991 9.13709C75.1297 8.57176 75.4604 7.86243 75.7911 7.00909L75.8391 7.26509C75.6151 8.00109 75.3484 8.65176 75.0391 9.21709C74.7297 9.77176 74.3884 10.2731 74.0151 10.7211C73.6524 11.1691 73.2577 11.6011 72.8311 12.0171L72.6551 11.8091Z" fill="white"/>
</svg>
