<svg width="48" height="12" viewBox="0 0 48 12" fill="none" xmlns="http://www.w3.org/2000/svg">
<path d="M5.672 3.52934L2.096 9.45734H1.628L0.68 1.90934C0.64 1.60534 0.552 1.40534 0.416 1.30934C0.28 1.20534 0.152 1.14934 0.032 1.14134L0.08 0.901339C0.272 0.909339 0.504 0.917339 0.776 0.925339C1.048 0.933338 1.324 0.937338 1.604 0.937338C1.908 0.937338 2.188 0.933338 2.444 0.925339C2.7 0.917339 2.908 0.909339 3.068 0.901339L3.02 1.14134C2.764 1.15734 2.584 1.22934 2.48 1.35734C2.376 1.47734 2.34 1.74134 2.372 2.14934L3.008 7.69334L2.732 7.94534L5.576 3.22934L5.672 3.52934ZM9.872 2.70134C10.088 2.28534 10.2 1.96934 10.208 1.75334C10.216 1.53734 10.136 1.38534 9.968 1.29734C9.8 1.20934 9.556 1.15734 9.236 1.14134L9.296 0.901339C9.416 0.909339 9.564 0.917339 9.74 0.925339C9.924 0.925339 10.108 0.929338 10.292 0.937338C10.484 0.937338 10.652 0.937338 10.796 0.937338C10.988 0.937338 11.152 0.933338 11.288 0.925339C11.432 0.917339 11.568 0.909339 11.696 0.901339L11.636 1.14134C11.492 1.18134 11.348 1.23734 11.204 1.30934C11.068 1.38134 10.924 1.49734 10.772 1.65734C10.628 1.81734 10.48 2.04534 10.328 2.34134L6.596 9.45734H6.128L5.036 1.90934C4.996 1.61334 4.924 1.41334 4.82 1.30934C4.716 1.20534 4.612 1.14934 4.508 1.14134L4.556 0.901339C4.732 0.909339 4.944 0.917339 5.192 0.925339C5.448 0.933338 5.704 0.937338 5.96 0.937338C6.32 0.937338 6.652 0.933338 6.956 0.925339C7.268 0.917339 7.52 0.909339 7.712 0.901339L7.664 1.14134C7.264 1.15734 6.996 1.22534 6.86 1.34534C6.724 1.46534 6.68 1.73334 6.728 2.14934L7.484 7.52534L7.208 7.76534L9.872 2.70134ZM11.7908 9.39734H10.3148L11.7548 4.22534C11.8268 3.98534 11.8508 3.81734 11.8268 3.72134C11.8028 3.62534 11.7308 3.57734 11.6108 3.57734C11.4588 3.57734 11.3188 3.65334 11.1908 3.80534C11.0628 3.95734 10.9308 4.22534 10.7948 4.60934L10.5908 5.17334H10.3628L10.6748 4.27334C10.7868 3.95334 10.9268 3.70534 11.0948 3.52934C11.2628 3.34534 11.4468 3.21734 11.6468 3.14534C11.8468 3.07334 12.0508 3.03734 12.2588 3.03734C12.5148 3.03734 12.7028 3.08934 12.8228 3.19334C12.9508 3.29734 13.0308 3.43334 13.0628 3.60134C13.1028 3.76934 13.1108 3.95334 13.0868 4.15334C13.0708 4.34534 13.0388 4.53334 12.9908 4.71734L11.7908 9.39734ZM14.8628 3.31334C14.6868 3.31334 14.5068 3.37734 14.3228 3.50534C14.1388 3.62534 13.9468 3.82134 13.7468 4.09334C13.5468 4.36534 13.3428 4.72534 13.1348 5.17334C12.9348 5.61334 12.7268 6.15334 12.5108 6.79334C12.2948 7.42534 12.0788 8.17334 11.8628 9.03734L12.1508 7.44134C12.3988 6.60134 12.6308 5.90134 12.8468 5.34134C13.0708 4.77334 13.2868 4.32134 13.4948 3.98534C13.7108 3.64134 13.9388 3.39734 14.1788 3.25334C14.4188 3.10934 14.6788 3.03734 14.9588 3.03734C15.2468 3.03734 15.4668 3.12134 15.6188 3.28934C15.7788 3.45734 15.8588 3.66534 15.8588 3.91334C15.8588 4.11334 15.8108 4.30134 15.7148 4.47734C15.6188 4.64534 15.4908 4.78134 15.3308 4.88534C15.1788 4.98134 15.0028 5.02934 14.8028 5.02934C14.6028 5.02934 14.4428 4.97734 14.3228 4.87334C14.2108 4.76934 14.1548 4.61734 14.1548 4.41734C14.1548 4.24134 14.1948 4.08134 14.2748 3.93734C14.3548 3.79334 14.4588 3.67334 14.5868 3.57734C14.7148 3.47334 14.8548 3.40134 15.0068 3.36134C14.9908 3.34534 14.9708 3.33334 14.9468 3.32534C14.9228 3.31734 14.8948 3.31334 14.8628 3.31334ZM17.2562 9.01334C17.4002 9.01334 17.5642 8.92934 17.7482 8.76134C17.9322 8.58534 18.1202 8.34134 18.3122 8.02934C18.5042 7.71734 18.6882 7.34534 18.8642 6.91334C19.0402 6.48134 19.1922 6.00934 19.3202 5.49734L19.0682 6.79334C18.8362 7.47334 18.5882 8.01734 18.3242 8.42534C18.0682 8.83334 17.7962 9.12534 17.5082 9.30134C17.2282 9.47734 16.9362 9.56534 16.6322 9.56534C16.2002 9.56534 15.8802 9.43334 15.6722 9.16934C15.4642 8.89734 15.3602 8.53734 15.3602 8.08934C15.3602 7.67334 15.4282 7.23734 15.5642 6.78134C15.7002 6.31734 15.8882 5.86534 16.1282 5.42534C16.3762 4.97734 16.6562 4.57734 16.9682 4.22534C17.2802 3.86534 17.6122 3.57734 17.9642 3.36134C18.3162 3.14534 18.6682 3.03734 19.0202 3.03734C19.2922 3.03734 19.5002 3.15334 19.6442 3.38534C19.7882 3.60934 19.8242 3.95334 19.7522 4.41734L19.6202 4.48934C19.6762 4.15334 19.6602 3.88934 19.5722 3.69734C19.4922 3.50534 19.3562 3.40934 19.1642 3.40934C18.9802 3.40934 18.7842 3.50534 18.5762 3.69734C18.3762 3.88934 18.1762 4.14934 17.9762 4.47734C17.7762 4.80534 17.5922 5.17734 17.4242 5.59334C17.2642 6.00934 17.1362 6.44134 17.0402 6.88934C16.9442 7.33734 16.8962 7.77334 16.8962 8.19734C16.8962 8.49334 16.9242 8.70534 16.9802 8.83334C17.0442 8.95334 17.1362 9.01334 17.2562 9.01334ZM19.9562 3.20534C20.2442 3.19734 20.5122 3.18134 20.7602 3.15734C21.0162 3.13334 21.2602 3.09334 21.4922 3.03734L19.9442 8.36534C19.9122 8.46134 19.8882 8.56134 19.8722 8.66534C19.8642 8.76134 19.8722 8.84534 19.8962 8.91734C19.9282 8.98134 19.9962 9.01334 20.1002 9.01334C20.2282 9.01334 20.3602 8.94534 20.4962 8.80934C20.6322 8.67334 20.7722 8.39734 20.9162 7.98134L21.0962 7.44134H21.3242L21.0242 8.31734C20.9122 8.64534 20.7722 8.90134 20.6042 9.08534C20.4362 9.26134 20.2562 9.38534 20.0642 9.45734C19.8802 9.52934 19.6962 9.56534 19.5122 9.56534C19.1282 9.56534 18.8562 9.44534 18.6962 9.20534C18.5922 9.02934 18.5522 8.81334 18.5762 8.55734C18.6002 8.30134 18.6522 8.02534 18.7322 7.72934L19.9562 3.20534ZM26.3987 3.58934C26.2227 3.58934 26.0267 3.70534 25.8107 3.93734C25.6027 4.16934 25.3907 4.48934 25.1747 4.89734C24.9587 5.29734 24.7547 5.74934 24.5627 6.25334C24.3787 6.75734 24.2187 7.28534 24.0827 7.83734L24.3107 6.58934C24.5907 5.74134 24.8707 5.05734 25.1507 4.53734C25.4307 4.01734 25.7187 3.63734 26.0147 3.39734C26.3107 3.15734 26.6267 3.03734 26.9627 3.03734C27.4107 3.03734 27.7547 3.18934 27.9947 3.49334C28.2427 3.79734 28.3667 4.24534 28.3667 4.83734C28.3667 5.20534 28.3147 5.60134 28.2107 6.02534C28.1067 6.44934 27.9547 6.86934 27.7547 7.28534C27.5627 7.70134 27.3227 8.08534 27.0347 8.43734C26.7467 8.78134 26.4147 9.05734 26.0387 9.26534C25.6707 9.46534 25.2587 9.56534 24.8027 9.56534C24.5467 9.56534 24.3187 9.50934 24.1187 9.39734C23.9187 9.28534 23.7707 9.12934 23.6747 8.92934L23.7707 8.72534C23.8667 8.90934 23.9707 9.04134 24.0827 9.12134C24.1947 9.20134 24.3267 9.24134 24.4787 9.24134C24.7267 9.24134 24.9667 9.14534 25.1987 8.95334C25.4387 8.75334 25.6547 8.48934 25.8467 8.16134C26.0467 7.82534 26.2227 7.45334 26.3747 7.04534C26.5267 6.63734 26.6427 6.22134 26.7227 5.79734C26.8107 5.37334 26.8547 4.97734 26.8547 4.60934C26.8547 4.22534 26.8147 3.96134 26.7347 3.81734C26.6547 3.66534 26.5427 3.58934 26.3987 3.58934ZM24.4427 1.46534C24.7227 1.44134 24.9907 1.40934 25.2467 1.36934C25.5107 1.32134 25.7587 1.25734 25.9907 1.17734L23.3867 10.3573C23.2747 10.7413 23.3067 10.9973 23.4827 11.1253C23.6587 11.2533 23.9427 11.3173 24.3347 11.3173L24.2627 11.5693C24.0787 11.5613 23.8227 11.5493 23.4947 11.5333C23.1667 11.5253 22.8227 11.5213 22.4627 11.5213C22.1667 11.5213 21.8667 11.5253 21.5627 11.5333C21.2587 11.5493 21.0347 11.5613 20.8907 11.5693L20.9627 11.3173C21.2507 11.3173 21.4587 11.2613 21.5867 11.1493C21.7147 11.0453 21.8187 10.8533 21.8987 10.5733L24.4427 1.46534ZM22.0547 5.16134C22.3587 4.85734 22.6387 4.55334 22.8947 4.24934C23.1587 3.93734 23.4147 3.57334 23.6627 3.15734C23.9107 2.73334 24.1587 2.20134 24.4067 1.56134L24.4427 1.75334C24.2747 2.30534 24.0747 2.79334 23.8427 3.21734C23.6107 3.63334 23.3547 4.00934 23.0747 4.34534C22.8027 4.68134 22.5067 5.00534 22.1867 5.31734L22.0547 5.16134Z" fill="#ED147C"/>
<path d="M30.6976 5.24534L30.7816 5.00534H35.0176L34.9216 5.24534H30.6976ZM34.1536 6.88934C34.1536 6.88934 34.1616 6.84934 34.1776 6.76934C34.1936 6.68934 34.2016 6.64934 34.2016 6.64934C34.4416 6.68134 34.6736 6.75334 34.8976 6.86534C35.1216 6.96934 35.3056 7.11734 35.4496 7.30934C35.5936 7.49334 35.6656 7.73734 35.6656 8.04134C35.6656 8.48134 35.5176 8.84534 35.2216 9.13334C34.9256 9.42134 34.5256 9.56534 34.0216 9.56534C33.6936 9.56534 33.4056 9.50934 33.1576 9.39734C32.9176 9.28534 32.6856 9.15334 32.4616 9.00134C32.2456 8.84134 32.0176 8.70534 31.7776 8.59334C31.5376 8.48134 31.2576 8.42534 30.9376 8.42534C30.6656 8.42534 30.4216 8.46134 30.2056 8.53334C29.9976 8.60534 29.7616 8.70134 29.4976 8.82134C29.3216 9.07734 29.1296 9.27334 28.9216 9.40934C28.7136 9.54534 28.5536 9.56134 28.4416 9.45734C28.3456 9.36934 28.3536 9.23734 28.4656 9.06134C28.5776 8.88534 28.8456 8.71734 29.2696 8.55734L36.2296 1.71734C35.8616 2.00534 35.4816 2.23334 35.0896 2.40134C34.6976 2.56934 34.3056 2.65334 33.9136 2.65334C33.6336 2.65334 33.3856 2.62534 33.1696 2.56934C32.9536 2.50534 32.7496 2.43734 32.5576 2.36534C32.3736 2.29334 32.1856 2.22934 31.9936 2.17334C31.8096 2.10934 31.6096 2.07734 31.3936 2.07734C31.1936 2.07734 31.0376 2.12934 30.9256 2.23334C30.8216 2.32934 30.7696 2.47334 30.7696 2.66534C30.7696 2.84934 30.8416 3.00534 30.9856 3.13334C31.1296 3.26134 31.3456 3.35334 31.6336 3.40934C31.6336 3.40934 31.6256 3.44934 31.6096 3.52934C31.5936 3.60934 31.5856 3.64934 31.5856 3.64934C31.3536 3.60934 31.1216 3.53734 30.8896 3.43334C30.6656 3.32934 30.4816 3.18134 30.3376 2.98934C30.1936 2.79734 30.1216 2.55334 30.1216 2.25734C30.1216 1.81734 30.2696 1.45334 30.5656 1.16534C30.8616 0.877338 31.2616 0.733338 31.7656 0.733338C32.0936 0.733338 32.3776 0.789338 32.6176 0.901339C32.8656 1.01334 33.0976 1.14934 33.3136 1.30934C33.5376 1.46134 33.7696 1.59334 34.0096 1.70534C34.2496 1.81734 34.5296 1.87334 34.8496 1.87334C35.1216 1.87334 35.3656 1.83734 35.5816 1.76534C35.7976 1.69334 36.0336 1.59734 36.2896 1.47734C36.4736 1.22134 36.6656 1.02534 36.8656 0.889338C37.0656 0.753339 37.2256 0.737339 37.3456 0.841338C37.4416 0.921339 37.4336 1.05334 37.3216 1.23734C37.2096 1.41334 36.9416 1.58134 36.5176 1.74134L29.5576 8.58134C29.9256 8.29334 30.3056 8.06534 30.6976 7.89734C31.0976 7.72934 31.4896 7.64534 31.8736 7.64534C32.1536 7.64534 32.4016 7.67734 32.6176 7.74134C32.8336 7.79734 33.0336 7.86134 33.2176 7.93334C33.4096 8.00534 33.5976 8.07334 33.7816 8.13734C33.9736 8.19334 34.1776 8.22134 34.3936 8.22134C34.6016 8.22134 34.7576 8.17334 34.8616 8.07734C34.9656 7.97334 35.0176 7.82534 35.0176 7.63334C35.0176 7.44934 34.9456 7.29334 34.8016 7.16534C34.6656 7.03734 34.4496 6.94534 34.1536 6.88934ZM38.9181 1.14134C38.9421 0.845339 39.0621 0.609339 39.2781 0.433338C39.4941 0.257338 39.7461 0.169338 40.0341 0.169338C40.2981 0.169338 40.4981 0.245338 40.6341 0.397338C40.7781 0.541338 40.8381 0.729338 40.8141 0.961339C40.7901 1.23334 40.6701 1.46134 40.4541 1.64534C40.2381 1.82934 39.9861 1.92134 39.6981 1.92134C39.4341 1.92134 39.2301 1.84934 39.0861 1.70534C38.9501 1.55334 38.8941 1.36534 38.9181 1.14134ZM38.4981 4.22534C38.6421 3.79334 38.5941 3.57734 38.3541 3.57734C38.1941 3.57734 38.0501 3.66134 37.9221 3.82934C37.7941 3.98934 37.6581 4.24934 37.5141 4.60934L37.3101 5.17334H37.0821L37.3941 4.27334C37.5141 3.95334 37.6581 3.70534 37.8261 3.52934C37.9941 3.34534 38.1821 3.21734 38.3901 3.14534C38.5981 3.07334 38.8021 3.03734 39.0021 3.03734C39.2821 3.03734 39.4941 3.08934 39.6381 3.19334C39.7821 3.29734 39.8781 3.43334 39.9261 3.60134C39.9741 3.76934 39.9861 3.95334 39.9621 4.15334C39.9381 4.34534 39.8941 4.53334 39.8301 4.71734L38.5581 8.37734C38.4861 8.59334 38.4661 8.75734 38.4981 8.86934C38.5301 8.97334 38.6061 9.02534 38.7261 9.02534C38.8541 9.02534 38.9821 8.95734 39.1101 8.82134C39.2461 8.67734 39.3901 8.40134 39.5421 7.99334L39.7461 7.45334H39.9741L39.6741 8.32934C39.5541 8.64934 39.4101 8.90134 39.2421 9.08534C39.0741 9.26134 38.8901 9.38534 38.6901 9.45734C38.4901 9.52934 38.2941 9.56534 38.1021 9.56534C37.7501 9.56534 37.4941 9.48934 37.3341 9.33734C37.1741 9.17734 37.0941 8.96134 37.0941 8.68934C37.0941 8.40934 37.1581 8.08934 37.2861 7.72934L38.4981 4.22534ZM45.055 3.58934C44.879 3.58934 44.683 3.70534 44.467 3.93734C44.259 4.16934 44.047 4.48934 43.831 4.89734C43.615 5.29734 43.411 5.74934 43.219 6.25334C43.035 6.75734 42.875 7.28534 42.739 7.83734L42.967 6.58934C43.247 5.74134 43.527 5.05734 43.807 4.53734C44.087 4.01734 44.375 3.63734 44.671 3.39734C44.967 3.15734 45.283 3.03734 45.619 3.03734C46.067 3.03734 46.411 3.18934 46.651 3.49334C46.899 3.79734 47.023 4.24534 47.023 4.83734C47.023 5.20534 46.971 5.60134 46.867 6.02534C46.763 6.44934 46.611 6.86934 46.411 7.28534C46.219 7.70134 45.979 8.08534 45.691 8.43734C45.403 8.78134 45.071 9.05734 44.695 9.26534C44.327 9.46534 43.915 9.56534 43.459 9.56534C43.203 9.56534 42.975 9.50934 42.775 9.39734C42.575 9.28534 42.427 9.12934 42.331 8.92934L42.427 8.72534C42.523 8.90934 42.627 9.04134 42.739 9.12134C42.851 9.20134 42.983 9.24134 43.135 9.24134C43.383 9.24134 43.623 9.14534 43.855 8.95334C44.095 8.75334 44.311 8.48934 44.503 8.16134C44.703 7.82534 44.879 7.45334 45.031 7.04534C45.183 6.63734 45.299 6.22134 45.379 5.79734C45.467 5.37334 45.511 4.97734 45.511 4.60934C45.511 4.22534 45.471 3.96134 45.391 3.81734C45.311 3.66534 45.199 3.58934 45.055 3.58934ZM43.099 1.46534C43.379 1.44134 43.647 1.40934 43.903 1.36934C44.167 1.32134 44.415 1.25734 44.647 1.17734L42.043 10.3573C41.931 10.7413 41.963 10.9973 42.139 11.1253C42.315 11.2533 42.599 11.3173 42.991 11.3173L42.919 11.5693C42.735 11.5613 42.479 11.5493 42.151 11.5333C41.823 11.5253 41.479 11.5213 41.119 11.5213C40.823 11.5213 40.523 11.5253 40.219 11.5333C39.915 11.5493 39.691 11.5613 39.547 11.5693L39.619 11.3173C39.907 11.3173 40.115 11.2613 40.243 11.1493C40.371 11.0453 40.475 10.8533 40.555 10.5733L43.099 1.46534ZM40.711 5.16134C41.015 4.85734 41.295 4.55334 41.551 4.24934C41.815 3.93734 42.071 3.57334 42.319 3.15734C42.567 2.73334 42.815 2.20134 43.063 1.56134L43.099 1.75334C42.931 2.30534 42.731 2.79334 42.499 3.21734C42.267 3.63334 42.011 4.00934 41.731 4.34534C41.459 4.68134 41.163 5.00534 40.843 5.31734L40.711 5.16134Z" fill="#A9005B"/>
</svg>
