<svg width="31" height="38" viewBox="0 0 31 38" fill="none" xmlns="http://www.w3.org/2000/svg">
<path fill-rule="evenodd" clip-rule="evenodd" d="M0.174622 15.9747L1.02779 22.3286L9.27339 19.7818C9.27339 19.7818 8.89468 18.3878 8.41898 17.2526C8.01861 16.2971 7.57526 15.5327 7.58997 15.5126C7.62208 15.4683 0.174622 15.9747 0.174622 15.9747Z" fill="#A9005B"/>
<path fill-rule="evenodd" clip-rule="evenodd" d="M15.3072 25.0475L25.3436 23.1055L25.8094 14.6465L17.4048 15.1175C16.0985 18.3292 15.3993 21.6392 15.3072 25.0475Z" fill="#ED147C"/>
<path fill-rule="evenodd" clip-rule="evenodd" d="M2.82932 37.1229L2.43539 33.4685L11.7527 33.3038C12.0151 34.5653 12.117 35.916 11.9694 37.4052L2.82932 37.1229Z" fill="#DF0075"/>
<path fill-rule="evenodd" clip-rule="evenodd" d="M24.331 37.8119L15.0154 37.54C14.6691 33.8312 14.7773 30.0947 15.0777 26.4564L25.1948 25.6473L24.331 37.8119Z" fill="#A9005B"/>
<path fill-rule="evenodd" clip-rule="evenodd" d="M2.23203 31.9136L1.30209 24.3385L9.57011 21.3078C10.5176 24.4426 11.0854 27.7805 11.4215 31.2325L2.23203 31.9136Z" fill="#ED147C"/>
<path fill-rule="evenodd" clip-rule="evenodd" d="M8.46252 15.6171L8.73437 16.4208L9.95772 16.1884C9.95772 16.1884 10.2485 16.0248 10.1663 15.7072C10.0842 15.3896 9.74533 15.3921 9.74533 15.3921L8.46252 15.6171Z" fill="#EF0A71"/>
<path fill-rule="evenodd" clip-rule="evenodd" d="M9.12802 17.5085L9.34384 18.2913L10.5618 18.0905C10.5618 18.0905 10.9229 17.8985 10.8477 17.6532C10.7726 17.4078 10.6058 17.223 10.2914 17.2658C9.977 17.3087 9.12802 17.5085 9.12802 17.5085Z" fill="#EF0A71"/>
<path fill-rule="evenodd" clip-rule="evenodd" d="M9.80447 19.4568L10.0187 20.2893L11.2427 20.0039C11.2427 20.0039 11.4838 19.8563 11.4363 19.5734C11.3888 19.2905 11.1991 19.1671 11.0373 19.1794C10.8756 19.1919 9.80447 19.4568 9.80447 19.4568Z" fill="#EF0A71"/>
<path fill-rule="evenodd" clip-rule="evenodd" d="M10.4432 22.2378L10.2723 21.4506L11.5514 21.168C11.5514 21.168 11.9196 21.1862 11.9603 21.531C12.0011 21.8757 11.6545 21.9871 11.6545 21.9871L10.4432 22.2378Z" fill="#EF0A71"/>
<path fill-rule="evenodd" clip-rule="evenodd" d="M10.8763 24.0022L10.7411 23.1847L11.8065 23.0451C11.8065 23.0451 12.3528 22.9909 12.4247 23.3964C12.4921 23.7767 11.93 23.8462 11.93 23.8462L10.8763 24.0022Z" fill="#EF0A71"/>
<path fill-rule="evenodd" clip-rule="evenodd" d="M11.1374 25.1412L11.2572 25.9302L12.4049 25.7436C12.4049 25.7436 12.8431 25.6038 12.771 25.2828C12.6989 24.9619 12.2598 24.9792 12.2598 24.9792L11.1374 25.1412Z" fill="#EF0A71"/>
<path fill-rule="evenodd" clip-rule="evenodd" d="M16.1734 16.5218L15.9591 17.3241L14.775 17.0929C14.775 17.0929 14.3747 16.9603 14.4263 16.6688C14.478 16.3773 14.5691 16.3333 14.8183 16.3226C15.0674 16.3119 16.1734 16.5218 16.1734 16.5218Z" fill="#EF0A71"/>
<path fill-rule="evenodd" clip-rule="evenodd" d="M13.829 18.764C13.829 18.764 13.8715 18.4127 14.1812 18.398C14.4909 18.3835 15.5394 18.5334 15.5394 18.5334L15.4442 19.3242L14.3255 19.2089C14.3255 19.2089 13.9419 19.1727 13.829 18.764Z" fill="#EF0A71"/>
<path fill-rule="evenodd" clip-rule="evenodd" d="M15.0908 21.2226L15.1597 20.4305L13.7067 20.3963C13.7067 20.3963 13.4957 20.3825 13.4301 20.7252C13.3645 21.0679 13.6575 21.1289 13.6575 21.1289L15.0908 21.2226Z" fill="#EF0A71"/>
<path fill-rule="evenodd" clip-rule="evenodd" d="M14.9735 22.2579L14.8513 23.0852L13.5635 23.0789C13.5635 23.0789 13.2227 23.0324 13.1651 22.6618C13.1097 22.3061 13.3137 22.1649 13.639 22.182C13.8212 22.1915 14.9735 22.2579 14.9735 22.2579Z" fill="#EF0A71"/>
<path fill-rule="evenodd" clip-rule="evenodd" d="M14.6236 25.0319L14.6468 24.2313L13.4214 24.2137C13.4214 24.2137 12.989 24.2849 12.975 24.5333C12.9611 24.7818 13.2484 25.0233 13.3638 25.025C13.4792 25.0266 14.6236 25.0319 14.6236 25.0319Z" fill="#EF0A71"/>
<path fill-rule="evenodd" clip-rule="evenodd" d="M14.4952 25.9945L14.498 26.7049L13.5398 26.7559C13.5398 26.7559 13.0236 26.7179 13.0185 26.3371C13.0132 25.942 13.382 25.9368 13.382 25.9368L14.4952 25.9945Z" fill="#EF0A71"/>
<path fill-rule="evenodd" clip-rule="evenodd" d="M14.3051 30.643C14.3051 30.643 14.2883 29.984 14.3079 29.9371C14.3274 29.8902 13.4076 29.8967 13.4076 29.8967C13.4076 29.8967 12.95 29.9379 12.9709 30.2285C12.9918 30.5193 13.3459 30.5518 13.3459 30.5518L14.3051 30.643Z" fill="#EF0A71"/>
<path fill-rule="evenodd" clip-rule="evenodd" d="M14.2517 32.6145L14.2275 31.8605L13.1129 31.8392C13.1129 31.8392 12.7527 31.8627 12.7551 32.2244C12.7575 32.586 13.062 32.6147 13.1694 32.6193C13.2769 32.6239 14.2517 32.6145 14.2517 32.6145Z" fill="#EF0A71"/>
<path fill-rule="evenodd" clip-rule="evenodd" d="M14.2029 34.4894L14.206 33.7043L13.3182 33.7703C13.3182 33.7703 12.9351 33.8253 12.9729 34.1743C13.0107 34.5232 13.1778 34.5512 13.3116 34.5564C13.4453 34.5617 14.2029 34.4894 14.2029 34.4894Z" fill="#EF0A71"/>
<path fill-rule="evenodd" clip-rule="evenodd" d="M12.3766 34.7723C12.3766 34.7723 12.3909 35.4603 12.3899 35.4452C12.3888 35.4302 13.1466 35.4069 13.1466 35.4069C13.1466 35.4069 13.5565 35.3401 13.5443 35.0386C13.5316 34.7261 13.119 34.7305 12.9775 34.7298C12.8352 34.7291 12.3766 34.7723 12.3766 34.7723Z" fill="#EF0A71"/>
<path fill-rule="evenodd" clip-rule="evenodd" d="M14.2792 35.6644L14.2588 36.4503L13.3972 36.4023C13.3972 36.4023 12.9836 36.3837 12.9779 36.1225C12.9721 35.8612 13.0551 35.7028 13.3123 35.6854C13.5695 35.6679 14.2792 35.6644 14.2792 35.6644Z" fill="#EF0A71"/>
<path fill-rule="evenodd" clip-rule="evenodd" d="M12.3839 36.7147L12.3935 37.2731C12.3935 37.2731 13.3295 37.2652 13.3532 37.2436C13.3768 37.2219 13.6573 37.2636 13.6532 37.0775C13.6491 36.8914 13.581 36.7076 13.4456 36.6897C13.3102 36.6718 12.3839 36.7147 12.3839 36.7147Z" fill="#EF0A71"/>
<path fill-rule="evenodd" clip-rule="evenodd" d="M11.9654 32.8802L12.9507 32.8769C12.9507 32.8769 13.3587 32.879 13.3794 33.2166C13.4022 33.5906 13.003 33.6432 13.003 33.6432L12.0701 33.6576L11.9654 32.8802Z" fill="#EF0A71"/>
<path fill-rule="evenodd" clip-rule="evenodd" d="M16.883 14.8486L16.5336 15.6337L15.4658 15.501C15.4658 15.501 15.0522 15.4291 15.089 15.0563C15.1187 14.7553 15.3791 14.7249 15.5529 14.7454L16.883 14.8486Z" fill="#EF0A71"/>
<path fill-rule="evenodd" clip-rule="evenodd" d="M11.513 29.7638L14.0689 29.9031L14.2566 27.9249C14.2566 27.9249 14.0852 26.8276 13.007 26.7715C11.6046 26.6986 11.5018 27.8728 11.5018 27.8728L11.513 29.7638Z" fill="#9F0B5B"/>
<path fill-rule="evenodd" clip-rule="evenodd" d="M12.3204 30.3701C12.3204 30.3701 12.0655 30.2462 12.0873 29.9813C12.1092 29.7163 12.791 27.824 12.8779 27.6839L13.53 27.8403C13.53 27.8403 12.884 29.9233 12.7556 30.1622C12.6272 30.4011 12.3204 30.3701 12.3204 30.3701Z" fill="#F281C1"/>
<path fill-rule="evenodd" clip-rule="evenodd" d="M9.8483 35.8743C9.8483 35.8743 9.29357 35.7876 9.25862 35.5088C9.20034 35.0444 9.16371 34.6462 9.16371 34.6462C9.16371 34.6462 9.05927 34.3151 9.24223 34.1143C9.50095 33.8306 11.7911 28.7056 11.7911 28.7056C11.7911 28.7056 11.8877 28.3727 12.0267 28.4112C12.1656 28.4498 12.3818 28.4049 12.0798 28.9721C11.7779 29.5393 11.6378 30.1991 11.6378 30.1991C11.6378 30.1991 11.6356 30.609 12.039 30.7026C12.4423 30.7963 12.6898 30.874 12.9181 30.6854C13.1466 30.4969 13.4322 29.1454 13.4722 29.0528C13.5122 28.9602 13.7888 28.824 13.6519 29.4425L12.4635 34.7858C12.4635 34.7858 12.4057 35.2371 12.2286 35.4576C11.98 35.767 11.7863 36.2045 11.3526 36.1603C10.919 36.116 9.8483 35.8743 9.8483 35.8743Z" fill="#F281C1"/>
<path fill-rule="evenodd" clip-rule="evenodd" d="M12.8306 13.9093C12.8306 13.9093 19.7102 6.08485 24.1069 3.69359C28.093 1.52602 29.7227 1.95072 30.482 3.20843C30.482 3.20843 31.814 5.11562 29.231 6.9713C28.644 7.39274 27.5938 8.15535 26.2216 8.87439C24.6404 9.70264 22.6444 10.5112 20.6618 11.3025C16.7859 12.8491 12.8306 13.9093 12.8306 13.9093Z" fill="#DF0866"/>
<path fill-rule="evenodd" clip-rule="evenodd" d="M11.5376 13.1573C11.5376 13.1573 10.9017 4.81134 11.6353 3.11412C12.3689 1.41681 13.2842 0.430859 14.3767 0.585805C15.4693 0.740751 16.7558 2.16579 16.4706 4.16621C16.1854 6.16663 14.9875 8.50136 14.2311 9.77848C13.5023 11.0091 11.5376 13.1573 11.5376 13.1573Z" fill="#DF0866"/>
<path fill-rule="evenodd" clip-rule="evenodd" d="M10.192 13.8675C10.192 13.8675 5.9693 11.6614 4.80381 10.774C3.63833 9.88665 2.88684 9.18918 2.84369 8.76264C2.80054 8.3361 3.68766 7.53879 5.80766 9.3764C7.92766 11.214 10.192 13.8675 10.192 13.8675Z" fill="#DF0866"/>
</svg>
