<svg width="83" height="22" viewBox="0 0 83 22" fill="none" xmlns="http://www.w3.org/2000/svg">
<path fill-rule="evenodd" clip-rule="evenodd" d="M0.647034 9.1504L1.13988 12.8892L5.90308 11.3906C5.90308 11.3906 5.68432 10.5704 5.40951 9.90238C5.17824 9.34013 4.92213 8.89036 4.93063 8.8785C4.94918 8.85247 0.647034 9.1504 0.647034 9.1504Z" fill="#A9005B"/>
<path fill-rule="evenodd" clip-rule="evenodd" d="M9.38858 14.4891L15.1863 13.3464L15.4554 8.36887L10.6003 8.64603C9.84573 10.5359 9.44181 12.4836 9.38858 14.4891Z" fill="#ED147C"/>
<path fill-rule="evenodd" clip-rule="evenodd" d="M2.18056 21.5946L1.953 19.4443L7.33527 19.3473C7.4869 20.0896 7.54573 20.8844 7.46047 21.7607L2.18056 21.5946Z" fill="#DF0075"/>
<path fill-rule="evenodd" clip-rule="evenodd" d="M14.6013 22L9.22004 21.84C9.02001 19.6577 9.08247 17.459 9.25603 15.3181L15.1003 14.842L14.6013 22Z" fill="#A9005B"/>
<path fill-rule="evenodd" clip-rule="evenodd" d="M1.83553 18.5293L1.29834 14.0718L6.07449 12.2885C6.62182 14.1331 6.9498 16.0972 7.14399 18.1285L1.83553 18.5293Z" fill="#ED147C"/>
<path fill-rule="evenodd" clip-rule="evenodd" d="M5.43466 8.94001L5.5917 9.41295L6.29838 9.27617C6.29838 9.27617 6.46634 9.17992 6.41885 8.99305C6.37142 8.80617 6.17569 8.80765 6.17569 8.80765L5.43466 8.94001Z" fill="#EF0A71"/>
<path fill-rule="evenodd" clip-rule="evenodd" d="M5.81912 10.0529L5.94379 10.5136L6.64739 10.3954C6.64739 10.3954 6.85597 10.2825 6.81254 10.1381C6.76912 9.99368 6.6728 9.88494 6.49117 9.91013C6.30955 9.93538 5.81912 10.0529 5.81912 10.0529Z" fill="#EF0A71"/>
<path fill-rule="evenodd" clip-rule="evenodd" d="M6.20987 11.1994L6.33362 11.6893L7.0407 11.5213C7.0407 11.5213 7.17996 11.4345 7.15252 11.268C7.12508 11.1015 7.01548 11.0289 6.92201 11.0362C6.82859 11.0435 6.20987 11.1994 6.20987 11.1994Z" fill="#EF0A71"/>
<path fill-rule="evenodd" clip-rule="evenodd" d="M6.57882 12.8358L6.48013 12.3726L7.21899 12.2063C7.21899 12.2063 7.43167 12.217 7.4552 12.4199C7.47877 12.6228 7.27855 12.6883 7.27855 12.6883L6.57882 12.8358Z" fill="#EF0A71"/>
<path fill-rule="evenodd" clip-rule="evenodd" d="M6.829 13.874L6.75095 13.393L7.36634 13.3108C7.36634 13.3108 7.68196 13.279 7.72345 13.5175C7.76238 13.7414 7.43768 13.7822 7.43768 13.7822L6.829 13.874Z" fill="#EF0A71"/>
<path fill-rule="evenodd" clip-rule="evenodd" d="M6.97983 14.5442L7.04905 15.0085L7.71207 14.8987C7.71207 14.8987 7.96518 14.8165 7.92354 14.6276C7.8819 14.4387 7.62821 14.4489 7.62821 14.4489L6.97983 14.5442Z" fill="#EF0A71"/>
<path fill-rule="evenodd" clip-rule="evenodd" d="M9.88895 9.47239L9.76519 9.94445L9.08116 9.80845C9.08116 9.80845 8.84988 9.73041 8.87973 9.55889C8.90959 9.38736 8.96224 9.36148 9.10614 9.35518C9.25008 9.34888 9.88895 9.47239 9.88895 9.47239Z" fill="#EF0A71"/>
<path fill-rule="evenodd" clip-rule="evenodd" d="M8.5347 10.7917C8.5347 10.7917 8.55924 10.585 8.73815 10.5764C8.91707 10.5678 9.52276 10.6561 9.52276 10.6561L9.46774 11.1214L8.82148 11.0535C8.82148 11.0535 8.59991 11.0322 8.5347 10.7917Z" fill="#EF0A71"/>
<path fill-rule="evenodd" clip-rule="evenodd" d="M9.26358 12.2384L9.30338 11.7723L8.46405 11.7522C8.46405 11.7522 8.34213 11.7441 8.30426 11.9457C8.26639 12.1474 8.43565 12.1833 8.43565 12.1833L9.26358 12.2384Z" fill="#EF0A71"/>
<path fill-rule="evenodd" clip-rule="evenodd" d="M9.19582 12.8476L9.12525 13.3344L8.38132 13.3308C8.38132 13.3308 8.18444 13.3034 8.15115 13.0853C8.11918 12.876 8.23704 12.793 8.42494 12.803C8.53019 12.8086 9.19582 12.8476 9.19582 12.8476Z" fill="#EF0A71"/>
<path fill-rule="evenodd" clip-rule="evenodd" d="M8.99367 14.4799L9.0071 14.0088L8.29925 13.9985C8.29925 13.9985 8.04942 14.0403 8.04136 14.1865C8.03334 14.3328 8.19931 14.4749 8.26597 14.4758C8.33263 14.4768 8.99367 14.4799 8.99367 14.4799Z" fill="#EF0A71"/>
<path fill-rule="evenodd" clip-rule="evenodd" d="M8.91955 15.0463L8.92119 15.4644L8.36763 15.4944C8.36763 15.4944 8.06945 15.472 8.0665 15.2479C8.06346 15.0154 8.27648 15.0124 8.27648 15.0124L8.91955 15.0463Z" fill="#EF0A71"/>
<path fill-rule="evenodd" clip-rule="evenodd" d="M8.8097 17.7817C8.8097 17.7817 8.80004 17.3939 8.81134 17.3663C8.82259 17.3387 8.29125 17.3425 8.29125 17.3425C8.29125 17.3425 8.02693 17.3667 8.03901 17.5377C8.05108 17.7088 8.25565 17.728 8.25565 17.728L8.8097 17.7817Z" fill="#EF0A71"/>
<path fill-rule="evenodd" clip-rule="evenodd" d="M8.77889 18.9417L8.76493 18.498L8.12104 18.4855C8.12104 18.4855 7.91294 18.4993 7.91434 18.7121C7.91575 18.9249 8.09167 18.9418 8.15369 18.9445C8.21576 18.9472 8.77889 18.9417 8.77889 18.9417Z" fill="#EF0A71"/>
<path fill-rule="evenodd" clip-rule="evenodd" d="M8.75065 20.0449L8.75244 19.5829L8.2396 19.6218C8.2396 19.6218 8.01832 19.6541 8.04015 19.8595C8.06198 20.0648 8.15849 20.0813 8.23578 20.0844C8.31307 20.0875 8.75065 20.0449 8.75065 20.0449Z" fill="#EF0A71"/>
<path fill-rule="evenodd" clip-rule="evenodd" d="M7.69568 20.2114C7.69568 20.2114 7.70394 20.6162 7.70336 20.6074C7.70273 20.5985 8.14046 20.5849 8.14046 20.5849C8.14046 20.5849 8.37729 20.5455 8.37024 20.3681C8.3629 20.1842 8.12457 20.1868 8.04279 20.1864C7.96058 20.186 7.69568 20.2114 7.69568 20.2114Z" fill="#EF0A71"/>
<path fill-rule="evenodd" clip-rule="evenodd" d="M8.79474 20.7364L8.78296 21.1988L8.28528 21.1705C8.28528 21.1705 8.04632 21.1596 8.04304 21.0059C8.03971 20.8522 8.08762 20.7589 8.23621 20.7487C8.38479 20.7384 8.79474 20.7364 8.79474 20.7364Z" fill="#EF0A71"/>
<path fill-rule="evenodd" clip-rule="evenodd" d="M7.69995 21.3544L7.70546 21.6829C7.70546 21.6829 8.24617 21.6783 8.25984 21.6656C8.27351 21.6528 8.43552 21.6774 8.43315 21.5678C8.43079 21.4583 8.39147 21.3502 8.31322 21.3397C8.23501 21.3291 7.69995 21.3544 7.69995 21.3544Z" fill="#EF0A71"/>
<path fill-rule="evenodd" clip-rule="evenodd" d="M7.45816 19.098L8.02733 19.0961C8.02733 19.0961 8.263 19.0974 8.27498 19.296C8.28817 19.5161 8.05756 19.547 8.05756 19.547L7.51864 19.5555L7.45816 19.098Z" fill="#EF0A71"/>
<path fill-rule="evenodd" clip-rule="evenodd" d="M10.2989 8.48779L10.0971 8.94976L9.48023 8.87167C9.48023 8.87167 9.24132 8.82941 9.26257 8.61001C9.27972 8.43288 9.43013 8.41502 9.53056 8.42707L10.2989 8.48779Z" fill="#EF0A71"/>
<path fill-rule="evenodd" clip-rule="evenodd" d="M7.19684 17.2642L8.6733 17.3462L8.78169 16.1822C8.78169 16.1822 8.68267 15.5366 8.05984 15.5035C7.24973 15.4606 7.19037 16.1516 7.19037 16.1516L7.19684 17.2642Z" fill="#9F0B5B"/>
<path fill-rule="evenodd" clip-rule="evenodd" d="M7.66322 17.6211C7.66322 17.6211 7.51599 17.5482 7.5286 17.3923C7.54125 17.2364 7.93507 16.1229 7.98531 16.0404L8.36199 16.1324C8.36199 16.1324 7.98884 17.3582 7.91464 17.4987C7.84045 17.6393 7.66322 17.6211 7.66322 17.6211Z" fill="#F281C1"/>
<path fill-rule="evenodd" clip-rule="evenodd" d="M6.23518 20.8599C6.23518 20.8599 5.91473 20.8089 5.89454 20.6448C5.86087 20.3715 5.83971 20.1372 5.83971 20.1372C5.83971 20.1372 5.77938 19.9424 5.88507 19.8243C6.03453 19.6573 7.35747 16.6416 7.35747 16.6416C7.35747 16.6416 7.41327 16.4457 7.49355 16.4684C7.57383 16.4911 7.69869 16.4647 7.52427 16.7985C7.34984 17.1322 7.26889 17.5204 7.26889 17.5204C7.26889 17.5204 7.26763 17.7616 7.50065 17.8167C7.73362 17.8718 7.8766 17.9176 8.00852 17.8066C8.14048 17.6957 8.30549 16.9004 8.32858 16.846C8.35171 16.7914 8.51145 16.7113 8.43238 17.0752L7.74589 20.2194C7.74589 20.2194 7.71251 20.485 7.6102 20.6147C7.46659 20.7967 7.35467 21.0542 7.10417 21.0282C6.85366 21.0021 6.23518 20.8599 6.23518 20.8599Z" fill="#F281C1"/>
<path fill-rule="evenodd" clip-rule="evenodd" d="M7.95795 7.93506C7.95795 7.93506 11.9321 3.33097 14.4719 1.92389C16.7745 0.648434 17.716 0.898339 18.1546 1.63841C18.1546 1.63841 18.9241 2.76065 17.4319 3.85258C17.0929 4.10056 16.4862 4.5493 15.6935 4.9724C14.7801 5.45977 13.627 5.93556 12.4818 6.40118C10.2428 7.31125 7.95795 7.93506 7.95795 7.93506Z" fill="#DF0866"/>
<path fill-rule="evenodd" clip-rule="evenodd" d="M7.21101 7.49259C7.21101 7.49259 6.84371 2.58162 7.26748 1.58294C7.69125 0.584201 8.21998 0.00403906 8.85108 0.0952135C9.48221 0.186388 10.2254 1.02492 10.0607 2.20202C9.89589 3.37912 9.20393 4.75293 8.76698 5.50442C8.34596 6.22855 7.21101 7.49259 7.21101 7.49259Z" fill="#DF0866"/>
<path fill-rule="evenodd" clip-rule="evenodd" d="M6.43371 7.91049C6.43371 7.91049 3.99441 6.61235 3.32115 6.0902C2.64789 5.56805 2.21378 5.15765 2.18885 4.90666C2.16393 4.65567 2.67639 4.18651 3.90104 5.26781C5.12569 6.34911 6.43371 7.91049 6.43371 7.91049Z" fill="#DF0866"/>
<path d="M29.2489 9.71891L24.4809 17.6229H23.8569L22.5929 7.55891C22.5396 7.15357 22.4223 6.88691 22.2409 6.75891C22.0596 6.62024 21.8889 6.54557 21.7289 6.53491L21.7929 6.21491C22.0489 6.22557 22.3583 6.23624 22.7209 6.24691C23.0836 6.25757 23.4516 6.26291 23.8249 6.26291C24.2303 6.26291 24.6036 6.25757 24.9449 6.24691C25.2863 6.23624 25.5636 6.22557 25.7769 6.21491L25.7129 6.53491C25.3716 6.55624 25.1316 6.65224 24.9929 6.82291C24.8543 6.98291 24.8063 7.33491 24.8489 7.87891L25.6969 15.2709L25.3289 15.6069L29.1209 9.31891L29.2489 9.71891ZM34.8489 8.61491C35.1369 8.06024 35.2863 7.63891 35.2969 7.35091C35.3076 7.06291 35.2009 6.86024 34.9769 6.74291C34.7529 6.62557 34.4276 6.55624 34.0009 6.53491L34.0809 6.21491C34.2409 6.22557 34.4383 6.23624 34.6729 6.24691C34.9183 6.24691 35.1636 6.25224 35.4089 6.26291C35.6649 6.26291 35.8889 6.26291 36.0809 6.26291C36.3369 6.26291 36.5556 6.25757 36.7369 6.24691C36.9289 6.23624 37.1103 6.22557 37.2809 6.21491L37.2009 6.53491C37.0089 6.58824 36.8169 6.66291 36.6249 6.75891C36.4436 6.85491 36.2516 7.00957 36.0489 7.22291C35.8569 7.43624 35.6596 7.74024 35.4569 8.13491L30.4809 17.6229H29.8569L28.4009 7.55891C28.3476 7.16424 28.2516 6.89757 28.1129 6.75891C27.9743 6.62024 27.8356 6.54557 27.6969 6.53491L27.7609 6.21491C27.9956 6.22557 28.2783 6.23624 28.6089 6.24691C28.9503 6.25757 29.2916 6.26291 29.6329 6.26291C30.1129 6.26291 30.5556 6.25757 30.9609 6.24691C31.3769 6.23624 31.7129 6.22557 31.9689 6.21491L31.9049 6.53491C31.3716 6.55624 31.0143 6.64691 30.8329 6.80691C30.6516 6.96691 30.5929 7.32424 30.6569 7.87891L31.6649 15.0469L31.2969 15.3669L34.8489 8.61491ZM37.4229 17.5429H35.4549L37.3749 10.6469C37.4709 10.3269 37.5029 10.1029 37.4709 9.97491C37.4389 9.84691 37.3429 9.78291 37.1829 9.78291C36.9803 9.78291 36.7936 9.88424 36.6229 10.0869C36.4523 10.2896 36.2763 10.6469 36.0949 11.1589L35.8229 11.9109H35.5189L35.9349 10.7109C36.0843 10.2842 36.2709 9.95357 36.4949 9.71891C36.7189 9.47357 36.9643 9.30291 37.2309 9.20691C37.4976 9.11091 37.7696 9.06291 38.0469 9.06291C38.3883 9.06291 38.6389 9.13224 38.7989 9.27091C38.9696 9.40957 39.0763 9.59091 39.1189 9.81491C39.1723 10.0389 39.1829 10.2842 39.1509 10.5509C39.1296 10.8069 39.0869 11.0576 39.0229 11.3029L37.4229 17.5429ZM41.5189 9.43091C41.2843 9.43091 41.0443 9.51624 40.7989 9.68691C40.5536 9.84691 40.2976 10.1082 40.0309 10.4709C39.7643 10.8336 39.4923 11.3136 39.2149 11.9109C38.9483 12.4976 38.6709 13.2176 38.3829 14.0709C38.0949 14.9136 37.8069 15.9109 37.5189 17.0629L37.9029 14.9349C38.2336 13.8149 38.5429 12.8816 38.8309 12.1349C39.1296 11.3776 39.4176 10.7749 39.6949 10.3269C39.9829 9.86824 40.2869 9.54291 40.6069 9.35091C40.9269 9.15891 41.2736 9.06291 41.6469 9.06291C42.0309 9.06291 42.3243 9.17491 42.5269 9.39891C42.7403 9.62291 42.8469 9.90024 42.8469 10.2309C42.8469 10.4976 42.7829 10.7482 42.6549 10.9829C42.5269 11.2069 42.3563 11.3882 42.1429 11.5269C41.9403 11.6549 41.7056 11.7189 41.4389 11.7189C41.1723 11.7189 40.9589 11.6496 40.7989 11.5109C40.6496 11.3722 40.5749 11.1696 40.5749 10.9029C40.5749 10.6682 40.6283 10.4549 40.7349 10.2629C40.8416 10.0709 40.9803 9.91091 41.1509 9.78291C41.3216 9.64424 41.5083 9.54824 41.7109 9.49491C41.6896 9.47357 41.6629 9.45757 41.6309 9.44691C41.5989 9.43624 41.5616 9.43091 41.5189 9.43091ZM44.7102 17.0309C44.9022 17.0309 45.1209 16.9189 45.3662 16.6949C45.6115 16.4602 45.8622 16.1349 46.1182 15.7189C46.3742 15.3029 46.6195 14.8069 46.8542 14.2309C47.0889 13.6549 47.2915 13.0256 47.4622 12.3429L47.1262 14.0709C46.8169 14.9776 46.4862 15.7029 46.1342 16.2469C45.7929 16.7909 45.4302 17.1802 45.0462 17.4149C44.6729 17.6496 44.2835 17.7669 43.8782 17.7669C43.3022 17.7669 42.8755 17.5909 42.5982 17.2389C42.3209 16.8762 42.1822 16.3962 42.1822 15.7989C42.1822 15.2442 42.2729 14.6629 42.4542 14.0549C42.6355 13.4362 42.8862 12.8336 43.2062 12.2469C43.5369 11.6496 43.9102 11.1162 44.3262 10.6469C44.7422 10.1669 45.1849 9.78291 45.6542 9.49491C46.1235 9.20691 46.5929 9.06291 47.0622 9.06291C47.4249 9.06291 47.7022 9.21757 47.8942 9.52691C48.0862 9.82557 48.1342 10.2842 48.0382 10.9029L47.8622 10.9989C47.9369 10.5509 47.9155 10.1989 47.7982 9.94291C47.6915 9.68691 47.5102 9.55891 47.2542 9.55891C47.0089 9.55891 46.7475 9.68691 46.4702 9.94291C46.2035 10.1989 45.9369 10.5456 45.6702 10.9829C45.4035 11.4202 45.1582 11.9162 44.9342 12.4709C44.7209 13.0256 44.5502 13.6016 44.4222 14.1989C44.2942 14.7962 44.2302 15.3776 44.2302 15.9429C44.2302 16.3376 44.2675 16.6202 44.3422 16.7909C44.4275 16.9509 44.5502 17.0309 44.7102 17.0309ZM48.3102 9.28691C48.6942 9.27624 49.0515 9.25491 49.3822 9.22291C49.7235 9.19091 50.0489 9.13757 50.3582 9.06291L48.2942 16.1669C48.2515 16.2949 48.2195 16.4282 48.1982 16.5669C48.1875 16.6949 48.1982 16.8069 48.2302 16.9029C48.2729 16.9882 48.3635 17.0309 48.5022 17.0309C48.6729 17.0309 48.8489 16.9402 49.0302 16.7589C49.2115 16.5776 49.3982 16.2096 49.5902 15.6549L49.8302 14.9349H50.1342L49.7342 16.1029C49.5849 16.5402 49.3982 16.8816 49.1742 17.1269C48.9502 17.3616 48.7102 17.5269 48.4542 17.6229C48.2089 17.7189 47.9635 17.7669 47.7182 17.7669C47.2062 17.7669 46.8435 17.6069 46.6302 17.2869C46.4915 17.0522 46.4382 16.7642 46.4702 16.4229C46.5022 16.0816 46.5715 15.7136 46.6782 15.3189L48.3102 9.28691ZM56.9002 9.79891C56.6655 9.79891 56.4042 9.95357 56.1162 10.2629C55.8389 10.5722 55.5562 10.9989 55.2682 11.5429C54.9802 12.0762 54.7082 12.6789 54.4522 13.3509C54.2069 14.0229 53.9935 14.7269 53.8122 15.4629L54.1162 13.7989C54.4895 12.6682 54.8629 11.7562 55.2362 11.0629C55.6095 10.3696 55.9935 9.86291 56.3882 9.54291C56.7829 9.22291 57.2042 9.06291 57.6522 9.06291C58.2495 9.06291 58.7082 9.26557 59.0282 9.67091C59.3589 10.0762 59.5242 10.6736 59.5242 11.4629C59.5242 11.9536 59.4549 12.4816 59.3162 13.0469C59.1775 13.6122 58.9749 14.1722 58.7082 14.7269C58.4522 15.2816 58.1322 15.7936 57.7482 16.2629C57.3642 16.7216 56.9215 17.0896 56.4202 17.3669C55.9295 17.6336 55.3802 17.7669 54.7722 17.7669C54.4309 17.7669 54.1269 17.6922 53.8602 17.5429C53.5935 17.3936 53.3962 17.1856 53.2682 16.9189L53.3962 16.6469C53.5242 16.8922 53.6629 17.0682 53.8122 17.1749C53.9615 17.2816 54.1375 17.3349 54.3402 17.3349C54.6709 17.3349 54.9909 17.2069 55.3002 16.9509C55.6202 16.6842 55.9082 16.3322 56.1642 15.8949C56.4309 15.4469 56.6655 14.9509 56.8682 14.4069C57.0709 13.8629 57.2255 13.3082 57.3322 12.7429C57.4495 12.1776 57.5082 11.6496 57.5082 11.1589C57.5082 10.6469 57.4549 10.2949 57.3482 10.1029C57.2415 9.90024 57.0922 9.79891 56.9002 9.79891ZM54.2922 6.96691C54.6655 6.93491 55.0229 6.89224 55.3642 6.83891C55.7162 6.77491 56.0469 6.68957 56.3562 6.58291L52.8842 18.8229C52.7349 19.3349 52.7775 19.6762 53.0122 19.8469C53.2469 20.0176 53.6255 20.1029 54.1482 20.1029L54.0522 20.4389C53.8069 20.4282 53.4655 20.4122 53.0282 20.3909C52.5909 20.3802 52.1322 20.3749 51.6522 20.3749C51.2575 20.3749 50.8575 20.3802 50.4522 20.3909C50.0469 20.4122 49.7482 20.4282 49.5562 20.4389L49.6522 20.1029C50.0362 20.1029 50.3135 20.0282 50.4842 19.8789C50.6549 19.7402 50.7935 19.4842 50.9002 19.1109L54.2922 6.96691ZM51.1082 11.8949C51.5135 11.4896 51.8869 11.0842 52.2282 10.6789C52.5802 10.2629 52.9215 9.77757 53.2522 9.22291C53.5829 8.65757 53.9135 7.94824 54.2442 7.09491L54.2922 7.35091C54.0682 8.08691 53.8015 8.73757 53.4922 9.30291C53.1829 9.85757 52.8415 10.3589 52.4682 10.8069C52.1055 11.2549 51.7109 11.6869 51.2842 12.1029L51.1082 11.8949ZM60.5521 16.7429C60.7867 16.6149 61.0107 16.4816 61.2241 16.3429C61.4481 16.2042 61.6561 16.0816 61.8481 15.9749C62.0507 15.8576 62.2427 15.7616 62.4241 15.6869C62.6054 15.6122 62.7867 15.5749 62.9681 15.5749C63.2241 15.5749 63.4481 15.6176 63.6401 15.7029C63.8321 15.7882 64.0187 15.8736 64.2001 15.9589C64.3814 16.0442 64.5894 16.0869 64.8241 16.0869C65.0481 16.0869 65.2187 16.0282 65.3361 15.9109C65.4534 15.7936 65.5121 15.6389 65.5121 15.4469C65.5121 15.1802 65.4107 14.9669 65.2081 14.8069C65.0054 14.6362 64.7601 14.5189 64.4721 14.4549L64.5681 14.2149C65.1121 14.3322 65.5174 14.5296 65.7841 14.8069C66.0614 15.0842 66.2001 15.4362 66.2001 15.8629C66.2001 16.1829 66.1307 16.4869 65.9921 16.7749C65.8641 17.0522 65.6561 17.2762 65.3681 17.4469C65.0801 17.6069 64.7067 17.6869 64.2481 17.6869C63.9281 17.6869 63.6507 17.6442 63.4161 17.5589C63.1814 17.4842 62.9574 17.3936 62.7441 17.2869C62.5307 17.1802 62.3014 17.0896 62.0561 17.0149C61.8107 16.9296 61.5227 16.8869 61.1921 16.8869C60.9147 16.8869 60.6587 16.9349 60.4241 17.0309C60.2001 17.1162 59.9761 17.2869 59.7521 17.5429H59.2881L66.8721 10.0389C66.6161 10.1669 66.3654 10.3056 66.1201 10.4549C65.8854 10.6042 65.6614 10.7482 65.4481 10.8869C65.2347 11.0149 65.0267 11.1216 64.8241 11.2069C64.6214 11.2816 64.4294 11.3189 64.2481 11.3189C63.9921 11.3189 63.7681 11.2762 63.5761 11.1909C63.3841 11.1056 63.1974 11.0202 63.0161 10.9349C62.8347 10.8496 62.6321 10.8069 62.4081 10.8069C62.1947 10.8069 62.0241 10.8656 61.8961 10.9829C61.7681 11.0896 61.7041 11.2442 61.7041 11.4469C61.7041 11.6922 61.8001 11.9002 61.9921 12.0709C62.1841 12.2309 62.4347 12.3536 62.7441 12.4389L62.6481 12.6789C62.1361 12.5616 61.7361 12.3696 61.4481 12.1029C61.1601 11.8362 61.0161 11.4896 61.0161 11.0629C61.0161 10.7429 61.0907 10.4389 61.2401 10.1509C61.3894 9.86291 61.6187 9.62824 61.9281 9.44691C62.2481 9.26557 62.6587 9.17491 63.1601 9.17491C63.4694 9.17491 63.7414 9.21224 63.9761 9.28691C64.2107 9.36157 64.4294 9.45224 64.6321 9.55891C64.8454 9.66557 65.0694 9.75624 65.3041 9.83091C65.5387 9.90557 65.8214 9.94291 66.1521 9.94291C66.4507 9.94291 66.7121 9.90024 66.9361 9.81491C67.1601 9.71891 67.3787 9.54291 67.5921 9.28691H68.0561L60.5521 16.7429ZM70.2646 6.53491C70.2966 6.14024 70.4566 5.82557 70.7446 5.59091C71.0326 5.35624 71.3686 5.23891 71.7526 5.23891C72.1046 5.23891 72.3712 5.34024 72.5526 5.54291C72.7446 5.73491 72.8246 5.98557 72.7926 6.29491C72.7606 6.65757 72.6006 6.96157 72.3126 7.20691C72.0246 7.45224 71.6886 7.57491 71.3046 7.57491C70.9526 7.57491 70.6806 7.47891 70.4886 7.28691C70.3072 7.08424 70.2326 6.83357 70.2646 6.53491ZM69.7046 10.6469C69.8966 10.0709 69.8326 9.78291 69.5126 9.78291C69.2992 9.78291 69.1072 9.89491 68.9366 10.1189C68.7659 10.3322 68.5846 10.6789 68.3926 11.1589L68.1206 11.9109H67.8166L68.2326 10.7109C68.3926 10.2842 68.5846 9.95357 68.8086 9.71891C69.0326 9.47357 69.2832 9.30291 69.5606 9.20691C69.8379 9.11091 70.1099 9.06291 70.3766 9.06291C70.7499 9.06291 71.0326 9.13224 71.2246 9.27091C71.4166 9.40957 71.5446 9.59091 71.6086 9.81491C71.6726 10.0389 71.6886 10.2842 71.6566 10.5509C71.6246 10.8069 71.5659 11.0576 71.4806 11.3029L69.7846 16.1829C69.6886 16.4709 69.6619 16.6896 69.7046 16.8389C69.7472 16.9776 69.8486 17.0469 70.0086 17.0469C70.1792 17.0469 70.3499 16.9562 70.5206 16.7749C70.7019 16.5829 70.8939 16.2149 71.0966 15.6709L71.3686 14.9509H71.6726L71.2726 16.1189C71.1126 16.5456 70.9206 16.8816 70.6966 17.1269C70.4726 17.3616 70.2272 17.5269 69.9606 17.6229C69.6939 17.7189 69.4326 17.7669 69.1766 17.7669C68.7072 17.7669 68.3659 17.6656 68.1526 17.4629C67.9392 17.2496 67.8326 16.9616 67.8326 16.5989C67.8326 16.2256 67.9179 15.7989 68.0886 15.3189L69.7046 10.6469ZM78.4471 9.79891C78.2124 9.79891 77.9511 9.95357 77.6631 10.2629C77.3857 10.5722 77.1031 10.9989 76.8151 11.5429C76.5271 12.0762 76.2551 12.6789 75.9991 13.3509C75.7537 14.0229 75.5404 14.7269 75.3591 15.4629L75.6631 13.7989C76.0364 12.6682 76.4097 11.7562 76.7831 11.0629C77.1564 10.3696 77.5404 9.86291 77.9351 9.54291C78.3297 9.22291 78.7511 9.06291 79.1991 9.06291C79.7964 9.06291 80.2551 9.26557 80.5751 9.67091C80.9057 10.0762 81.0711 10.6736 81.0711 11.4629C81.0711 11.9536 81.0017 12.4816 80.8631 13.0469C80.7244 13.6122 80.5217 14.1722 80.2551 14.7269C79.9991 15.2816 79.6791 15.7936 79.2951 16.2629C78.9111 16.7216 78.4684 17.0896 77.9671 17.3669C77.4764 17.6336 76.9271 17.7669 76.3191 17.7669C75.9777 17.7669 75.6737 17.6922 75.4071 17.5429C75.1404 17.3936 74.9431 17.1856 74.8151 16.9189L74.9431 16.6469C75.0711 16.8922 75.2097 17.0682 75.3591 17.1749C75.5084 17.2816 75.6844 17.3349 75.8871 17.3349C76.2177 17.3349 76.5377 17.2069 76.8471 16.9509C77.1671 16.6842 77.4551 16.3322 77.7111 15.8949C77.9777 15.4469 78.2124 14.9509 78.4151 14.4069C78.6177 13.8629 78.7724 13.3082 78.8791 12.7429C78.9964 12.1776 79.0551 11.6496 79.0551 11.1589C79.0551 10.6469 79.0017 10.2949 78.8951 10.1029C78.7884 9.90024 78.6391 9.79891 78.4471 9.79891ZM75.8391 6.96691C76.2124 6.93491 76.5697 6.89224 76.9111 6.83891C77.2631 6.77491 77.5937 6.68957 77.9031 6.58291L74.4311 18.8229C74.2817 19.3349 74.3244 19.6762 74.5591 19.8469C74.7937 20.0176 75.1724 20.1029 75.6951 20.1029L75.5991 20.4389C75.3537 20.4282 75.0124 20.4122 74.5751 20.3909C74.1377 20.3802 73.6791 20.3749 73.1991 20.3749C72.8044 20.3749 72.4044 20.3802 71.9991 20.3909C71.5937 20.4122 71.2951 20.4282 71.1031 20.4389L71.1991 20.1029C71.5831 20.1029 71.8604 20.0282 72.0311 19.8789C72.2017 19.7402 72.3404 19.4842 72.4471 19.1109L75.8391 6.96691ZM72.6551 11.8949C73.0604 11.4896 73.4337 11.0842 73.7751 10.6789C74.1271 10.2629 74.4684 9.77757 74.7991 9.22291C75.1297 8.65757 75.4604 7.94824 75.7911 7.09491L75.8391 7.35091C75.6151 8.08691 75.3484 8.73757 75.0391 9.30291C74.7297 9.85757 74.3884 10.3589 74.0151 10.8069C73.6524 11.2549 73.2577 11.6869 72.8311 12.1029L72.6551 11.8949Z" fill="white"/>
</svg>
