<svg width="125" height="38" viewBox="0 0 125 38" fill="none" xmlns="http://www.w3.org/2000/svg">
<path fill-rule="evenodd" clip-rule="evenodd" d="M0.174622 15.7326L1.02779 22.0866L9.27339 19.5398C9.27339 19.5398 8.89468 18.1458 8.41898 17.0106C8.01861 16.0551 7.57526 15.2907 7.58997 15.2706C7.62208 15.2263 0.174622 15.7326 0.174622 15.7326Z" fill="#A9005B"/>
<path fill-rule="evenodd" clip-rule="evenodd" d="M15.3072 24.8054L25.3436 22.8635L25.8094 14.4044L17.4048 14.8755C16.0985 18.0872 15.3993 21.3972 15.3072 24.8054Z" fill="#ED147C"/>
<path fill-rule="evenodd" clip-rule="evenodd" d="M2.82932 36.8809L2.43539 33.2265L11.7527 33.0618C12.0151 34.3233 12.117 35.674 11.9694 37.1631L2.82932 36.8809Z" fill="#DF0075"/>
<path fill-rule="evenodd" clip-rule="evenodd" d="M24.331 37.5699L15.0154 37.298C14.6691 33.5892 14.7773 29.8526 15.0777 26.2144L25.1948 25.4053L24.331 37.5699Z" fill="#A9005B"/>
<path fill-rule="evenodd" clip-rule="evenodd" d="M2.23203 31.6716L1.30209 24.0964L9.57011 21.0657C10.5176 24.2005 11.0854 27.5384 11.4215 30.9905L2.23203 31.6716Z" fill="#ED147C"/>
<path fill-rule="evenodd" clip-rule="evenodd" d="M8.46252 15.3751L8.73437 16.1788L9.95772 15.9464C9.95772 15.9464 10.2485 15.7828 10.1663 15.4652C10.0842 15.1476 9.74533 15.1501 9.74533 15.1501L8.46252 15.3751Z" fill="#EF0A71"/>
<path fill-rule="evenodd" clip-rule="evenodd" d="M9.12802 17.2665L9.34384 18.0493L10.5618 17.8485C10.5618 17.8485 10.9229 17.6565 10.8477 17.4112C10.7726 17.1658 10.6058 16.981 10.2914 17.0238C9.977 17.0667 9.12802 17.2665 9.12802 17.2665Z" fill="#EF0A71"/>
<path fill-rule="evenodd" clip-rule="evenodd" d="M9.80447 19.2148L10.0187 20.0473L11.2427 19.7619C11.2427 19.7619 11.4838 19.6143 11.4363 19.3314C11.3888 19.0485 11.1991 18.9251 11.0373 18.9374C10.8756 18.9499 9.80447 19.2148 9.80447 19.2148Z" fill="#EF0A71"/>
<path fill-rule="evenodd" clip-rule="evenodd" d="M10.4432 21.9958L10.2723 21.2086L11.5514 20.926C11.5514 20.926 11.9196 20.9442 11.9603 21.289C12.0011 21.6337 11.6545 21.7451 11.6545 21.7451L10.4432 21.9958Z" fill="#EF0A71"/>
<path fill-rule="evenodd" clip-rule="evenodd" d="M10.8763 23.7602L10.7411 22.9427L11.8065 22.8031C11.8065 22.8031 12.3528 22.7489 12.4247 23.1544C12.4921 23.5347 11.93 23.6041 11.93 23.6041L10.8763 23.7602Z" fill="#EF0A71"/>
<path fill-rule="evenodd" clip-rule="evenodd" d="M11.1374 24.8992L11.2572 25.6882L12.4049 25.5016C12.4049 25.5016 12.8431 25.3618 12.771 25.0408C12.6989 24.7199 12.2598 24.7372 12.2598 24.7372L11.1374 24.8992Z" fill="#EF0A71"/>
<path fill-rule="evenodd" clip-rule="evenodd" d="M16.1734 16.2798L15.9591 17.0821L14.775 16.8509C14.775 16.8509 14.3747 16.7183 14.4263 16.4268C14.478 16.1353 14.5691 16.0913 14.8183 16.0806C15.0674 16.0699 16.1734 16.2798 16.1734 16.2798Z" fill="#EF0A71"/>
<path fill-rule="evenodd" clip-rule="evenodd" d="M13.829 18.5219C13.829 18.5219 13.8715 18.1707 14.1812 18.156C14.4909 18.1415 15.5394 18.2914 15.5394 18.2914L15.4442 19.0822L14.3255 18.9669C14.3255 18.9669 13.9419 18.9307 13.829 18.5219Z" fill="#EF0A71"/>
<path fill-rule="evenodd" clip-rule="evenodd" d="M15.0908 20.9806L15.1597 20.1885L13.7067 20.1543C13.7067 20.1543 13.4957 20.1405 13.4301 20.4832C13.3645 20.8259 13.6575 20.8869 13.6575 20.8869L15.0908 20.9806Z" fill="#EF0A71"/>
<path fill-rule="evenodd" clip-rule="evenodd" d="M14.9735 22.0158L14.8513 22.8432L13.5635 22.8369C13.5635 22.8369 13.2227 22.7904 13.1651 22.4198C13.1097 22.0641 13.3137 21.9229 13.639 21.94C13.8212 21.9495 14.9735 22.0158 14.9735 22.0158Z" fill="#EF0A71"/>
<path fill-rule="evenodd" clip-rule="evenodd" d="M14.6236 24.7899L14.6468 23.9893L13.4214 23.9717C13.4214 23.9717 12.989 24.0429 12.975 24.2913C12.9611 24.5398 13.2484 24.7813 13.3638 24.783C13.4792 24.7846 14.6236 24.7899 14.6236 24.7899Z" fill="#EF0A71"/>
<path fill-rule="evenodd" clip-rule="evenodd" d="M14.4952 25.7525L14.498 26.4629L13.5398 26.5139C13.5398 26.5139 13.0236 26.4759 13.0185 26.0951C13.0132 25.7 13.382 25.6948 13.382 25.6948L14.4952 25.7525Z" fill="#EF0A71"/>
<path fill-rule="evenodd" clip-rule="evenodd" d="M14.3051 30.401C14.3051 30.401 14.2883 29.742 14.3079 29.6951C14.3274 29.6482 13.4076 29.6547 13.4076 29.6547C13.4076 29.6547 12.95 29.6959 12.9709 29.9865C12.9918 30.2773 13.3459 30.3098 13.3459 30.3098L14.3051 30.401Z" fill="#EF0A71"/>
<path fill-rule="evenodd" clip-rule="evenodd" d="M14.2517 32.3725L14.2275 31.6184L13.1129 31.5972C13.1129 31.5972 12.7527 31.6207 12.7551 31.9823C12.7575 32.344 13.062 32.3727 13.1694 32.3773C13.2769 32.3819 14.2517 32.3725 14.2517 32.3725Z" fill="#EF0A71"/>
<path fill-rule="evenodd" clip-rule="evenodd" d="M14.2029 34.2473L14.206 33.4622L13.3182 33.5283C13.3182 33.5283 12.9351 33.5832 12.9729 33.9323C13.0107 34.2812 13.1778 34.3092 13.3116 34.3144C13.4453 34.3197 14.2029 34.2473 14.2029 34.2473Z" fill="#EF0A71"/>
<path fill-rule="evenodd" clip-rule="evenodd" d="M12.3766 34.5303C12.3766 34.5303 12.3909 35.2183 12.3899 35.2032C12.3888 35.1882 13.1466 35.1649 13.1466 35.1649C13.1466 35.1649 13.5565 35.0981 13.5443 34.7966C13.5316 34.4841 13.119 34.4885 12.9775 34.4878C12.8352 34.4871 12.3766 34.5303 12.3766 34.5303Z" fill="#EF0A71"/>
<path fill-rule="evenodd" clip-rule="evenodd" d="M14.2792 35.4224L14.2588 36.2083L13.3972 36.1602C13.3972 36.1602 12.9836 36.1417 12.9779 35.8805C12.9721 35.6192 13.0551 35.4608 13.3123 35.4434C13.5695 35.4259 14.2792 35.4224 14.2792 35.4224Z" fill="#EF0A71"/>
<path fill-rule="evenodd" clip-rule="evenodd" d="M12.3839 36.4727L12.3935 37.0311C12.3935 37.0311 13.3295 37.0232 13.3532 37.0015C13.3768 36.9799 13.6573 37.0216 13.6532 36.8355C13.6491 36.6493 13.581 36.4656 13.4456 36.4477C13.3102 36.4297 12.3839 36.4727 12.3839 36.4727Z" fill="#EF0A71"/>
<path fill-rule="evenodd" clip-rule="evenodd" d="M11.9654 32.6381L12.9507 32.6349C12.9507 32.6349 13.3587 32.637 13.3794 32.9746C13.4022 33.3486 13.003 33.4012 13.003 33.4012L12.0701 33.4156L11.9654 32.6381Z" fill="#EF0A71"/>
<path fill-rule="evenodd" clip-rule="evenodd" d="M16.883 14.6065L16.5336 15.3917L15.4658 15.2589C15.4658 15.2589 15.0522 15.1871 15.089 14.8143C15.1187 14.5132 15.3791 14.4829 15.5529 14.5034L16.883 14.6065Z" fill="#EF0A71"/>
<path fill-rule="evenodd" clip-rule="evenodd" d="M11.513 29.5218L14.0689 29.6611L14.2566 27.6829C14.2566 27.6829 14.0852 26.5856 13.007 26.5295C11.6046 26.4566 11.5018 27.6308 11.5018 27.6308L11.513 29.5218Z" fill="#9F0B5B"/>
<path fill-rule="evenodd" clip-rule="evenodd" d="M12.3204 30.1281C12.3204 30.1281 12.0655 30.0042 12.0873 29.7393C12.1092 29.4743 12.791 27.582 12.8779 27.4419L13.53 27.5982C13.53 27.5982 12.884 29.6813 12.7556 29.9202C12.6272 30.1591 12.3204 30.1281 12.3204 30.1281Z" fill="#F281C1"/>
<path fill-rule="evenodd" clip-rule="evenodd" d="M9.8483 35.6323C9.8483 35.6323 9.29357 35.5456 9.25862 35.2668C9.20034 34.8024 9.16371 34.4042 9.16371 34.4042C9.16371 34.4042 9.05927 34.073 9.24223 33.8723C9.50095 33.5886 11.7911 28.4635 11.7911 28.4635C11.7911 28.4635 11.8877 28.1307 12.0267 28.1692C12.1656 28.2077 12.3818 28.1629 12.0798 28.7301C11.7779 29.2973 11.6378 29.9571 11.6378 29.9571C11.6378 29.9571 11.6356 30.367 12.039 30.4606C12.4423 30.5543 12.6898 30.632 12.9181 30.4434C13.1466 30.2549 13.4322 28.9034 13.4722 28.8108C13.5122 28.7182 13.7888 28.5819 13.6519 29.2005L12.4635 34.5438C12.4635 34.5438 12.4057 34.9951 12.2286 35.2155C11.98 35.5249 11.7863 35.9625 11.3526 35.9183C10.919 35.874 9.8483 35.6323 9.8483 35.6323Z" fill="#F281C1"/>
<path fill-rule="evenodd" clip-rule="evenodd" d="M12.8306 13.6672C12.8306 13.6672 19.7102 5.84283 24.1069 3.45157C28.093 1.284 29.7227 1.7087 30.482 2.96641C30.482 2.96641 31.814 4.8736 29.231 6.72928C28.644 7.15072 27.5938 7.91333 26.2216 8.63237C24.6404 9.46062 22.6444 10.2692 20.6618 11.0605C16.7859 12.6071 12.8306 13.6672 12.8306 13.6672Z" fill="#DF0866"/>
<path fill-rule="evenodd" clip-rule="evenodd" d="M11.5376 12.9153C11.5376 12.9153 10.9017 4.56933 11.6353 2.87211C12.3689 1.17481 13.2842 0.188854 14.3767 0.343801C15.4693 0.498747 16.7558 1.92378 16.4706 3.92421C16.1854 5.92463 14.9875 8.25936 14.2311 9.53648C13.5023 10.7671 11.5376 12.9153 11.5376 12.9153Z" fill="#DF0866"/>
<path fill-rule="evenodd" clip-rule="evenodd" d="M10.192 13.6255C10.192 13.6255 5.9693 11.4194 4.80381 10.532C3.63833 9.64464 2.88684 8.94717 2.84369 8.52063C2.80054 8.09409 3.68766 7.29678 5.80766 9.13439C7.92766 10.972 10.192 13.6255 10.192 13.6255Z" fill="#DF0866"/>
<path d="M46.1694 17.2129L39.0174 29.0689H38.0814L36.1854 13.9729C36.1054 13.3649 35.9294 12.9649 35.6574 12.7729C35.3854 12.5649 35.1294 12.4529 34.8894 12.4369L34.9854 11.9569C35.3694 11.9729 35.8334 11.9889 36.3774 12.0049C36.9214 12.0209 37.4734 12.0289 38.0334 12.0289C38.6414 12.0289 39.2014 12.0209 39.7134 12.0049C40.2254 11.9889 40.6414 11.9729 40.9614 11.9569L40.8654 12.4369C40.3534 12.4689 39.9934 12.6129 39.7854 12.8689C39.5774 13.1089 39.5054 13.6369 39.5694 14.4529L40.8414 25.5409L40.2894 26.0449L45.9774 16.6129L46.1694 17.2129ZM54.5694 15.5569C55.0014 14.7249 55.2254 14.0929 55.2414 13.6609C55.2574 13.2289 55.0974 12.9249 54.7614 12.7489C54.4254 12.5729 53.9374 12.4689 53.2974 12.4369L53.4174 11.9569C53.6574 11.9729 53.9534 11.9889 54.3054 12.0049C54.6734 12.0049 55.0414 12.0129 55.4094 12.0289C55.7934 12.0289 56.1294 12.0289 56.4174 12.0289C56.8014 12.0289 57.1294 12.0209 57.4014 12.0049C57.6894 11.9889 57.9614 11.9729 58.2174 11.9569L58.0974 12.4369C57.8094 12.5169 57.5214 12.6289 57.2334 12.7729C56.9614 12.9169 56.6734 13.1489 56.3694 13.4689C56.0814 13.7889 55.7854 14.2449 55.4814 14.8369L48.0174 29.0689H47.0814L44.8974 13.9729C44.8174 13.3809 44.6734 12.9809 44.4654 12.7729C44.2574 12.5649 44.0494 12.4529 43.8414 12.4369L43.9374 11.9569C44.2894 11.9729 44.7134 11.9889 45.2094 12.0049C45.7214 12.0209 46.2334 12.0289 46.7454 12.0289C47.4654 12.0289 48.1294 12.0209 48.7374 12.0049C49.3614 11.9889 49.8654 11.9729 50.2494 11.9569L50.1534 12.4369C49.3534 12.4689 48.8174 12.6049 48.5454 12.8449C48.2734 13.0849 48.1854 13.6209 48.2814 14.4529L49.7934 25.2049L49.2414 25.6849L54.5694 15.5569ZM58.4304 28.9489H55.4784L58.3584 18.6049C58.5024 18.1249 58.5504 17.7889 58.5024 17.5969C58.4544 17.4049 58.3104 17.3089 58.0704 17.3089C57.7664 17.3089 57.4864 17.4609 57.2304 17.7649C56.9744 18.0689 56.7104 18.6049 56.4384 19.3729L56.0304 20.5009H55.5744L56.1984 18.7009C56.4224 18.0609 56.7024 17.5649 57.0384 17.2129C57.3744 16.8449 57.7424 16.5889 58.1424 16.4449C58.5424 16.3009 58.9504 16.2289 59.3664 16.2289C59.8784 16.2289 60.2544 16.3329 60.4944 16.5409C60.7504 16.7489 60.9104 17.0209 60.9744 17.3569C61.0544 17.6929 61.0704 18.0609 61.0224 18.4609C60.9904 18.8449 60.9264 19.2209 60.8304 19.5889L58.4304 28.9489ZM64.5744 16.7809C64.2224 16.7809 63.8624 16.9089 63.4944 17.1649C63.1264 17.4049 62.7424 17.7969 62.3424 18.3409C61.9424 18.8849 61.5344 19.6049 61.1184 20.5009C60.7184 21.3809 60.3024 22.4609 59.8704 23.7409C59.4384 25.0049 59.0064 26.5009 58.5744 28.2289L59.1504 25.0369C59.6464 23.3569 60.1104 21.9569 60.5424 20.8369C60.9904 19.7009 61.4224 18.7969 61.8384 18.1249C62.2704 17.4369 62.7264 16.9489 63.2064 16.6609C63.6864 16.3729 64.2064 16.2289 64.7664 16.2289C65.3424 16.2289 65.7824 16.3969 66.0864 16.7329C66.4064 17.0689 66.5664 17.4849 66.5664 17.9809C66.5664 18.3809 66.4704 18.7569 66.2784 19.1089C66.0864 19.4449 65.8304 19.7169 65.5104 19.9249C65.2064 20.1169 64.8544 20.2129 64.4544 20.2129C64.0544 20.2129 63.7344 20.1089 63.4944 19.9009C63.2704 19.6929 63.1584 19.3889 63.1584 18.9889C63.1584 18.6369 63.2384 18.3169 63.3984 18.0289C63.5584 17.7409 63.7664 17.5009 64.0224 17.3089C64.2784 17.1009 64.5584 16.9569 64.8624 16.8769C64.8304 16.8449 64.7904 16.8209 64.7424 16.8049C64.6944 16.7889 64.6384 16.7809 64.5744 16.7809ZM69.3613 28.1809C69.6493 28.1809 69.9773 28.0129 70.3453 27.6769C70.7133 27.3249 71.0893 26.8369 71.4733 26.2129C71.8573 25.5889 72.2253 24.8449 72.5773 23.9809C72.9293 23.1169 73.2333 22.1729 73.4893 21.1489L72.9853 23.7409C72.5213 25.1009 72.0253 26.1889 71.4973 27.0049C70.9853 27.8209 70.4413 28.4049 69.8653 28.7569C69.3053 29.1089 68.7213 29.2849 68.1133 29.2849C67.2493 29.2849 66.6093 29.0209 66.1933 28.4929C65.7773 27.9489 65.5693 27.2289 65.5693 26.3329C65.5693 25.5009 65.7053 24.6289 65.9773 23.7169C66.2493 22.7889 66.6253 21.8849 67.1053 21.0049C67.6013 20.1089 68.1613 19.3089 68.7853 18.6049C69.4093 17.8849 70.0733 17.3089 70.7773 16.8769C71.4813 16.4449 72.1853 16.2289 72.8893 16.2289C73.4333 16.2289 73.8493 16.4609 74.1373 16.9249C74.4253 17.3729 74.4973 18.0609 74.3533 18.9889L74.0893 19.1329C74.2013 18.4609 74.1693 17.9329 73.9933 17.5489C73.8333 17.1649 73.5613 16.9729 73.1773 16.9729C72.8093 16.9729 72.4173 17.1649 72.0013 17.5489C71.6013 17.9329 71.2013 18.4529 70.8013 19.1089C70.4013 19.7649 70.0333 20.5089 69.6973 21.3409C69.3773 22.1729 69.1213 23.0369 68.9293 23.9329C68.7373 24.8289 68.6413 25.7009 68.6413 26.5489C68.6413 27.1409 68.6973 27.5649 68.8093 27.8209C68.9373 28.0609 69.1213 28.1809 69.3613 28.1809ZM74.7613 16.5649C75.3373 16.5489 75.8733 16.5169 76.3693 16.4689C76.8813 16.4209 77.3693 16.3409 77.8333 16.2289L74.7373 26.8849C74.6733 27.0769 74.6253 27.2769 74.5933 27.4849C74.5773 27.6769 74.5933 27.8449 74.6413 27.9889C74.7053 28.1169 74.8413 28.1809 75.0493 28.1809C75.3053 28.1809 75.5693 28.0449 75.8413 27.7729C76.1133 27.5009 76.3933 26.9489 76.6813 26.1169L77.0413 25.0369H77.4973L76.8973 26.7889C76.6733 27.4449 76.3933 27.9569 76.0573 28.3249C75.7213 28.6769 75.3613 28.9249 74.9773 29.0689C74.6093 29.2129 74.2413 29.2849 73.8733 29.2849C73.1053 29.2849 72.5613 29.0449 72.2413 28.5649C72.0333 28.2129 71.9533 27.7809 72.0013 27.2689C72.0493 26.7569 72.1533 26.2049 72.3133 25.6129L74.7613 16.5649ZM87.6463 17.3329C87.2943 17.3329 86.9023 17.5649 86.4703 18.0289C86.0543 18.4929 85.6303 19.1329 85.1983 19.9489C84.7663 20.7489 84.3583 21.6529 83.9743 22.6609C83.6063 23.6689 83.2863 24.7249 83.0143 25.8289L83.4703 23.3329C84.0303 21.6369 84.5903 20.2689 85.1503 19.2289C85.7103 18.1889 86.2863 17.4289 86.8783 16.9489C87.4703 16.4689 88.1023 16.2289 88.7743 16.2289C89.6703 16.2289 90.3583 16.5329 90.8383 17.1409C91.3343 17.7489 91.5823 18.6449 91.5823 19.8289C91.5823 20.5649 91.4783 21.3569 91.2703 22.2049C91.0623 23.0529 90.7583 23.8929 90.3583 24.7249C89.9743 25.5569 89.4943 26.3249 88.9183 27.0289C88.3423 27.7169 87.6783 28.2689 86.9263 28.6849C86.1903 29.0849 85.3663 29.2849 84.4543 29.2849C83.9423 29.2849 83.4863 29.1729 83.0863 28.9489C82.6863 28.7249 82.3903 28.4129 82.1983 28.0129L82.3903 27.6049C82.5823 27.9729 82.7903 28.2369 83.0143 28.3969C83.2383 28.5569 83.5023 28.6369 83.8063 28.6369C84.3023 28.6369 84.7823 28.4449 85.2463 28.0609C85.7263 27.6609 86.1583 27.1329 86.5423 26.4769C86.9423 25.8049 87.2943 25.0609 87.5983 24.2449C87.9023 23.4289 88.1343 22.5969 88.2943 21.7489C88.4703 20.9009 88.5583 20.1089 88.5583 19.3729C88.5583 18.6049 88.4783 18.0769 88.3183 17.7889C88.1583 17.4849 87.9343 17.3329 87.6463 17.3329ZM83.7343 13.0849C84.2943 13.0369 84.8303 12.9729 85.3423 12.8929C85.8703 12.7969 86.3663 12.6689 86.8303 12.5089L81.6223 30.8689C81.3983 31.6369 81.4623 32.1489 81.8143 32.4049C82.1663 32.6609 82.7343 32.7889 83.5183 32.7889L83.3743 33.2929C83.0063 33.2769 82.4943 33.2529 81.8383 33.2209C81.1823 33.2049 80.4943 33.1969 79.7743 33.1969C79.1823 33.1969 78.5823 33.2049 77.9743 33.2209C77.3663 33.2529 76.9183 33.2769 76.6303 33.2929L76.7743 32.7889C77.3503 32.7889 77.7663 32.6769 78.0223 32.4529C78.2783 32.2449 78.4863 31.8609 78.6463 31.3009L83.7343 13.0849ZM78.9583 20.4769C79.5663 19.8689 80.1263 19.2609 80.6383 18.6529C81.1663 18.0289 81.6783 17.3009 82.1743 16.4689C82.6703 15.6209 83.1663 14.5569 83.6623 13.2769L83.7343 13.6609C83.3983 14.7649 82.9983 15.7409 82.5343 16.5889C82.0703 17.4209 81.5583 18.1729 80.9983 18.8449C80.4543 19.5169 79.8623 20.1649 79.2223 20.7889L78.9583 20.4769ZM93.1241 27.7489C93.4761 27.5569 93.8121 27.3569 94.1321 27.1489C94.4681 26.9409 94.7801 26.7569 95.0681 26.5969C95.3721 26.4209 95.6601 26.2769 95.9321 26.1649C96.2041 26.0529 96.4761 25.9969 96.7481 25.9969C97.1321 25.9969 97.4681 26.0609 97.7561 26.1889C98.0441 26.3169 98.3241 26.4449 98.5961 26.5729C98.8681 26.7009 99.1801 26.7649 99.5321 26.7649C99.8681 26.7649 100.124 26.6769 100.3 26.5009C100.476 26.3249 100.564 26.0929 100.564 25.8049C100.564 25.4049 100.412 25.0849 100.108 24.8449C99.8041 24.5889 99.4361 24.4129 99.0041 24.3169L99.1481 23.9569C99.9641 24.1329 100.572 24.4289 100.972 24.8449C101.388 25.2609 101.596 25.7889 101.596 26.4289C101.596 26.9089 101.492 27.3649 101.284 27.7969C101.092 28.2129 100.78 28.5489 100.348 28.8049C99.9161 29.0449 99.3561 29.1649 98.6681 29.1649C98.1881 29.1649 97.7721 29.1009 97.4201 28.9729C97.0681 28.8609 96.7321 28.7249 96.4121 28.5649C96.0921 28.4049 95.7481 28.2689 95.3801 28.1569C95.0121 28.0289 94.5801 27.9649 94.0841 27.9649C93.6681 27.9649 93.2841 28.0369 92.9321 28.1809C92.5961 28.3089 92.2601 28.5649 91.9241 28.9489H91.2281L102.604 17.6929C102.22 17.8849 101.844 18.0929 101.476 18.3169C101.124 18.5409 100.788 18.7569 100.468 18.9649C100.148 19.1569 99.8361 19.3169 99.5321 19.4449C99.2281 19.5569 98.9401 19.6129 98.6681 19.6129C98.2841 19.6129 97.9481 19.5489 97.6601 19.4209C97.3721 19.2929 97.0921 19.1649 96.8201 19.0369C96.5481 18.9089 96.2441 18.8449 95.9081 18.8449C95.5881 18.8449 95.3321 18.9329 95.1401 19.1089C94.9481 19.2689 94.8521 19.5009 94.8521 19.8049C94.8521 20.1729 94.9961 20.4849 95.2841 20.7409C95.5721 20.9809 95.9481 21.1649 96.4121 21.2929L96.2681 21.6529C95.5001 21.4769 94.9001 21.1889 94.4681 20.7889C94.0361 20.3889 93.8201 19.8689 93.8201 19.2289C93.8201 18.7489 93.9321 18.2929 94.1561 17.8609C94.3801 17.4289 94.7241 17.0769 95.1881 16.8049C95.6681 16.5329 96.2841 16.3969 97.0361 16.3969C97.5001 16.3969 97.9081 16.4529 98.2601 16.5649C98.6121 16.6769 98.9401 16.8129 99.2441 16.9729C99.5641 17.1329 99.9001 17.2689 100.252 17.3809C100.604 17.4929 101.028 17.5489 101.524 17.5489C101.972 17.5489 102.364 17.4849 102.7 17.3569C103.036 17.2129 103.364 16.9489 103.684 16.5649H104.38L93.1241 27.7489ZM107.693 12.4369C107.741 11.8449 107.981 11.3729 108.413 11.0209C108.845 10.6689 109.349 10.4929 109.925 10.4929C110.453 10.4929 110.853 10.6449 111.125 10.9489C111.413 11.2369 111.533 11.6129 111.485 12.0769C111.437 12.6209 111.197 13.0769 110.765 13.4449C110.333 13.8129 109.829 13.9969 109.253 13.9969C108.725 13.9969 108.317 13.8529 108.029 13.5649C107.757 13.2609 107.645 12.8849 107.693 12.4369ZM106.853 18.6049C107.141 17.7409 107.045 17.3089 106.565 17.3089C106.245 17.3089 105.957 17.4769 105.701 17.8129C105.445 18.1329 105.173 18.6529 104.885 19.3729L104.477 20.5009H104.021L104.645 18.7009C104.885 18.0609 105.173 17.5649 105.509 17.2129C105.845 16.8449 106.221 16.5889 106.637 16.4449C107.053 16.3009 107.461 16.2289 107.861 16.2289C108.421 16.2289 108.845 16.3329 109.133 16.5409C109.421 16.7489 109.613 17.0209 109.709 17.3569C109.805 17.6929 109.829 18.0609 109.781 18.4609C109.733 18.8449 109.645 19.2209 109.517 19.5889L106.973 26.9089C106.829 27.3409 106.789 27.6689 106.853 27.8929C106.917 28.1009 107.069 28.2049 107.309 28.2049C107.565 28.2049 107.821 28.0689 108.077 27.7969C108.349 27.5089 108.637 26.9569 108.941 26.1409L109.349 25.0609H109.805L109.205 26.8129C108.965 27.4529 108.677 27.9569 108.341 28.3249C108.005 28.6769 107.637 28.9249 107.237 29.0689C106.837 29.2129 106.445 29.2849 106.061 29.2849C105.357 29.2849 104.845 29.1329 104.525 28.8289C104.205 28.5089 104.045 28.0769 104.045 27.5329C104.045 26.9729 104.173 26.3329 104.429 25.6129L106.853 18.6049ZM119.967 17.3329C119.615 17.3329 119.223 17.5649 118.791 18.0289C118.375 18.4929 117.951 19.1329 117.519 19.9489C117.087 20.7489 116.679 21.6529 116.295 22.6609C115.927 23.6689 115.607 24.7249 115.335 25.8289L115.791 23.3329C116.351 21.6369 116.911 20.2689 117.471 19.2289C118.031 18.1889 118.607 17.4289 119.199 16.9489C119.791 16.4689 120.423 16.2289 121.095 16.2289C121.991 16.2289 122.679 16.5329 123.159 17.1409C123.655 17.7489 123.903 18.6449 123.903 19.8289C123.903 20.5649 123.799 21.3569 123.591 22.2049C123.383 23.0529 123.079 23.8929 122.679 24.7249C122.295 25.5569 121.815 26.3249 121.239 27.0289C120.663 27.7169 119.999 28.2689 119.247 28.6849C118.511 29.0849 117.687 29.2849 116.775 29.2849C116.263 29.2849 115.807 29.1729 115.407 28.9489C115.007 28.7249 114.711 28.4129 114.519 28.0129L114.711 27.6049C114.903 27.9729 115.111 28.2369 115.335 28.3969C115.559 28.5569 115.823 28.6369 116.127 28.6369C116.623 28.6369 117.103 28.4449 117.567 28.0609C118.047 27.6609 118.479 27.1329 118.863 26.4769C119.263 25.8049 119.615 25.0609 119.919 24.2449C120.223 23.4289 120.455 22.5969 120.615 21.7489C120.791 20.9009 120.879 20.1089 120.879 19.3729C120.879 18.6049 120.799 18.0769 120.639 17.7889C120.479 17.4849 120.255 17.3329 119.967 17.3329ZM116.055 13.0849C116.615 13.0369 117.151 12.9729 117.663 12.8929C118.191 12.7969 118.687 12.6689 119.151 12.5089L113.943 30.8689C113.719 31.6369 113.783 32.1489 114.135 32.4049C114.487 32.6609 115.055 32.7889 115.839 32.7889L115.695 33.2929C115.327 33.2769 114.815 33.2529 114.159 33.2209C113.503 33.2049 112.815 33.1969 112.095 33.1969C111.503 33.1969 110.903 33.2049 110.295 33.2209C109.687 33.2529 109.239 33.2769 108.951 33.2929L109.095 32.7889C109.671 32.7889 110.087 32.6769 110.343 32.4529C110.599 32.2449 110.807 31.8609 110.967 31.3009L116.055 13.0849ZM111.279 20.4769C111.887 19.8689 112.447 19.2609 112.959 18.6529C113.487 18.0289 113.999 17.3009 114.495 16.4689C114.991 15.6209 115.487 14.5569 115.983 13.2769L116.055 13.6609C115.719 14.7649 115.319 15.7409 114.855 16.5889C114.391 17.4209 113.879 18.1729 113.319 18.8449C112.775 19.5169 112.183 20.1649 111.543 20.7889L111.279 20.4769Z" fill="black"/>
</svg>
