<svg width="90" height="24" viewBox="0 0 90 24" fill="none" xmlns="http://www.w3.org/2000/svg">
<path d="M11.844 7.174L4.692 19.03H3.756L1.86 3.934C1.78 3.326 1.604 2.926 1.332 2.734C1.06 2.526 0.804 2.414 0.564 2.398L0.66 1.918C1.044 1.934 1.508 1.95 2.052 1.966C2.596 1.982 3.148 1.99 3.708 1.99C4.316 1.99 4.876 1.982 5.388 1.966C5.9 1.95 6.316 1.934 6.636 1.918L6.54 2.398C6.028 2.43 5.668 2.574 5.46 2.83C5.252 3.07 5.18 3.598 5.244 4.414L6.516 15.502L5.964 16.006L11.652 6.574L11.844 7.174ZM20.244 5.518C20.676 4.686 20.9 4.054 20.916 3.622C20.932 3.19 20.772 2.886 20.436 2.71C20.1 2.534 19.612 2.43 18.972 2.398L19.092 1.918C19.332 1.934 19.628 1.95 19.98 1.966C20.348 1.966 20.716 1.974 21.084 1.99C21.468 1.99 21.804 1.99 22.092 1.99C22.476 1.99 22.804 1.982 23.076 1.966C23.364 1.95 23.636 1.934 23.892 1.918L23.772 2.398C23.484 2.478 23.196 2.59 22.908 2.734C22.636 2.878 22.348 3.11 22.044 3.43C21.756 3.75 21.46 4.206 21.156 4.798L13.692 19.03H12.756L10.572 3.934C10.492 3.342 10.348 2.942 10.14 2.734C9.932 2.526 9.724 2.414 9.516 2.398L9.612 1.918C9.964 1.934 10.388 1.95 10.884 1.966C11.396 1.982 11.908 1.99 12.42 1.99C13.14 1.99 13.804 1.982 14.412 1.966C15.036 1.95 15.54 1.934 15.924 1.918L15.828 2.398C15.028 2.43 14.492 2.566 14.22 2.806C13.948 3.046 13.86 3.582 13.956 4.414L15.468 15.166L14.916 15.646L20.244 5.518ZM24.105 18.91H21.153L24.033 8.566C24.177 8.086 24.225 7.75 24.177 7.558C24.129 7.366 23.985 7.27 23.745 7.27C23.441 7.27 23.161 7.422 22.905 7.726C22.649 8.03 22.385 8.566 22.113 9.334L21.705 10.462H21.249L21.873 8.662C22.097 8.022 22.377 7.526 22.713 7.174C23.049 6.806 23.417 6.55 23.817 6.406C24.217 6.262 24.625 6.19 25.041 6.19C25.553 6.19 25.929 6.294 26.169 6.502C26.425 6.71 26.585 6.982 26.649 7.318C26.729 7.654 26.745 8.022 26.697 8.422C26.665 8.806 26.601 9.182 26.505 9.55L24.105 18.91ZM30.249 6.742C29.897 6.742 29.537 6.87 29.169 7.126C28.801 7.366 28.417 7.758 28.017 8.302C27.617 8.846 27.209 9.566 26.793 10.462C26.393 11.342 25.977 12.422 25.545 13.702C25.113 14.966 24.681 16.462 24.249 18.19L24.825 14.998C25.321 13.318 25.785 11.918 26.217 10.798C26.665 9.662 27.097 8.758 27.513 8.086C27.945 7.398 28.401 6.91 28.881 6.622C29.361 6.334 29.881 6.19 30.441 6.19C31.017 6.19 31.457 6.358 31.761 6.694C32.081 7.03 32.241 7.446 32.241 7.942C32.241 8.342 32.145 8.718 31.953 9.07C31.761 9.406 31.505 9.678 31.185 9.886C30.881 10.078 30.529 10.174 30.129 10.174C29.729 10.174 29.409 10.07 29.169 9.862C28.945 9.654 28.833 9.35 28.833 8.95C28.833 8.598 28.913 8.278 29.073 7.99C29.233 7.702 29.441 7.462 29.697 7.27C29.953 7.062 30.233 6.918 30.537 6.838C30.505 6.806 30.465 6.782 30.417 6.766C30.369 6.75 30.313 6.742 30.249 6.742ZM35.0359 18.142C35.3239 18.142 35.6519 17.974 36.0199 17.638C36.3879 17.286 36.7639 16.798 37.1479 16.174C37.5319 15.55 37.8999 14.806 38.2519 13.942C38.6039 13.078 38.9079 12.134 39.1639 11.11L38.6599 13.702C38.1959 15.062 37.6999 16.15 37.1719 16.966C36.6599 17.782 36.1159 18.366 35.5399 18.718C34.9799 19.07 34.3959 19.246 33.7879 19.246C32.9239 19.246 32.2839 18.982 31.8679 18.454C31.4519 17.91 31.2439 17.19 31.2439 16.294C31.2439 15.462 31.3799 14.59 31.6519 13.678C31.9239 12.75 32.2999 11.846 32.7799 10.966C33.2759 10.07 33.8359 9.27 34.4599 8.566C35.0839 7.846 35.7479 7.27 36.4519 6.838C37.1559 6.406 37.8599 6.19 38.5639 6.19C39.1079 6.19 39.5239 6.422 39.8119 6.886C40.0999 7.334 40.1719 8.022 40.0279 8.95L39.7639 9.094C39.8759 8.422 39.8439 7.894 39.6679 7.51C39.5079 7.126 39.2359 6.934 38.8519 6.934C38.4839 6.934 38.0919 7.126 37.6759 7.51C37.2759 7.894 36.8759 8.414 36.4759 9.07C36.0759 9.726 35.7079 10.47 35.3719 11.302C35.0519 12.134 34.7959 12.998 34.6039 13.894C34.4119 14.79 34.3159 15.662 34.3159 16.51C34.3159 17.102 34.3719 17.526 34.4839 17.782C34.6119 18.022 34.7959 18.142 35.0359 18.142ZM40.4359 6.526C41.0119 6.51 41.5479 6.478 42.0439 6.43C42.5559 6.382 43.0439 6.302 43.5079 6.19L40.4119 16.846C40.3479 17.038 40.2999 17.238 40.2679 17.446C40.2519 17.638 40.2679 17.806 40.3159 17.95C40.3799 18.078 40.5159 18.142 40.7239 18.142C40.9799 18.142 41.2439 18.006 41.5159 17.734C41.7879 17.462 42.0679 16.91 42.3559 16.078L42.7159 14.998H43.1719L42.5719 16.75C42.3479 17.406 42.0679 17.918 41.7319 18.286C41.3959 18.638 41.0359 18.886 40.6519 19.03C40.2839 19.174 39.9159 19.246 39.5479 19.246C38.7799 19.246 38.2359 19.006 37.9159 18.526C37.7079 18.174 37.6279 17.742 37.6759 17.23C37.7239 16.718 37.8279 16.166 37.9879 15.574L40.4359 6.526ZM53.3209 7.294C52.9689 7.294 52.5769 7.526 52.1449 7.99C51.7289 8.454 51.3049 9.094 50.8729 9.91C50.4409 10.71 50.0329 11.614 49.6489 12.622C49.2809 13.63 48.9609 14.686 48.6889 15.79L49.1449 13.294C49.7049 11.598 50.2649 10.23 50.8249 9.19C51.3849 8.15 51.9609 7.39 52.5529 6.91C53.1449 6.43 53.7769 6.19 54.4489 6.19C55.3449 6.19 56.0329 6.494 56.5129 7.102C57.0089 7.71 57.2569 8.606 57.2569 9.79C57.2569 10.526 57.1529 11.318 56.9449 12.166C56.7369 13.014 56.4329 13.854 56.0329 14.686C55.6489 15.518 55.1689 16.286 54.5929 16.99C54.0169 17.678 53.3529 18.23 52.6009 18.646C51.8649 19.046 51.0409 19.246 50.1289 19.246C49.6169 19.246 49.1609 19.134 48.7609 18.91C48.3609 18.686 48.0649 18.374 47.8729 17.974L48.0649 17.566C48.2569 17.934 48.4649 18.198 48.6889 18.358C48.9129 18.518 49.1769 18.598 49.4809 18.598C49.9769 18.598 50.4569 18.406 50.9209 18.022C51.4009 17.622 51.8329 17.094 52.2169 16.438C52.6169 15.766 52.9689 15.022 53.2729 14.206C53.5769 13.39 53.8089 12.558 53.9689 11.71C54.1449 10.862 54.2329 10.07 54.2329 9.334C54.2329 8.566 54.1529 8.038 53.9929 7.75C53.8329 7.446 53.6089 7.294 53.3209 7.294ZM49.4089 3.046C49.9689 2.998 50.5049 2.934 51.0169 2.854C51.5449 2.758 52.0409 2.63 52.5049 2.47L47.2969 20.83C47.0729 21.598 47.1369 22.11 47.4889 22.366C47.8409 22.622 48.4089 22.75 49.1929 22.75L49.0489 23.254C48.6809 23.238 48.1689 23.214 47.5129 23.182C46.8569 23.166 46.1689 23.158 45.4489 23.158C44.8569 23.158 44.2569 23.166 43.6489 23.182C43.0409 23.214 42.5929 23.238 42.3049 23.254L42.4489 22.75C43.0249 22.75 43.4409 22.638 43.6969 22.414C43.9529 22.206 44.1609 21.822 44.3209 21.262L49.4089 3.046ZM44.6329 10.438C45.2409 9.83 45.8009 9.222 46.3129 8.614C46.8409 7.99 47.3529 7.262 47.8489 6.43C48.3449 5.582 48.8409 4.518 49.3369 3.238L49.4089 3.622C49.0729 4.726 48.6729 5.702 48.2089 6.55C47.7449 7.382 47.2329 8.134 46.6729 8.806C46.1289 9.478 45.5369 10.126 44.8969 10.75L44.6329 10.438Z" fill="#ED147C"/>
<path d="M58.7987 17.71C59.1507 17.518 59.4867 17.318 59.8067 17.11C60.1427 16.902 60.4547 16.718 60.7427 16.558C61.0467 16.382 61.3347 16.238 61.6067 16.126C61.8787 16.014 62.1507 15.958 62.4227 15.958C62.8067 15.958 63.1427 16.022 63.4307 16.15C63.7187 16.278 63.9987 16.406 64.2707 16.534C64.5427 16.662 64.8547 16.726 65.2067 16.726C65.5427 16.726 65.7987 16.638 65.9747 16.462C66.1507 16.286 66.2387 16.054 66.2387 15.766C66.2387 15.366 66.0867 15.046 65.7827 14.806C65.4787 14.55 65.1107 14.374 64.6787 14.278L64.8227 13.918C65.6387 14.094 66.2467 14.39 66.6467 14.806C67.0627 15.222 67.2707 15.75 67.2707 16.39C67.2707 16.87 67.1667 17.326 66.9587 17.758C66.7667 18.174 66.4547 18.51 66.0227 18.766C65.5907 19.006 65.0307 19.126 64.3427 19.126C63.8627 19.126 63.4467 19.062 63.0947 18.934C62.7427 18.822 62.4067 18.686 62.0867 18.526C61.7667 18.366 61.4227 18.23 61.0547 18.118C60.6867 17.99 60.2547 17.926 59.7587 17.926C59.3427 17.926 58.9587 17.998 58.6067 18.142C58.2707 18.27 57.9347 18.526 57.5987 18.91H56.9027L68.2787 7.654C67.8947 7.846 67.5187 8.054 67.1507 8.278C66.7987 8.502 66.4627 8.718 66.1427 8.926C65.8227 9.118 65.5107 9.278 65.2067 9.406C64.9027 9.518 64.6147 9.574 64.3427 9.574C63.9587 9.574 63.6227 9.51 63.3347 9.382C63.0467 9.254 62.7667 9.126 62.4947 8.998C62.2227 8.87 61.9187 8.806 61.5827 8.806C61.2627 8.806 61.0067 8.894 60.8147 9.07C60.6227 9.23 60.5267 9.462 60.5267 9.766C60.5267 10.134 60.6707 10.446 60.9587 10.702C61.2467 10.942 61.6227 11.126 62.0867 11.254L61.9427 11.614C61.1747 11.438 60.5747 11.15 60.1427 10.75C59.7107 10.35 59.4947 9.83 59.4947 9.19C59.4947 8.71 59.6067 8.254 59.8307 7.822C60.0547 7.39 60.3987 7.038 60.8627 6.766C61.3427 6.494 61.9587 6.358 62.7107 6.358C63.1747 6.358 63.5827 6.414 63.9347 6.526C64.2867 6.638 64.6147 6.774 64.9187 6.934C65.2387 7.094 65.5747 7.23 65.9267 7.342C66.2787 7.454 66.7027 7.51 67.1987 7.51C67.6467 7.51 68.0387 7.446 68.3747 7.318C68.7107 7.174 69.0387 6.91 69.3587 6.526H70.0547L58.7987 17.71ZM73.3674 2.398C73.4154 1.806 73.6554 1.334 74.0874 0.982003C74.5194 0.630002 75.0234 0.454002 75.5994 0.454002C76.1274 0.454002 76.5274 0.606002 76.7994 0.910002C77.0874 1.198 77.2074 1.574 77.1594 2.038C77.1114 2.582 76.8714 3.038 76.4394 3.406C76.0074 3.774 75.5034 3.958 74.9274 3.958C74.3994 3.958 73.9914 3.814 73.7034 3.526C73.4314 3.222 73.3194 2.846 73.3674 2.398ZM72.5274 8.566C72.8154 7.702 72.7194 7.27 72.2394 7.27C71.9194 7.27 71.6314 7.438 71.3754 7.774C71.1194 8.094 70.8474 8.614 70.5594 9.334L70.1514 10.462H69.6954L70.3194 8.662C70.5594 8.022 70.8474 7.526 71.1834 7.174C71.5194 6.806 71.8954 6.55 72.3114 6.406C72.7274 6.262 73.1354 6.19 73.5354 6.19C74.0954 6.19 74.5194 6.294 74.8074 6.502C75.0954 6.71 75.2874 6.982 75.3834 7.318C75.4794 7.654 75.5034 8.022 75.4554 8.422C75.4074 8.806 75.3194 9.182 75.1914 9.55L72.6474 16.87C72.5034 17.302 72.4634 17.63 72.5274 17.854C72.5914 18.062 72.7434 18.166 72.9834 18.166C73.2394 18.166 73.4954 18.03 73.7514 17.758C74.0234 17.47 74.3114 16.918 74.6154 16.102L75.0234 15.022H75.4794L74.8794 16.774C74.6394 17.414 74.3514 17.918 74.0154 18.286C73.6794 18.638 73.3114 18.886 72.9114 19.03C72.5114 19.174 72.1194 19.246 71.7354 19.246C71.0314 19.246 70.5194 19.094 70.1994 18.79C69.8794 18.47 69.7194 18.038 69.7194 17.494C69.7194 16.934 69.8474 16.294 70.1034 15.574L72.5274 8.566ZM85.6412 7.294C85.2892 7.294 84.8972 7.526 84.4652 7.99C84.0492 8.454 83.6252 9.094 83.1932 9.91C82.7612 10.71 82.3532 11.614 81.9692 12.622C81.6012 13.63 81.2812 14.686 81.0092 15.79L81.4652 13.294C82.0252 11.598 82.5852 10.23 83.1452 9.19C83.7052 8.15 84.2812 7.39 84.8732 6.91C85.4652 6.43 86.0972 6.19 86.7692 6.19C87.6652 6.19 88.3532 6.494 88.8332 7.102C89.3292 7.71 89.5772 8.606 89.5772 9.79C89.5772 10.526 89.4732 11.318 89.2652 12.166C89.0572 13.014 88.7532 13.854 88.3532 14.686C87.9692 15.518 87.4892 16.286 86.9132 16.99C86.3372 17.678 85.6732 18.23 84.9212 18.646C84.1852 19.046 83.3612 19.246 82.4492 19.246C81.9372 19.246 81.4812 19.134 81.0812 18.91C80.6812 18.686 80.3852 18.374 80.1932 17.974L80.3852 17.566C80.5772 17.934 80.7852 18.198 81.0092 18.358C81.2332 18.518 81.4972 18.598 81.8012 18.598C82.2972 18.598 82.7772 18.406 83.2412 18.022C83.7212 17.622 84.1532 17.094 84.5372 16.438C84.9372 15.766 85.2892 15.022 85.5932 14.206C85.8972 13.39 86.1292 12.558 86.2892 11.71C86.4652 10.862 86.5532 10.07 86.5532 9.334C86.5532 8.566 86.4732 8.038 86.3132 7.75C86.1532 7.446 85.9292 7.294 85.6412 7.294ZM81.7292 3.046C82.2892 2.998 82.8252 2.934 83.3372 2.854C83.8652 2.758 84.3612 2.63 84.8252 2.47L79.6172 20.83C79.3932 21.598 79.4572 22.11 79.8092 22.366C80.1612 22.622 80.7292 22.75 81.5132 22.75L81.3692 23.254C81.0012 23.238 80.4892 23.214 79.8332 23.182C79.1772 23.166 78.4892 23.158 77.7692 23.158C77.1772 23.158 76.5772 23.166 75.9692 23.182C75.3612 23.214 74.9132 23.238 74.6252 23.254L74.7692 22.75C75.3452 22.75 75.7612 22.638 76.0172 22.414C76.2732 22.206 76.4812 21.822 76.6412 21.262L81.7292 3.046ZM76.9532 10.438C77.5612 9.83 78.1212 9.222 78.6332 8.614C79.1612 7.99 79.6732 7.262 80.1692 6.43C80.6652 5.582 81.1612 4.518 81.6572 3.238L81.7292 3.622C81.3932 4.726 80.9932 5.702 80.5292 6.55C80.0652 7.382 79.5532 8.134 78.9932 8.806C78.4492 9.478 77.8572 10.126 77.2172 10.75L76.9532 10.438Z" fill="#A9005B"/>
</svg>
