<svg width="61" height="16" viewBox="0 0 61 16" fill="none" xmlns="http://www.w3.org/2000/svg">
<path d="M8.396 5.086L3.628 12.99H3.004L1.74 2.926C1.68667 2.52067 1.56933 2.254 1.388 2.126C1.20667 1.98734 1.036 1.91267 0.876 1.902L0.94 1.582C1.196 1.59267 1.50533 1.60334 1.868 1.614C2.23067 1.62467 2.59867 1.63 2.972 1.63C3.37733 1.63 3.75067 1.62467 4.092 1.614C4.43333 1.60334 4.71067 1.59267 4.924 1.582L4.86 1.902C4.51867 1.92334 4.27867 2.01934 4.14 2.19C4.00133 2.35 3.95333 2.702 3.996 3.246L4.844 10.638L4.476 10.974L8.268 4.686L8.396 5.086ZM13.996 3.982C14.284 3.42734 14.4333 3.006 14.444 2.718C14.4547 2.43 14.348 2.22734 14.124 2.11C13.9 1.99267 13.5747 1.92334 13.148 1.902L13.228 1.582C13.388 1.59267 13.5853 1.60334 13.82 1.614C14.0653 1.614 14.3107 1.61934 14.556 1.63C14.812 1.63 15.036 1.63 15.228 1.63C15.484 1.63 15.7027 1.62467 15.884 1.614C16.076 1.60334 16.2573 1.59267 16.428 1.582L16.348 1.902C16.156 1.95534 15.964 2.03 15.772 2.126C15.5907 2.222 15.3987 2.37667 15.196 2.59C15.004 2.80334 14.8067 3.10734 14.604 3.502L9.628 12.99H9.004L7.548 2.926C7.49467 2.53134 7.39867 2.26467 7.26 2.126C7.12133 1.98734 6.98267 1.91267 6.844 1.902L6.908 1.582C7.14267 1.59267 7.42533 1.60334 7.756 1.614C8.09733 1.62467 8.43867 1.63 8.78 1.63C9.26 1.63 9.70267 1.62467 10.108 1.614C10.524 1.60334 10.86 1.59267 11.116 1.582L11.052 1.902C10.5187 1.92334 10.1613 2.014 9.98 2.174C9.79867 2.334 9.74 2.69134 9.804 3.246L10.812 10.414L10.444 10.734L13.996 3.982ZM16.57 12.91H14.602L16.522 6.014C16.618 5.694 16.65 5.47 16.618 5.342C16.586 5.214 16.49 5.15 16.33 5.15C16.1273 5.15 15.9407 5.25134 15.77 5.454C15.5993 5.65667 15.4233 6.014 15.242 6.526L14.97 7.278H14.666L15.082 6.078C15.2313 5.65134 15.418 5.32067 15.642 5.086C15.866 4.84067 16.1113 4.67 16.378 4.574C16.6447 4.478 16.9167 4.43 17.194 4.43C17.5353 4.43 17.786 4.49934 17.946 4.638C18.1167 4.77667 18.2233 4.958 18.266 5.182C18.3193 5.406 18.33 5.65134 18.298 5.918C18.2767 6.174 18.234 6.42467 18.17 6.67L16.57 12.91ZM20.666 4.798C20.4313 4.798 20.1913 4.88334 19.946 5.054C19.7007 5.214 19.4447 5.47534 19.178 5.838C18.9113 6.20067 18.6393 6.68067 18.362 7.278C18.0953 7.86467 17.818 8.58467 17.53 9.438C17.242 10.2807 16.954 11.278 16.666 12.43L17.05 10.302C17.3807 9.182 17.69 8.24867 17.978 7.502C18.2767 6.74467 18.5647 6.142 18.842 5.694C19.13 5.23534 19.434 4.91 19.754 4.718C20.074 4.526 20.4207 4.43 20.794 4.43C21.178 4.43 21.4713 4.542 21.674 4.766C21.8873 4.99 21.994 5.26734 21.994 5.598C21.994 5.86467 21.93 6.11534 21.802 6.35C21.674 6.574 21.5033 6.75534 21.29 6.894C21.0873 7.022 20.8527 7.086 20.586 7.086C20.3193 7.086 20.106 7.01667 19.946 6.878C19.7967 6.73934 19.722 6.53667 19.722 6.27C19.722 6.03534 19.7753 5.822 19.882 5.63C19.9887 5.438 20.1273 5.278 20.298 5.15C20.4687 5.01134 20.6553 4.91534 20.858 4.862C20.8367 4.84067 20.81 4.82467 20.778 4.814C20.746 4.80334 20.7087 4.798 20.666 4.798ZM23.8573 12.398C24.0493 12.398 24.2679 12.286 24.5133 12.062C24.7586 11.8273 25.0093 11.502 25.2653 11.086C25.5213 10.67 25.7666 10.174 26.0013 9.598C26.2359 9.022 26.4386 8.39267 26.6093 7.71L26.2733 9.438C25.9639 10.3447 25.6333 11.07 25.2812 11.614C24.9399 12.158 24.5773 12.5473 24.1933 12.782C23.8199 13.0167 23.4306 13.134 23.0253 13.134C22.4493 13.134 22.0226 12.958 21.7453 12.606C21.4679 12.2433 21.3293 11.7633 21.3293 11.166C21.3293 10.6113 21.4199 10.03 21.6013 9.422C21.7826 8.80334 22.0333 8.20067 22.3533 7.614C22.6839 7.01667 23.0573 6.48334 23.4733 6.014C23.8893 5.534 24.3319 5.15 24.8013 4.862C25.2706 4.574 25.7399 4.43 26.2093 4.43C26.5719 4.43 26.8493 4.58467 27.0413 4.894C27.2333 5.19267 27.2813 5.65134 27.1853 6.27L27.0093 6.366C27.0839 5.918 27.0626 5.566 26.9453 5.31C26.8386 5.054 26.6573 4.926 26.4013 4.926C26.1559 4.926 25.8946 5.054 25.6173 5.31C25.3506 5.566 25.0839 5.91267 24.8173 6.35C24.5506 6.78734 24.3053 7.28334 24.0813 7.838C23.8679 8.39267 23.6973 8.96867 23.5693 9.566C23.4413 10.1633 23.3773 10.7447 23.3773 11.31C23.3773 11.7047 23.4146 11.9873 23.4893 12.158C23.5746 12.318 23.6973 12.398 23.8573 12.398ZM27.4573 4.654C27.8413 4.64334 28.1986 4.622 28.5293 4.59C28.8706 4.558 29.1959 4.50467 29.5052 4.43L27.4413 11.534C27.3986 11.662 27.3666 11.7953 27.3453 11.934C27.3346 12.062 27.3453 12.174 27.3773 12.27C27.4199 12.3553 27.5106 12.398 27.6493 12.398C27.8199 12.398 27.9959 12.3073 28.1773 12.126C28.3586 11.9447 28.5453 11.5767 28.7373 11.022L28.9773 10.302H29.2812L28.8813 11.47C28.7319 11.9073 28.5453 12.2487 28.3213 12.494C28.0973 12.7287 27.8573 12.894 27.6013 12.99C27.3559 13.086 27.1106 13.134 26.8653 13.134C26.3533 13.134 25.9906 12.974 25.7773 12.654C25.6386 12.4193 25.5853 12.1313 25.6173 11.79C25.6493 11.4487 25.7186 11.0807 25.8253 10.686L27.4573 4.654ZM36.0473 5.166C35.8126 5.166 35.5513 5.32067 35.2633 5.63C34.9859 5.93934 34.7033 6.366 34.4153 6.91C34.1273 7.44334 33.8553 8.046 33.5993 8.718C33.3539 9.39 33.1406 10.094 32.9593 10.83L33.2633 9.166C33.6366 8.03534 34.0099 7.12334 34.3833 6.43C34.7566 5.73667 35.1406 5.23 35.5353 4.91C35.9299 4.59 36.3513 4.43 36.7993 4.43C37.3966 4.43 37.8553 4.63267 38.1753 5.038C38.5059 5.44334 38.6713 6.04067 38.6713 6.83C38.6713 7.32067 38.6019 7.84867 38.4633 8.414C38.3246 8.97934 38.1219 9.53934 37.8553 10.094C37.5993 10.6487 37.2793 11.1607 36.8953 11.63C36.5113 12.0887 36.0686 12.4567 35.5673 12.734C35.0766 13.0007 34.5273 13.134 33.9193 13.134C33.5779 13.134 33.2739 13.0593 33.0073 12.91C32.7406 12.7607 32.5433 12.5527 32.4153 12.286L32.5433 12.014C32.6713 12.2593 32.8099 12.4353 32.9593 12.542C33.1086 12.6487 33.2846 12.702 33.4873 12.702C33.8179 12.702 34.1379 12.574 34.4473 12.318C34.7673 12.0513 35.0553 11.6993 35.3113 11.262C35.5779 10.814 35.8126 10.318 36.0153 9.774C36.2179 9.23 36.3726 8.67534 36.4793 8.11C36.5966 7.54467 36.6553 7.01667 36.6553 6.526C36.6553 6.014 36.6019 5.662 36.4953 5.47C36.3886 5.26734 36.2393 5.166 36.0473 5.166ZM33.4393 2.334C33.8126 2.302 34.1699 2.25934 34.5113 2.206C34.8633 2.142 35.1939 2.05667 35.5033 1.95L32.0312 14.19C31.8819 14.702 31.9246 15.0433 32.1593 15.214C32.3939 15.3847 32.7726 15.47 33.2953 15.47L33.1993 15.806C32.9539 15.7953 32.6126 15.7793 32.1753 15.758C31.7379 15.7473 31.2793 15.742 30.7993 15.742C30.4046 15.742 30.0046 15.7473 29.5992 15.758C29.1939 15.7793 28.8952 15.7953 28.7032 15.806L28.7992 15.47C29.1832 15.47 29.4606 15.3953 29.6312 15.246C29.8019 15.1073 29.9406 14.8513 30.0473 14.478L33.4393 2.334ZM30.2553 7.262C30.6606 6.85667 31.0339 6.45134 31.3753 6.046C31.7273 5.63 32.0686 5.14467 32.3993 4.59C32.7299 4.02467 33.0606 3.31534 33.3913 2.462L33.4393 2.718C33.2153 3.454 32.9486 4.10467 32.6393 4.67C32.3299 5.22467 31.9886 5.726 31.6153 6.174C31.2526 6.622 30.8579 7.054 30.4313 7.47L30.2553 7.262Z" fill="#ED147C"/>
<path d="M39.6991 12.11C39.9338 11.982 40.1578 11.8487 40.3711 11.71C40.5951 11.5713 40.8031 11.4487 40.9951 11.342C41.1978 11.2247 41.3898 11.1287 41.5711 11.054C41.7525 10.9793 41.9338 10.942 42.1151 10.942C42.3711 10.942 42.5951 10.9847 42.7871 11.07C42.9791 11.1553 43.1658 11.2407 43.3471 11.326C43.5285 11.4113 43.7365 11.454 43.9711 11.454C44.1951 11.454 44.3658 11.3953 44.4831 11.278C44.6005 11.1607 44.6591 11.006 44.6591 10.814C44.6591 10.5473 44.5578 10.334 44.3551 10.174C44.1525 10.0033 43.9071 9.886 43.6191 9.822L43.7151 9.582C44.2591 9.69934 44.6645 9.89667 44.9311 10.174C45.2085 10.4513 45.3471 10.8033 45.3471 11.23C45.3471 11.55 45.2778 11.854 45.1391 12.142C45.0111 12.4193 44.8031 12.6433 44.5151 12.814C44.2271 12.974 43.8538 13.054 43.3951 13.054C43.0751 13.054 42.7978 13.0113 42.5631 12.926C42.3285 12.8513 42.1045 12.7607 41.8911 12.654C41.6778 12.5473 41.4485 12.4567 41.2031 12.382C40.9578 12.2967 40.6698 12.254 40.3391 12.254C40.0618 12.254 39.8058 12.302 39.5711 12.398C39.3471 12.4833 39.1231 12.654 38.8991 12.91H38.4351L46.0191 5.406C45.7631 5.534 45.5125 5.67267 45.2671 5.822C45.0325 5.97134 44.8085 6.11534 44.5951 6.254C44.3818 6.382 44.1738 6.48867 43.9711 6.574C43.7685 6.64867 43.5765 6.686 43.3951 6.686C43.1391 6.686 42.9151 6.64334 42.7231 6.558C42.5311 6.47267 42.3445 6.38734 42.1631 6.302C41.9818 6.21667 41.7791 6.174 41.5551 6.174C41.3418 6.174 41.1711 6.23267 41.0431 6.35C40.9151 6.45667 40.8511 6.61134 40.8511 6.814C40.8511 7.05934 40.9471 7.26734 41.1391 7.438C41.3311 7.598 41.5818 7.72067 41.8911 7.806L41.7951 8.046C41.2831 7.92867 40.8831 7.73667 40.5951 7.47C40.3071 7.20334 40.1631 6.85667 40.1631 6.43C40.1631 6.11 40.2378 5.806 40.3871 5.518C40.5365 5.23 40.7658 4.99534 41.0751 4.814C41.3951 4.63267 41.8058 4.542 42.3071 4.542C42.6165 4.542 42.8885 4.57934 43.1231 4.654C43.3578 4.72867 43.5765 4.81934 43.7791 4.926C43.9925 5.03267 44.2165 5.12334 44.4511 5.198C44.6858 5.27267 44.9685 5.31 45.2991 5.31C45.5978 5.31 45.8591 5.26734 46.0831 5.182C46.3071 5.086 46.5258 4.91 46.7391 4.654H47.2031L39.6991 12.11ZM49.4116 1.902C49.4436 1.50734 49.6036 1.19267 49.8916 0.958003C50.1796 0.723336 50.5156 0.606003 50.8996 0.606003C51.2516 0.606003 51.5183 0.707336 51.6996 0.910003C51.8916 1.102 51.9716 1.35267 51.9396 1.662C51.9076 2.02467 51.7476 2.32867 51.4596 2.574C51.1716 2.81934 50.8356 2.942 50.4516 2.942C50.0996 2.942 49.8276 2.846 49.6356 2.654C49.4543 2.45134 49.3796 2.20067 49.4116 1.902ZM48.8516 6.014C49.0436 5.438 48.9796 5.15 48.6596 5.15C48.4463 5.15 48.2543 5.262 48.0836 5.486C47.913 5.69934 47.7316 6.046 47.5396 6.526L47.2676 7.278H46.9636L47.3796 6.078C47.5396 5.65134 47.7316 5.32067 47.9556 5.086C48.1796 4.84067 48.4303 4.67 48.7076 4.574C48.985 4.478 49.257 4.43 49.5236 4.43C49.897 4.43 50.1796 4.49934 50.3716 4.638C50.5636 4.77667 50.6916 4.958 50.7556 5.182C50.8196 5.406 50.8356 5.65134 50.8036 5.918C50.7716 6.174 50.713 6.42467 50.6276 6.67L48.9316 11.55C48.8356 11.838 48.809 12.0567 48.8516 12.206C48.8943 12.3447 48.9956 12.414 49.1556 12.414C49.3263 12.414 49.497 12.3233 49.6676 12.142C49.849 11.95 50.041 11.582 50.2436 11.038L50.5156 10.318H50.8196L50.4196 11.486C50.2596 11.9127 50.0676 12.2487 49.8436 12.494C49.6196 12.7287 49.3743 12.894 49.1076 12.99C48.841 13.086 48.5796 13.134 48.3236 13.134C47.8543 13.134 47.513 13.0327 47.2996 12.83C47.0863 12.6167 46.9796 12.3287 46.9796 11.966C46.9796 11.5927 47.065 11.166 47.2356 10.686L48.8516 6.014ZM57.5941 5.166C57.3595 5.166 57.0981 5.32067 56.8101 5.63C56.5328 5.93934 56.2501 6.366 55.9621 6.91C55.6741 7.44334 55.4021 8.046 55.1461 8.718C54.9008 9.39 54.6875 10.094 54.5061 10.83L54.8101 9.166C55.1835 8.03534 55.5568 7.12334 55.9301 6.43C56.3035 5.73667 56.6875 5.23 57.0821 4.91C57.4768 4.59 57.8981 4.43 58.3461 4.43C58.9435 4.43 59.4021 4.63267 59.7221 5.038C60.0528 5.44334 60.2181 6.04067 60.2181 6.83C60.2181 7.32067 60.1488 7.84867 60.0101 8.414C59.8715 8.97934 59.6688 9.53934 59.4021 10.094C59.1461 10.6487 58.8261 11.1607 58.4421 11.63C58.0581 12.0887 57.6155 12.4567 57.1141 12.734C56.6235 13.0007 56.0741 13.134 55.4661 13.134C55.1248 13.134 54.8208 13.0593 54.5541 12.91C54.2875 12.7607 54.0901 12.5527 53.9621 12.286L54.0901 12.014C54.2181 12.2593 54.3568 12.4353 54.5061 12.542C54.6555 12.6487 54.8315 12.702 55.0341 12.702C55.3648 12.702 55.6848 12.574 55.9941 12.318C56.3141 12.0513 56.6021 11.6993 56.8581 11.262C57.1248 10.814 57.3595 10.318 57.5621 9.774C57.7648 9.23 57.9195 8.67534 58.0261 8.11C58.1435 7.54467 58.2021 7.01667 58.2021 6.526C58.2021 6.014 58.1488 5.662 58.0421 5.47C57.9355 5.26734 57.7861 5.166 57.5941 5.166ZM54.9861 2.334C55.3595 2.302 55.7168 2.25934 56.0581 2.206C56.4101 2.142 56.7408 2.05667 57.0501 1.95L53.5781 14.19C53.4288 14.702 53.4715 15.0433 53.7061 15.214C53.9408 15.3847 54.3195 15.47 54.8421 15.47L54.7461 15.806C54.5008 15.7953 54.1595 15.7793 53.7221 15.758C53.2848 15.7473 52.8261 15.742 52.3461 15.742C51.9515 15.742 51.5515 15.7473 51.1461 15.758C50.7408 15.7793 50.4421 15.7953 50.2501 15.806L50.3461 15.47C50.7301 15.47 51.0075 15.3953 51.1781 15.246C51.3488 15.1073 51.4875 14.8513 51.5941 14.478L54.9861 2.334ZM51.8021 7.262C52.2075 6.85667 52.5808 6.45134 52.9221 6.046C53.2741 5.63 53.6155 5.14467 53.9461 4.59C54.2768 4.02467 54.6075 3.31534 54.9381 2.462L54.9861 2.718C54.7621 3.454 54.4955 4.10467 54.1861 4.67C53.8768 5.22467 53.5355 5.726 53.1621 6.174C52.7995 6.622 52.4048 7.054 51.9781 7.47L51.8021 7.262Z" fill="#A9005B"/>
</svg>
